<svg xmlns="http://www.w3.org/2000/svg" xmlns:svg="http://www.w3.org/2000/svg" viewBox="0 0 24 30" version="1.1" x="0px" y="0px"><g><path style="color:#000000;" d="M 9.5,3 C 8.6774968,3 8,3.6774968 8,4.5 V 6 H 5.5 C 4.1236519,6 3,7.1236519 3,8.5 c 0,3.333333 0,6.666667 0,10 0,1.376348 1.1236533,2.5 2.5,2.5 h 13 c 1.376348,0 2.5,-1.123652 2.5,-2.5 0,-3.333333 0,-6.666667 0,-10 C 21,7.1236519 19.876349,6 18.5,6 H 16 V 4.5 C 16,3.6774968 15.322503,3 14.5,3 Z m 0,1 h 5 C 14.782064,4 15,4.2179359 15,4.5 V 6 H 9 V 4.5 C 9,4.2179359 9.2179359,4 9.5,4 Z m -4,3 h 13 C 19.339645,7 20,7.6603547 20,8.5 v 5 C 20,14.339645 19.339645,15 18.5,15 H 5.5 C 4.6603547,15 4,14.339645 4,13.5 v -5 C 4,7.6603547 4.6603547,7 5.5,7 Z M 4,15.494141 C 4.4186864,15.810195 4.9373561,16 5.5,16 h 13 c 0.562644,0 1.081314,-0.189805 1.5,-0.505859 V 18 18.5 C 20,19.339644 19.339644,20 18.5,20 H 5.5 C 4.6603555,20 4,19.339644 4,18.5 V 18 Z" fill="#000000" stroke-linecap="round" stroke-linejoin="round"/><path style="color:#000000;" d="M 10.5,13 A 0.5,0.5 0 0 0 10,13.5 0.5,0.5 0 0 0 10.5,14 h 3 A 0.5,0.5 0 0 0 14,13.5 0.5,0.5 0 0 0 13.5,13 Z" fill="#000000" stroke-linecap="round" stroke-linejoin="round"/></g><text x="0" y="39" fill="#000000" font-size="5px" font-weight="bold" font-family="'Helvetica Neue', Helvetica, Arial-Unicode, Arial, Sans-serif">Created by Ian Anandara</text><text x="0" y="44" fill="#000000" font-size="5px" font-weight="bold" font-family="'Helvetica Neue', Helvetica, Arial-Unicode, Arial, Sans-serif">from the Noun Project</text></svg>