<svg xmlns="http://www.w3.org/2000/svg" xmlns:xlink="http://www.w3.org/1999/xlink" xmlns:serif="http://www.serif.com/" viewBox="0 0 32 40" version="1.1" xml:space="preserve" style="" x="0px" y="0px" fill-rule="evenodd" clip-rule="evenodd" stroke-linejoin="round" stroke-miterlimit="2"><path d="M13.123,19.409l0,2.832l-10.345,-0c-0.276,-0 -0.5,0.224 -0.5,0.5l-0,7.259c-0,0.276 0.224,0.5 0.5,0.5l26.444,0c0.276,0 0.5,-0.224 0.5,-0.5l0,-7.259c0,-0.276 -0.224,-0.5 -0.5,-0.5l-10.259,-0l-0,-2.832l5.419,-0c0.989,-0 1.79,-0.802 1.79,-1.79l-0,-14.329c-0,-0.989 -0.801,-1.79 -1.79,-1.79l-16.678,0c-0.988,0 -1.789,0.801 -1.789,1.79l-0,14.329c-0,0.988 0.801,1.79 1.789,1.79l5.419,-0Zm5.342,3.832l-0.002,-0l-4.84,-0l-0.001,-0l-10.344,-0c-0,-0 -0,6.259 -0,6.259c-0,0 25.444,0 25.444,0l0,-6.259l-10.257,-0Zm7.905,1.592c-0.848,0 -1.537,0.689 -1.537,1.537c0,0.849 0.689,1.537 1.537,1.537c0.849,0 1.537,-0.688 1.537,-1.537c0,-0.848 -0.688,-1.537 -1.537,-1.537Zm-4.907,0.5l-0,2.074c-0,0.276 0.224,0.5 0.5,0.5c0.276,0 0.5,-0.224 0.5,-0.5l-0,-2.074c-0,-0.276 -0.224,-0.5 -0.5,-0.5c-0.276,0 -0.5,0.224 -0.5,0.5Zm-2.593,0l0,2.074c0,0.276 0.224,0.5 0.5,0.5c0.276,0 0.5,-0.224 0.5,-0.5l0,-2.074c0,-0.276 -0.224,-0.5 -0.5,-0.5c-0.276,0 -0.5,0.224 -0.5,0.5Zm-2.889,0c0,-0.276 -0.223,-0.5 -0.5,-0.5l-10.888,0c-0.277,0 -0.5,0.224 -0.5,0.5l-0,2.074c-0,0.277 0.223,0.5 0.5,0.5l10.888,0c0.277,0 0.5,-0.223 0.5,-0.5l0,-2.074Zm10.389,0.5c0.297,0 0.537,0.241 0.537,0.537c0,0.297 -0.24,0.537 -0.537,0.537c-0.296,0 -0.537,-0.24 -0.537,-0.537c0,-0.296 0.241,-0.537 0.537,-0.537Zm-11.389,0l0,1.074c0,0 -9.888,0 -9.888,0c-0,0 -0,-1.074 -0,-1.074l9.888,0Zm2.982,-6.424l-0,2.832c-0,-0 -3.84,-0 -3.84,-0c0,-0 0,-2.832 0,-2.832l3.84,-0Zm7.209,-16.119l-0,14.329c-0,0.436 -0.354,0.79 -0.79,0.79c0,-0 -16.678,-0 -16.678,-0c-0.436,-0 -0.789,-0.354 -0.789,-0.79c-0,0 -0,-14.329 -0,-14.329c-0,-0.436 0.353,-0.79 0.789,-0.79c0,0 16.678,0 16.678,0c0.436,0 0.79,0.354 0.79,0.79Zm-1.14,12.845l0,-11.361c0,-0.511 -0.414,-0.926 -0.926,-0.926c-2.167,0 -11.958,0 -14.126,0c-0.511,0 -0.926,0.415 -0.926,0.926l0,11.361c0,0.511 0.415,0.925 0.926,0.925c2.168,0 11.959,0 14.126,0c0.512,0 0.926,-0.414 0.926,-0.925Zm-14.978,-11.287l0,11.212l13.978,0l0,-11.212l-13.978,0Z"/><text x="0" y="47" fill="#000000" font-size="5px" font-weight="bold" font-family="'Helvetica Neue', Helvetica, Arial-Unicode, Arial, Sans-serif">Created by Firza Alamsyah</text><text x="0" y="52" fill="#000000" font-size="5px" font-weight="bold" font-family="'Helvetica Neue', Helvetica, Arial-Unicode, Arial, Sans-serif">from the Noun Project</text></svg>