<svg xmlns="http://www.w3.org/2000/svg" xmlns:xlink="http://www.w3.org/1999/xlink" version="1.1" x="0px" y="0px" viewBox="0 0 100 125" style="enable-background:new 0 0 100 100;" xml:space="preserve"><style type="text/css">
	.st0{fill-rule:evenodd;clip-rule:evenodd;}
</style><path class="st0" d="M19.1997318,69.6442871V47.054409l26.5351353,10.9224014  c1.3651657,0.5550537,2.8150177,0.5460396,4.178009-0.0100708l27.2055702-11.1954651v22.8721733  c-0.0042419,0.3604813-0.0763397,0.727356-0.2268982,1.0798874c-0.0132523,0.034462-5.2086334,12.3904419-28.4704399,14.1836472  c-0.152153,0.0143127-0.3101387,0.0169678-0.4675865,0.0042419C26.8008728,83.300148,20.5593052,72.9592819,19.575367,71.0342941  c-0.2385616-0.4092636-0.3748074-0.8837433-0.3748074-1.3894577L19.1997318,69.6442871z M4.2045031,32.8042526l42.567234-17.5168285  c0.6981888-0.2862787,1.4456444-0.2650661,2.0935478,0L91.43116,32.8042526  c1.7139587,0.7050858,2.2435226,2.8653679,1.0952682,4.2840004v26.3777084l4.5548935,7.2920113  c1.1504135,1.8496628-0.2136459,4.2225189-2.3432617,4.2161407l-9.9528503,0.006897  c-2.266861,0-3.5322723-2.5658493-2.2535553-4.3657074l4.4643707-7.1462479V39.7269478l-38.1320457,15.691452  c-0.6981888,0.2862778-1.4456444,0.2650642-2.0935478,0L4.2031975,37.9029274c-2.2949529-0.9420586-2.2467737-4.175972,0-5.0988388  L4.2045031,32.8042526z"/><text x="0" y="115" fill="#000000" font-size="5px" font-weight="bold" font-family="'Helvetica Neue', Helvetica, Arial-Unicode, Arial, Sans-serif">Created by asderaallin</text><text x="0" y="120" fill="#000000" font-size="5px" font-weight="bold" font-family="'Helvetica Neue', Helvetica, Arial-Unicode, Arial, Sans-serif">from the Noun Project</text></svg>