<svg xmlns="http://www.w3.org/2000/svg" data-name="Layer 1" viewBox="0 0 100 125" x="0px" y="0px"><title>Language</title><path d="M81.875,37.813H61.25V25.625a9.386,9.386,0,0,0-9.375-9.375H18.125A9.386,9.386,0,0,0,8.75,25.625v22.5A9.386,9.386,0,0,0,18.125,57.5v3.918a3.727,3.727,0,0,0,2.309,3.454,3.745,3.745,0,0,0,4.1-.815,1.714,1.714,0,0,0,.184-.214L29.385,57.5H38.75V69.688a9.386,9.386,0,0,0,9.375,9.375H68.911l6.563,6.562a3.75,3.75,0,0,0,6.4-2.651V79.063a9.386,9.386,0,0,0,9.375-9.375v-22.5A9.385,9.385,0,0,0,81.875,37.813ZM28.438,53.75a1.874,1.874,0,0,0-1.51.764l-5.053,6.862V55.625A1.875,1.875,0,0,0,20,53.75H18.125A5.631,5.631,0,0,1,12.5,48.125v-22.5A5.631,5.631,0,0,1,18.125,20h33.75A5.631,5.631,0,0,1,57.5,25.625V37.813H48.125a9.288,9.288,0,0,0-5.534,1.847L36.707,26.724a1.875,1.875,0,0,0-3.414,0L23.918,47.349a1.876,1.876,0,0,0,.932,2.483,1.847,1.847,0,0,0,.774.168,1.875,1.875,0,0,0,1.708-1.1l2.909-6.4h9.522l.133.291a9.261,9.261,0,0,0-1.146,4.4V53.75Zm9.62-15H31.946L35,32.03ZM87.5,69.688a5.632,5.632,0,0,1-5.625,5.625H80a1.874,1.874,0,0,0-1.875,1.875v5.786l-7.112-7.112a1.871,1.871,0,0,0-1.325-.549H48.125A5.632,5.632,0,0,1,42.5,69.688v-22.5a5.631,5.631,0,0,1,5.625-5.625h33.75A5.631,5.631,0,0,1,87.5,47.188Z"/><path d="M74.375,51.875h-7.5v-3.75a1.875,1.875,0,0,0-3.75,0v3.75h-7.5a1.875,1.875,0,0,0,0,3.75H69.538a13.054,13.054,0,0,1-4.549,8.153,13.076,13.076,0,0,1-3.418-4.41,1.874,1.874,0,1,0-3.387,1.607A16.654,16.654,0,0,0,61.7,65.8a13.365,13.365,0,0,1-5.271,1.076,1.818,1.818,0,0,0-1.808,1.875,1.933,1.933,0,0,0,1.942,1.875,16.744,16.744,0,0,0,8.474-2.306,17.111,17.111,0,0,0,8.534,2.306,1.818,1.818,0,0,0,1.808-1.875,1.933,1.933,0,0,0-1.942-1.875,13.024,13.024,0,0,1-5.1-1.061,16.825,16.825,0,0,0,4.989-10.189h1.048a1.875,1.875,0,0,0,0-3.75Z"/><text x="0" y="115" fill="#000000" font-size="5px" font-weight="bold" font-family="'Helvetica Neue', Helvetica, Arial-Unicode, Arial, Sans-serif">Created by Hilmy Abiyyu Asad</text><text x="0" y="120" fill="#000000" font-size="5px" font-weight="bold" font-family="'Helvetica Neue', Helvetica, Arial-Unicode, Arial, Sans-serif">from the Noun Project</text></svg>