<svg xmlns="http://www.w3.org/2000/svg" xmlns:xlink="http://www.w3.org/1999/xlink" xml:space="preserve" version="1.1" style="shape-rendering:geometricPrecision;text-rendering:geometricPrecision;image-rendering:optimizeQuality;" viewBox="0 0 315.64 386.9375" x="0px" y="0px" fill-rule="evenodd" clip-rule="evenodd"><defs><style type="text/css">
   
    .fil0 {fill:black}
   
  </style></defs><g><path class="fil0" d="M82.41 0.09c-0.93,0.24 -2.03,1.29 -2.32,2.17 -0.51,1.51 0.1,3.31 1.8,5.45 0.47,0.58 0.81,1.12 0.78,1.17 -0.05,0.05 -0.85,-0.29 -1.75,-0.76 -5.8,-2.89 -16.87,-5.62 -30.05,-7.35 -5.5,-0.73 -6.96,-0.41 -8.01,1.66 -0.51,1.04 -0.56,1.29 -0.32,2.43 0.15,0.71 0.32,1.44 0.42,1.66 0.12,0.36 -0.17,0.34 -2.61,-0.17 -7.11,-1.49 -8.96,-1.66 -18.09,-1.68 -9.06,0 -10.86,0.14 -15.41,1.21 -1.39,0.35 -3,0.61 -3.58,0.61 -0.88,0 -1.27,0.17 -2.17,0.9 -0.58,0.52 -1.1,1.05 -1.1,1.22 -0.02,0.27 1.2,0.8 1.85,0.8 0.42,0 4.73,2.56 6.6,3.95 1.9,1.39 6.21,5.75 7.99,8.11 1.95,2.56 4.09,5.79 5.75,8.64 1.24,2.1 5.79,10.45 5.79,10.6 0,0.04 -0.68,0 -1.53,-0.05 -1.46,-0.13 -1.58,-0.1 -2.44,0.63 -1.7,1.51 -1.75,2.9 -0.31,9.47 1.31,6.02 2.48,10.62 4.09,16.22 0.78,2.78 1.39,5.11 1.34,5.16 -0.05,0.05 -0.86,-0.24 -1.78,-0.68 -2.17,-1.05 -3.87,-1.1 -4.85,-0.2 -1.8,1.69 -1.85,3.44 -0.34,11.81 1.32,7.33 4.31,22.09 5.04,24.77l0.71 2.58 -1.49 -1.22c-1.92,-1.63 -4.23,-2.7 -5.99,-2.8 -1.58,-0.1 -2.31,0.22 -3.11,1.39 -1,1.49 -0.71,3.19 1.85,10.86 1.63,4.89 6.4,17.53 7.79,20.6 0.05,0.1 -0.83,0.12 -1.95,0.05 -2.24,-0.15 -2.85,0.05 -3.7,1.19 -0.8,1.07 -0.63,2.71 0.66,6.26 3.24,9.11 8.86,20.38 12.76,25.59l1.19 1.59 -2.56 0.29c-3.16,0.34 -4.7,0.83 -5.74,1.9 -1.56,1.53 -1.34,3.31 0.73,6.43 1.73,2.58 6.62,9.13 8.79,11.68 4.33,5.17 11.71,12.96 16.6,17.58l2.78 2.59 -2.02 0.65c-2.46,0.78 -3.29,1.2 -4.19,2.05 -2.29,2.12 -1.8,4.36 1.68,7.77 7.53,7.33 20.5,16.87 27.96,20.55 0.87,0.44 1.6,0.85 1.6,0.92 0,0.08 -0.87,0.54 -1.94,1.05 -3.54,1.66 -4.75,3.51 -3.71,5.65 0.64,1.31 2,2.26 5.39,3.77 9.91,4.44 24.37,8.67 33.65,9.89 1.65,0.2 3.04,0.41 3.07,0.44 0.04,0.02 -0.56,0.27 -1.34,0.49 -4.14,1.31 -6.16,3.31 -5.65,5.62 0.44,1.97 2.26,2.92 7.18,3.78 10.11,1.72 22.52,2.11 31.41,0.97 6.41,-0.83 15.42,-2.83 20.04,-4.48 0.56,-0.2 1.03,-0.29 1.03,-0.2 0,0.1 -0.74,1.83 -1.61,3.83 -1.24,2.82 -1.66,3.99 -1.76,5.16 -0.09,1.44 -0.07,1.53 0.66,2.29 0.73,0.73 0.83,0.75 2.41,0.66 4.02,-0.25 18.85,-7.43 28.88,-14.01 10.28,-6.72 19.19,-15 23.74,-22.06 0.59,-0.9 1.1,-1.63 1.12,-1.63 0.13,0 6.75,11.79 9.23,16.39 2.41,4.48 6.31,12.83 8.28,17.73 0.61,1.53 2.24,5.91 3.65,9.76 3.02,8.3 3.97,10.47 5.41,12.66 1.39,2.07 2.68,3.19 4.85,4.24 4.16,2 9.54,1.44 11.27,-1.19 1.39,-2.1 0.73,-5.43 -2.68,-13.88 -2.09,-5.24 -3.24,-7.58 -8.4,-17.34 -2.53,-4.82 -5.65,-10.74 -6.89,-13.15 -1.9,-3.7 -6.16,-11.54 -9.84,-18.17l-0.87 -1.6 0.99 -0.17c0.56,-0.1 2.51,-0.66 4.34,-1.27 15.34,-5.14 30.51,-14.97 43.9,-28.51 9.45,-9.52 16.1,-18.87 21.99,-30.88 5.38,-10.96 7.26,-17.09 5.82,-19.04 -0.66,-0.9 -1.95,-1.54 -3.14,-1.54 -1.07,0 -4.99,0.86 -8.09,1.78 -1.12,0.32 -2.02,0.49 -2.02,0.37 0,-0.12 0.61,-2.17 1.37,-4.53 3.7,-11.79 5.26,-22.82 4.87,-34.63 -0.25,-7.01 -0.88,-9.79 -2.56,-10.88 -0.83,-0.54 -2.51,-0.49 -3.48,0.12 -0.85,0.53 -3.63,3.34 -5.7,5.75l-1.22 1.46 -0.68 -5.58c-1.24,-10.3 -2.63,-17.58 -4.89,-25.49 -2.39,-8.28 -3.95,-10.47 -6.97,-9.82 -1.21,0.27 -2.99,2.19 -3.63,4l-0.56 1.51 -1.16 -3.49c-2.56,-7.76 -7.67,-17.72 -12.06,-23.47 -1.53,-2.02 -2.55,-2.68 -3.82,-2.43 -1.63,0.31 -2.31,1.68 -2.75,5.43 -0.08,0.85 -0.25,1.53 -0.34,1.53 -0.08,0 -2.17,-1.95 -4.65,-4.34 -5.34,-5.13 -8.38,-7.91 -12.16,-11.03 -4.99,-4.14 -7.2,-5.6 -9.05,-5.94 -2.49,-0.46 -5.12,1.95 -5.48,5.02 -0.08,0.66 -0.22,1.19 -0.32,1.19 -0.07,0 -0.75,-0.73 -1.48,-1.65 -1.78,-2.22 -9.89,-10.33 -13.49,-13.47 -3.92,-3.41 -9.79,-8.08 -10.84,-8.62 -1.68,-0.88 -3.51,-0.36 -4.31,1.19 -0.22,0.42 -0.51,1.61 -0.66,2.63l-0.27 1.88 -3.55 -2.85c-6.92,-5.53 -14.29,-10.28 -22.01,-14.17 -4.78,-2.41 -6.53,-3.05 -8.4,-3.05 -1.54,0 -2.66,0.64 -3.36,1.9 -0.69,1.27 -0.56,5.41 0.24,7.67l0.63 1.78 -0.63 -0.41c-5.41,-3.56 -19.38,-9.57 -34.99,-15.1 -4.75,-1.68 -5.55,-1.9 -7.11,-1.92 -1.61,0 -1.8,0.05 -2.51,0.73 -0.93,0.9 -1.29,2.21 -1.07,3.94l0.17 1.37 -2.05 -1.15c-6.55,-3.68 -13.76,-6.33 -21.72,-8.06 -2.92,-0.63 -5.99,-0.92 -6.86,-0.68l0 0zm120.65 258.06c0,1 0.46,4.02 0.63,4.31 0.1,0.15 0.25,0.15 0.37,0.03 0.24,-0.25 -0.44,-4.46 -0.78,-4.82 -0.12,-0.13 -0.22,0.05 -0.22,0.48l0 0zm2.1 -2.55c-0.25,0.68 0.19,4.45 0.53,4.57 0.27,0.08 0.29,-0.34 0.15,-2.04 -0.17,-2.27 -0.44,-3.21 -0.68,-2.53zm1.85 0.09c0.14,2 0.43,2.9 0.82,2.51 0.25,-0.24 -0.39,-4.28 -0.7,-4.48 -0.17,-0.1 -0.2,0.54 -0.12,1.97l0 0zm1.8 -3.48c-0.29,0.66 -0.05,3.7 0.29,3.83 0.19,0.04 0.29,-0.25 0.27,-1.1 0,-1.63 -0.34,-3.21 -0.56,-2.73zm2.46 -1.56c-0.37,0.37 -0.05,3.1 0.34,2.85 0.12,-0.07 0.22,-0.63 0.22,-1.26 0,-1.17 -0.27,-1.9 -0.56,-1.59zm2.16 -2.19c-0.21,0.25 -0.17,2.27 0.08,2.27 0.24,0 0.51,-0.83 0.51,-1.63 0,-0.56 -0.32,-0.91 -0.59,-0.64l0 0zm1.66 -2.51c-0.19,0.54 0.1,1.66 0.39,1.49 0.32,-0.2 0.32,-1.51 0,-1.71 -0.15,-0.07 -0.32,0.03 -0.39,0.22zm2.19 -2.43c-0.24,0.66 0.05,1.05 0.34,0.46 0.2,-0.34 0.22,-0.58 0.05,-0.68 -0.14,-0.07 -0.32,0.02 -0.39,0.22l0 0zm1.12 -1.9c0,0.75 0.56,0.68 0.68,-0.1 0.05,-0.36 -0.04,-0.53 -0.29,-0.53 -0.27,0 -0.39,0.22 -0.39,0.63l0 0zm-85.1 -131.66c-0.22,0.36 0.83,0.8 1.48,0.66 0.81,-0.22 0.73,-0.54 -0.17,-0.74 -1.02,-0.19 -1.14,-0.19 -1.31,0.08zm37.45 141.42c-1.1,1.32 -1.93,2.49 -1.85,2.61 0.17,0.24 1.46,-1.12 3.38,-3.58 1.88,-2.36 0.59,-1.56 -1.53,0.97zm-4.9 -1.55c-2.09,2.65 -3.7,4.91 -3.7,5.28 0,0.71 0.76,-0.12 3,-3.24 2.63,-3.63 3.11,-5.06 0.7,-2.04l0 0zm-14.07 -0.39c-0.93,1.04 -3.24,3.5 -5.14,5.48 -3.24,3.31 -3.85,4.09 -3.26,4.09 0.29,0 3.63,-2.85 5.38,-4.63 2.12,-2.12 5.5,-6.82 4.92,-6.82 -0.15,0 -1,0.85 -1.9,1.88zm-14.03 1.12c-5.06,5.89 -7.79,9.71 -7.33,10.17 0.32,0.32 3.71,-3.65 7.38,-8.66 2.75,-3.78 3.02,-4.19 2.73,-4.36 -0.12,-0.08 -1.36,1.21 -2.78,2.85zm6.85 -1c-0.98,1.24 -2.73,3.31 -3.88,4.58 -3.06,3.38 -4.62,5.6 -3.94,5.6 0.32,0 5.79,-5.94 7.16,-7.8 1.39,-1.87 2.87,-4.18 2.87,-4.48 0,-0.51 -0.66,0.13 -2.21,2.1zm-11.84 -1.71c-1.05,1.17 -6.13,7.97 -7.6,10.13 -2.21,3.29 -1.82,3.66 0.69,0.66 2.8,-3.38 7.81,-10.54 7.81,-11.2 0,-0.29 -0.44,-0.07 -0.9,0.41zm26.11 0.98c-0.81,1.09 -2.15,2.85 -2.98,3.89 -1.77,2.17 -4.33,6.02 -4.13,6.21 0.24,0.22 0.58,-0.12 3.01,-3.26 3.61,-4.63 5.82,-8.04 5.63,-8.64 -0.05,-0.13 -0.73,0.68 -1.53,1.8zm42.39 -1.8c-0.07,0.24 -0.05,1.24 0.1,2.24 0.12,0.99 0.24,1.9 0.24,1.99 0,0.39 0.46,0.17 0.61,-0.29 0.17,-0.56 -0.34,-4.09 -0.63,-4.26 -0.1,-0.07 -0.25,0.07 -0.32,0.32l0 0zm-77.73 4.26c-5.23,5.77 -9.83,11.37 -9.83,11.93 0,0.44 0.56,0.05 1.65,-1.12 5.58,-5.97 13.2,-15.15 13.2,-15.85 0,-0.44 -0.8,0.36 -5.02,5.04l0 0zm-3.45 -3.27c-3.34,3.02 -8.11,7.99 -9.74,10.18 -0.83,1.1 -1.51,2.05 -1.51,2.12 0,0.61 1.26,-0.49 5.26,-4.55 5.57,-5.6 9,-9.67 8.25,-9.67 -0.07,0 -1.1,0.88 -2.26,1.92l0 0zm61.41 -0.68c-2.19,2.78 -2.63,3.39 -2.44,3.56 0.32,0.31 4.04,-4.24 4.04,-4.9 0,-0.44 -0.53,0.03 -1.6,1.34l0 0zm5.21 -1.22c-0.93,1.22 -1.68,2.85 -1.44,3.02 0.29,0.17 2.29,-3.19 2.17,-3.58 -0.07,-0.17 -0.39,0.1 -0.73,0.56zm-79.48 1.25c-1.32,1.21 -3.39,3.09 -4.6,4.18 -2.2,1.95 -6.46,6.58 -6.46,6.99 0,0.49 0.59,0.08 3.68,-2.63 4.38,-3.84 10.2,-9.88 10.2,-10.59 0,-0.46 -0.51,-0.1 -2.82,2.05zm-12.93 1.31c-4,3.36 -6.65,6.02 -6.33,6.36 0.19,0.17 0.48,-0.05 2.99,-2.12 2.36,-1.97 6.63,-5.94 7.53,-7.01 1.36,-1.64 -0.13,-0.66 -4.19,2.77zm109.62 -2.7c0.2,1.63 0.34,2.07 0.64,2.07 0.29,0 0.26,-0.44 -0.05,-1.93 -0.39,-1.8 -0.81,-1.89 -0.59,-0.14l0 0zm-10.08 -3.22c-0.31,0.39 -1,2 -1,2.37 0,0.9 1.1,-0.59 1.56,-2.15 0.2,-0.58 -0.12,-0.73 -0.56,-0.22zm10.16 -6.13c-0.44,0.24 -0.61,0.95 -0.22,0.95 0.29,0 0.8,-0.68 0.7,-0.95 -0.05,-0.15 -0.22,-0.15 -0.48,0zm-3.92 -0.03c-0.22,0.34 -0.56,1.03 -0.78,1.51 -0.59,1.44 0.14,1.2 0.82,-0.26 0.64,-1.34 0.61,-2.22 -0.04,-1.25l0 0zm32.97 -8.06c-0.17,0.3 -0.17,0.54 -0.05,0.64 0.12,0.07 0.31,-0.1 0.39,-0.39 0.22,-0.68 -0.03,-0.88 -0.34,-0.25l0 0zm3.04 -1.65c-0.29,0.87 -0.39,2.65 -0.17,2.65 0.27,0 0.66,-2.6 0.41,-2.85 -0.07,-0.07 -0.19,0 -0.24,0.2zm2.29 0.41c0,1.12 0.1,1.73 0.24,1.63 0.32,-0.19 0.32,-2.55 0,-3.04 -0.17,-0.24 -0.24,0.17 -0.24,1.41zm-73.15 -1.14c-0.85,1.43 -1.07,2.16 -0.68,2.16 0.24,0 2,-2.92 2,-3.33 0,-0.68 -0.47,-0.24 -1.32,1.17l0 0zm76.75 -1.49c-0.22,0.51 -0.36,4.39 -0.14,4.39 0.07,0 0.22,-0.69 0.31,-1.54 0.17,-1.68 0.08,-3.43 -0.17,-2.85zm-91.99 2.05c-2,2.82 -3.58,5.82 -3.14,5.96 0.17,0.05 0.43,-0.09 0.58,-0.31 0.12,-0.25 1.05,-1.68 2.02,-3.24 1.88,-2.92 2.61,-4.36 2.29,-4.53 -0.1,-0.05 -0.88,0.9 -1.75,2.12l0 0zm10.69 -2.05c-0.22,0.34 -0.83,1.32 -1.39,2.19 -1.15,1.81 -1.58,2.85 -1.29,3.02 0.44,0.27 3.29,-4.65 3.14,-5.4 -0.07,-0.34 -0.17,-0.29 -0.46,0.19l0 0zm-6.7 2.12c-0.95,1.44 -1.92,3 -2.17,3.43 -0.41,0.83 -0.36,1.2 0.1,0.9 0.42,-0.24 2.53,-3.45 3.29,-4.94 1.22,-2.38 0.53,-2.04 -1.22,0.61zm90.63 -1.58c-0.07,0.7 -0.14,1.6 -0.14,2.02 0.02,1.27 0.41,0.15 0.58,-1.66 0.2,-1.92 -0.19,-2.24 -0.44,-0.36zm-73.9 0.17c-1.05,1.99 -1.17,2.46 -0.76,2.46 0.15,0 0.71,-0.95 1.22,-2.1 1.07,-2.31 1.07,-2.29 0.76,-2.29 -0.12,0 -0.66,0.88 -1.22,1.93zm5.14 -1.76c-1.07,1.56 -1.54,2.85 -0.83,2.42 0.24,-0.15 1.75,-2.71 1.75,-2.95 0,-0.34 -0.51,-0.05 -0.92,0.53zm73.05 0.49c-0.68,2.53 -0.8,3.44 -0.54,3.61 0.15,0.07 0.25,-0.05 0.25,-0.32 0,-0.39 0.73,-3.53 1.12,-4.75 0.07,-0.22 0.02,-0.41 -0.1,-0.41 -0.12,0 -0.46,0.85 -0.73,1.87l0 0zm-66.87 -1.17c-0.36,0.39 -0.63,0.9 -0.58,1.15 0.07,0.39 0.19,0.29 0.78,-0.44 0.85,-1.15 0.73,-1.68 -0.2,-0.71zm5.72 -1.58c-0.58,0.93 -0.63,1.12 -0.26,1.12 0.24,0 1.21,-1.41 1.21,-1.78 0,-0.44 -0.48,-0.09 -0.95,0.66zm-42.58 2.78c-2.88,4.53 -5.77,9.93 -5.46,10.13 0.27,0.17 0.85,-0.69 3.58,-5.21 2.78,-4.58 4.8,-8.45 4.53,-8.62 -0.12,-0.08 -1.31,1.58 -2.65,3.7l0 0zm106.97 -2.83c-0.1,0.85 -0.44,2.8 -0.76,4.34 -0.63,3.04 -0.68,3.65 -0.39,3.65 0.25,0 1.44,-6.04 1.61,-8.11 0.15,-1.88 -0.24,-1.78 -0.46,0.12zm-115.86 0.61c-4.31,5.55 -5.99,7.87 -8.43,11.71 -1.38,2.19 -2.43,4.05 -2.36,4.12 0.22,0.22 0.07,0.39 4.9,-6.14 4.04,-5.48 8.4,-11.76 8.4,-12.12 0,-0.54 -0.69,0.12 -2.51,2.43zm-45.46 -1.73c-0.88,0.76 -4.09,3.75 -7.16,6.65 -3.05,2.9 -6.21,5.84 -6.99,6.55 -1.41,1.29 -1.73,1.75 -1.12,1.75 0.51,0 5.75,-4.38 8.98,-7.52 4.05,-3.9 8.06,-8.23 7.94,-8.55 -0.02,-0.12 -0.78,0.37 -1.65,1.12zm15.56 0.73c-1.15,1.32 -2.78,3.29 -3.63,4.36 -3.27,4.07 -8.7,10.54 -10.55,12.61 -1.85,2.05 -2.26,2.85 -1.09,2.07 0.9,-0.58 4.8,-4.5 6.87,-6.89 3.21,-3.67 10.71,-13.85 10.56,-14.29 -0.05,-0.15 -1.02,0.8 -2.16,2.14l0 0zm85.25 -2.09c-0.22,0.39 -0.2,0.48 0.12,0.48 0.19,0 0.36,-0.04 0.36,-0.09 0,-0.05 0.08,-0.27 0.15,-0.49 0.22,-0.56 -0.32,-0.49 -0.63,0.1l0 0zm-63.95 1.29c-3.28,4.58 -10.83,16.43 -10.59,16.61 0.22,0.12 1.8,-1.81 4.24,-5.22 1.53,-2.14 7.5,-11.85 7.86,-12.78 0.34,-0.9 -0.34,-0.27 -1.51,1.39zm-25.95 -0.63c-0.61,0.65 -2.68,2.97 -4.58,5.18 -1.9,2.22 -5.85,6.7 -8.74,9.94 -2.9,3.26 -5.34,6.08 -5.46,6.26 -0.1,0.19 -0.07,0.41 0.07,0.48 0.15,0.1 2.1,-1.68 4.34,-3.94 2.94,-2.95 5.57,-5.94 9.45,-10.79 5.82,-7.28 6.57,-8.28 6.25,-8.28 -0.12,0 -0.7,0.51 -1.33,1.15l0 0zm39.98 0.97c-0.85,1.46 -3.39,5.67 -5.65,9.37 -2.24,3.71 -4.09,6.8 -4.09,6.87 0,0.76 2.58,-2.51 5.18,-6.57 1.56,-2.39 6.51,-11.64 6.51,-12.13 0,-0.54 -0.59,0.19 -1.95,2.46l0 0zm-22.82 -1.46c-0.8,0.92 -2.58,3.02 -3.97,4.7 -1.38,1.68 -3.31,3.92 -4.26,4.99 -0.95,1.07 -2.31,2.65 -3.04,3.53 -0.73,0.88 -2.19,2.53 -3.24,3.7 -1.05,1.19 -1.78,2.14 -1.61,2.14 0.85,0 4.95,-3.99 9.5,-9.25 1.7,-1.97 7.77,-9.98 8.23,-10.91 0.53,-1.02 -0.17,-0.53 -1.61,1.1l0 0zm-7.45 0.85c-1.12,1.39 -4.38,5.58 -7.23,9.33 -2.85,3.75 -5.87,7.62 -6.72,8.59 -1.49,1.71 -1.8,2.24 -1.34,2.24 0.61,0 6.28,-6.52 9.4,-10.83 1.05,-1.49 3.19,-4.43 4.75,-6.58 3.48,-4.79 3.77,-5.23 3.45,-5.23 -0.14,0 -1.19,1.12 -2.31,2.48l0 0zm144.89 -2.36c-0.13,0.53 -0.47,2.24 -0.78,3.77 -0.86,4.05 -1.08,5.63 -0.76,5.53 0.37,-0.12 1.88,-7.65 1.78,-9.06l-0.05 -1.22 -0.19 0.98 0 0zm-133.32 1.07c-5.48,7.5 -13.71,20.26 -13.18,20.45 0.39,0.13 0.83,-0.46 3.83,-4.72 1.92,-2.75 7.98,-12.2 10.74,-16.75 0.99,-1.63 0.04,-0.95 -1.39,1.02zm10.95 -1.51c-0.92,1.34 -4.82,7.6 -7.84,12.61 -1.7,2.8 -3.55,5.87 -4.11,6.77 -1.1,1.71 -1.17,2.56 -0.12,1.27 1.68,-2.09 5.31,-7.77 8.67,-13.64 2.07,-3.63 3.89,-6.81 4.06,-7.13 0.42,-0.78 -0.09,-0.68 -0.65,0.12l-0.01 0zm125.12 3.34c0,2.48 0.09,4.53 0.22,4.53 0.56,0 0.56,-8.55 0,-8.92 -0.13,-0.07 -0.22,1.9 -0.22,4.39zm3.58 -2.27c-0.42,4.9 -0.42,5.89 -0.05,5.53 0.46,-0.46 1.09,-10.91 0.66,-10.91 -0.1,0 -0.37,2.41 -0.61,5.38l0 0zm3.89 -6.23c-0.34,1.82 -0.51,10.74 -0.22,10.93 0.17,0.1 0.32,-0.22 0.39,-0.88 0.25,-1.97 0.37,-9.08 0.2,-10.05l-0.2 -0.98 -0.17 0.98zm3.36 -0.22c0.2,5.26 0.37,7.4 0.64,7.4 0.53,0 0.04,-10.44 -0.54,-11.05 -0.12,-0.15 -0.17,1.41 -0.1,3.65zm-166.09 -4.92c-0.24,0.19 -0.39,0.41 -0.32,0.51 0.2,0.17 1.44,-0.36 1.44,-0.66 0,-0.31 -0.59,-0.24 -1.12,0.15zm-5.14 -0.02c-0.97,0.29 -1.09,0.77 -0.12,0.53 0.66,-0.14 1.19,-0.53 1,-0.68 -0.05,-0.05 -0.46,0.02 -0.88,0.15zm8.35 -0.59c-0.09,0.12 -0.02,0.27 0.15,0.32 0.44,0.14 1.66,-0.08 1.66,-0.32 0,-0.29 -1.64,-0.29 -1.81,0zm-12.63 0.05c-1.12,0.73 -1.51,1.44 -0.81,1.44 0.37,0 2.39,-1.59 2.53,-1.98 0.17,-0.43 -0.63,-0.19 -1.72,0.54zm178.95 0.83c-0.1,1.19 -0.34,3.43 -0.54,4.94 -0.39,3.14 -0.44,5.89 -0.12,5.89 0.12,0 0.29,-0.73 0.39,-1.65 0.1,-0.9 0.31,-2.78 0.51,-4.17 0.37,-2.67 0.41,-5.57 0.12,-6.59 -0.12,-0.44 -0.24,0.04 -0.36,1.58l0 0zm-183.92 -1.61c-1.58,1.07 -2.44,1.9 -2.19,2.14 0.09,0.08 0.43,0 0.78,-0.17 0.87,-0.46 3.19,-2.6 3.02,-2.77 -0.08,-0.1 -0.81,0.27 -1.61,0.8zm161.61 -1.56c0,0.68 0.37,0.83 0.59,0.22 0.24,-0.61 0.17,-0.83 -0.22,-0.83 -0.22,0 -0.37,0.22 -0.37,0.61zm-166.7 -0.65c-0.78,0.53 -1.66,1.19 -1.9,1.46 -0.46,0.53 -0.46,0.53 0,0.53 0.51,0 3.51,-2.31 3.51,-2.68 0,-0.34 -0.03,-0.34 -1.61,0.69zm169.26 -0.91c-0.25,0.37 0.07,0.61 0.39,0.3 0.17,-0.17 0.17,-0.32 0.02,-0.42 -0.14,-0.07 -0.34,-0.02 -0.41,0.12zm23.01 1.56c0,1.22 -0.17,3.73 -0.37,5.6 -0.39,3.85 -0.46,5.97 -0.17,5.97 0.54,0 1.32,-12.96 0.81,-13.47 -0.2,-0.19 -0.27,0.34 -0.27,1.9l0 0zm-194.93 -1.95c-2.14,1.64 -3.38,2.93 -3.16,3.29 0.22,0.34 0.92,-0.1 2.87,-1.78 1.51,-1.29 2.49,-2.5 2.17,-2.7 -0.1,-0.05 -0.95,0.46 -1.88,1.19zm173.99 -1.43c0,0.36 0.53,1.07 0.75,0.95 0.27,-0.17 -0.17,-1.1 -0.51,-1.1 -0.14,0 -0.24,0.07 -0.24,0.15zm23.74 4.89c-0.1,3.29 -0.07,5.55 0.07,5.92l0.25 0.61 0.12 -0.61c0.44,-1.95 0.36,-11.2 -0.08,-11.2 -0.09,0 -0.26,2.38 -0.36,5.28zm-64.04 -4.79c-0.25,0.26 -0.37,0.56 -0.29,0.65 0.19,0.17 1.14,-0.61 1.14,-0.95 0,-0.34 -0.39,-0.22 -0.85,0.3l0 0zm43.46 -1.83c0,0.78 0.3,1.58 0.54,1.58 0.15,0 0.19,-0.31 0.1,-0.78 -0.2,-0.95 -0.64,-1.51 -0.64,-0.8zm23.65 -0.85c-0.17,0.46 -0.22,10.98 -0.05,10.59 0.29,-0.73 0.51,-7.31 0.29,-9.13 -0.12,-0.88 -0.22,-1.54 -0.24,-1.46l0 0zm-63.7 0.24c-0.22,0.37 0.12,2.68 0.39,2.68 0.12,0 0.22,-0.66 0.22,-1.46 0,-1.37 -0.25,-1.83 -0.61,-1.22zm-140.8 1.66c-3.67,2.77 -6.23,5.13 -5.55,5.16 0.71,0 3.31,-1.8 5.97,-4.19 2.92,-2.63 3.38,-3.12 2.85,-3.12 -0.22,0 -1.68,0.98 -3.27,2.15l0 0zm-5.69 -0.3c-4.07,2.63 -5.41,3.68 -5.19,4.02 0.17,0.29 2.19,-0.51 3.75,-1.53 0.75,-0.47 2.36,-1.68 3.6,-2.73 2.05,-1.7 2.61,-2.34 2.02,-2.34 -0.09,0 -1.99,1.17 -4.18,2.58l0 0zm188.39 -2.87c-0.14,0.27 0.49,2.17 0.86,2.58 0.41,0.46 0.43,-0.05 0.07,-1.22 -0.46,-1.34 -0.71,-1.7 -0.93,-1.36l0 0zm24.35 -0.66c-0.19,1.03 -0.14,9.43 0.08,10.21 0.31,1.14 0.48,-0.08 0.65,-4.95 0.18,-4.58 0.08,-6.01 -0.36,-6.01 -0.12,0 -0.27,0.34 -0.37,0.75l0 0zm-23.27 -0.31c0,0.7 0.9,2.72 1.21,2.72 0.27,0 0.15,-0.65 -0.36,-2.16 -0.32,-0.95 -0.85,-1.29 -0.85,-0.56zm-39.57 -0.61c-0.3,0.73 0.48,3.94 0.9,3.67 0.31,-0.19 0.07,-2.26 -0.39,-3.36 -0.29,-0.63 -0.37,-0.68 -0.51,-0.31l0 0zm-84.11 0.07c-0.29,0.2 -0.46,0.46 -0.39,0.59 0.15,0.24 1.34,-0.22 1.34,-0.52 0,-0.39 -0.44,-0.43 -0.95,-0.07l0 0zm-65.31 0.1c-1.12,0.68 -3.09,1.99 -4.36,2.92 -1.26,0.95 -3.09,2.22 -4.06,2.85 -1.61,1.07 -2.1,1.53 -1.59,1.53 0.91,0 12.47,-7.72 12.47,-8.32 0,-0.37 -0.39,-0.2 -2.46,1.02l0 0zm92.17 -1.07c-0.44,0.34 -0.39,0.36 0.7,0.26 0.66,-0.07 1.32,-0.24 1.47,-0.39 0.43,-0.43 -1.61,-0.34 -2.17,0.13l0 0zm-10.79 -0.25c-0.83,0.59 -0.29,0.98 0.68,0.49 0.42,-0.22 0.76,-0.51 0.76,-0.63 0,-0.37 -0.81,-0.3 -1.44,0.14l0 0zm-22.81 0.08c-1.59,0.85 -3.51,2.24 -3.51,2.5 0,0.1 0.12,0.2 0.29,0.2 0.29,0 5.07,-3.12 5.07,-3.31 0,-0.27 -0.71,-0.03 -1.85,0.61l0 0zm15.36 -0.81c-0.9,0.47 -1.49,1 -1.29,1.22 0.34,0.34 2.39,-0.85 2.39,-1.39 0,-0.31 -0.25,-0.27 -1.1,0.17zm141.28 -0.46c-0.15,0.22 0.17,7.16 0.46,9.62 0.22,2.14 0.59,1.68 0.59,-0.73 -0.03,-5.04 -0.56,-9.67 -1.05,-8.89l0 0zm-25.01 0.27c0,0.63 1.2,4.65 1.63,5.53 0.22,0.38 0.44,0.6 0.49,0.43 0.12,-0.34 -1.05,-5.26 -1.39,-5.94 -0.31,-0.58 -0.73,-0.61 -0.73,-0.02l0 0zm-38.3 -0.51c-0.22,0.36 1.07,3.8 1.34,3.53 0.22,-0.22 -0.34,-2.24 -0.88,-3.19 -0.17,-0.32 -0.39,-0.47 -0.46,-0.34zm-100.98 1.19c-2.56,1.49 -2.97,1.8 -2.39,1.8 0.42,0 4.43,-2.26 5.07,-2.82 0.8,-0.76 -0.42,-0.3 -2.68,1.02l0 0zm-52.23 -0.9c-0.93,0.51 -4.22,2.26 -7.31,3.89 -6.01,3.22 -8.33,4.63 -8.2,5.02 0.14,0.49 1.41,0.1 4.53,-1.41 3.72,-1.8 13.27,-7.74 13.29,-8.28 0,-0.34 -0.63,-0.12 -2.31,0.78l0 0zm193.14 -1.27c-0.14,0.25 0.74,3.83 1.27,5.24 0.27,0.73 0.85,0.95 0.68,0.24 -0.07,-0.22 -0.36,-1.41 -0.65,-2.65 -0.54,-2.24 -1,-3.29 -1.3,-2.83zm-36.93 -0.75c0,1.31 1.19,4.33 1.55,3.97 0.22,-0.22 -0.82,-3.97 -1.19,-4.36 -0.32,-0.32 -0.36,-0.27 -0.36,0.39zm38.47 -0.59c0.02,1.22 1.61,6.53 1.97,6.53 0.12,0 0.22,-0.05 0.22,-0.12 0,-0.25 -1.22,-5.09 -1.49,-5.92 -0.24,-0.75 -0.7,-1.07 -0.7,-0.49l0 0zm-201.14 2.71c-5.99,3.14 -8.91,4.82 -11.46,6.64 -1.2,0.88 -1.39,1.17 -0.95,1.44 0.7,0.44 19.23,-10.47 18.84,-11.1 -0.07,-0.13 -0.14,-0.22 -0.17,-0.22 -0.02,0 -2.85,1.46 -6.26,3.24l0 0zm52.31 -1.81c-1.05,1.08 -1.9,2.05 -1.9,2.2 0,0.56 0.68,0.21 1.7,-0.91 3.02,-3.19 3.05,-3.21 2.56,-3.21 -0.27,0 -1.31,0.85 -2.36,1.92l0 0zm173.42 -0.65c0,2.68 1.05,10.32 1.49,10.76 0.46,0.51 -0.03,-7.62 -0.64,-10.52 -0.48,-2.36 -0.85,-2.46 -0.85,-0.24zm-23.01 -1.73c0.27,1.63 1.51,6.55 1.68,6.72 0.42,0.44 0.39,-0.42 -0.1,-2.97 -0.6,-3.27 -0.99,-4.56 -1.43,-4.7 -0.25,-0.07 -0.27,0.14 -0.15,0.95zm-156.6 0.97c-3.94,2.44 -5.77,3.78 -5.57,4.12 0.22,0.34 1.24,-0.15 3.87,-1.88 4.43,-2.87 6.38,-4.45 5.55,-4.45 -0.12,0 -1.85,0.99 -3.85,2.21zm-52.32 0.76c-5.73,2.8 -9.55,4.79 -11.5,6.06 -0.56,0.34 -0.75,0.95 -0.34,0.95 0.95,0 7.33,-3 11.84,-5.55 3.5,-1.97 7.18,-4.31 7.18,-4.56 0,-0.36 -1.24,0.17 -7.18,3.1l0 0zm210.89 -3.75c-0.05,0.09 0.1,1.38 0.34,2.85 0.95,5.4 2.03,7.25 1.22,2.07 -0.63,-4.07 -1.12,-5.63 -1.56,-4.92zm-39.01 0.7c0.22,1.17 1.76,4.46 2.1,4.46 0.12,0 0.24,-0.03 0.24,-0.07 0,-0.22 -1.46,-4.31 -1.68,-4.78 -0.46,-0.85 -0.83,-0.63 -0.66,0.39zm63.12 0.61c-0.36,6.06 -0.44,10.18 -0.19,10.18 0.14,0 0.31,-0.46 0.39,-1.05 0.04,-0.56 0.29,-2.68 0.53,-4.72 0.37,-3.36 0.34,-5.46 -0.05,-6.53 -0.34,-0.85 -0.53,-0.22 -0.68,2.12l0 0zm-234.88 -1.41c-7.48,3.53 -13.59,6.91 -13.83,7.67 -0.42,1.24 6.6,-2.07 15.24,-7.21 3.17,-1.87 3.97,-2.53 3.17,-2.51 -0.18,0.03 -2.25,0.93 -4.58,2.05zm50.28 -1.53c-2.26,1.16 -11.88,6.47 -12.42,6.89 -0.41,0.31 -0.44,0.36 -0.1,0.51 0.47,0.17 3.61,-1.02 5.75,-2.19 2.24,-1.25 8.6,-5.46 8.6,-5.73 0,-0.36 -0.22,-0.29 -1.83,0.52l0 0zm162.88 0c0.15,1.46 1.31,7.06 1.51,7.25 0.51,0.54 0.12,-2.99 -0.8,-7.11 -0.47,-2.09 -0.93,-2.19 -0.71,-0.14l0 0zm-38.79 -1.25c0.49,1.37 2.53,5.21 2.85,5.31 0.39,0.12 0.15,-0.53 -1.34,-3.68 -0.63,-1.29 -1.27,-2.36 -1.44,-2.36 -0.24,0 -0.26,0.17 -0.07,0.73l0 0zm-174.62 -0.75c-4.45,2 -10.27,4.97 -13.63,6.96 -4.02,2.39 -3.75,2.22 -3.56,2.54 0.22,0.34 1.85,-0.27 5.36,-2.05 4.07,-2.05 13.05,-7.09 13.93,-7.82 1.04,-0.82 0.29,-0.7 -2.1,0.37l0 0zm215.75 -0.61c0,0.78 0.95,5.84 1.46,7.74 0.24,0.88 0.73,1.29 0.73,0.61 0,-0.49 -1.22,-7.25 -1.49,-8.28 -0.29,-1.12 -0.7,-1.17 -0.7,-0.07zm-225.24 0.58c-7.58,3.27 -9.79,4.48 -9.21,5.04 0.29,0.3 4,-1.21 8.48,-3.43 4.7,-2.36 6.94,-3.72 6.08,-3.72 -0.19,-0.03 -2.6,0.95 -5.35,2.11zm186.03 -4.7c0,0.3 1.85,4.53 2.68,6.21 2.15,4.22 2.29,3.36 0.25,-1.34 -1.54,-3.53 -2.34,-4.99 -2.71,-4.99 -0.12,0 -0.22,0.05 -0.22,0.12l0 0zm-199.43 0.66c-1.94,1.24 -2.7,1.95 -2.38,2.27 0.34,0.34 4.38,-2.29 4.89,-3.17 0.37,-0.68 -0.44,-0.39 -2.51,0.9zm240.34 -1.22c0,1.78 1.88,11.16 2.24,11.16 0.29,0 0.25,-0.44 -0.29,-4.36 -0.71,-4.92 -1.27,-7.33 -1.73,-7.33 -0.12,0 -0.22,0.24 -0.22,0.53l0 0zm2.15 -1.6c-0.25,0.24 1.75,10.64 2.11,11 0.42,0.44 0.42,-0.63 -0.07,-3.92 -0.68,-4.67 -1.53,-7.62 -2.04,-7.08l0 0zm-40.45 -2.17c-0.27,0.44 4.77,12 5.23,12 0.1,0 0.2,-0.09 0.2,-0.21 0,-0.81 -4.87,-11.96 -5.24,-11.96 -0.04,0 -0.14,0.07 -0.19,0.17l0 0zm-36.58 -0.66c0.1,0.15 0.27,0.2 0.39,0.12 0.35,-0.21 0.27,-0.36 -0.17,-0.36 -0.19,0 -0.29,0.12 -0.22,0.24zm79.41 -1.02c-0.24,0.41 1.05,8.38 1.8,11.06 0.3,0.99 0.71,1.26 0.59,0.36 -0.05,-0.29 -0.32,-2.19 -0.59,-4.19 -0.8,-5.6 -1.36,-7.91 -1.8,-7.23zm-116.95 0.05c-0.71,0.41 -1.29,0.9 -1.29,1.12 0,0.29 0.09,0.32 0.56,0.07 1.09,-0.58 2.36,-1.51 2.36,-1.7 0,-0.34 -0.29,-0.27 -1.63,0.51zm9.18 -0.73c-0.2,0.12 -0.3,0.27 -0.25,0.34 0.2,0.17 1.46,-0.15 1.46,-0.37 0,-0.29 -0.75,-0.26 -1.21,0.03zm-13.93 1c-1.78,1.17 -2.27,1.68 -1.63,1.68 0.29,0 3.8,-2.39 4.01,-2.71 0.32,-0.53 -0.68,-0.09 -2.38,1.03l0 0zm81.28 -1.76c-0.27,0.39 6.26,13.66 6.72,13.66 0.32,0 0.24,-0.34 -0.44,-1.85 -0.36,-0.8 -1.34,-2.99 -2.16,-4.92 -1.56,-3.53 -3.46,-7.11 -3.8,-7.11 -0.1,0 -0.25,0.1 -0.32,0.22l0 0zm-71.44 0.66c-1.22,0.88 -1.56,1.32 -1,1.32 0.36,0 2.65,-1.68 2.65,-1.98 0,-0.39 -0.36,-0.24 -1.65,0.66zm-12.28 -0.19c-0.44,0.36 -1.51,1.19 -2.38,1.8 -1.71,1.19 -3.31,2.99 -2.93,3.24 0.15,0.07 0.93,-0.44 1.78,-1.2 0.83,-0.73 2.1,-1.8 2.83,-2.38 1.36,-1.1 2.24,-2.15 1.77,-2.15 -0.14,0 -0.63,0.32 -1.07,0.69l0 0zm-7.18 1.94c-2.53,2.44 -3.14,3.22 -2.51,3.22 0.34,0 5.6,-5.24 5.6,-5.58 0,-0.14 -0.07,-0.27 -0.17,-0.27 -0.12,0 -1.43,1.2 -2.92,2.63l0 0zm54.72 -4.09c0,0.13 0.12,0.25 0.24,0.25 0.14,0 0.24,-0.12 0.24,-0.25 0,-0.14 -0.1,-0.24 -0.24,-0.24 -0.12,0 -0.24,0.1 -0.24,0.24zm-124.19 0.76c-1.54,0.66 -5.38,2.24 -8.52,3.5 -7.43,2.98 -9.5,3.92 -9.5,4.39 0,0.19 0.19,0.36 0.44,0.36 0.9,0 7.74,-2.48 11.08,-4.01 3.38,-1.56 9.54,-4.78 10.03,-5.26 0.54,-0.54 -0.9,-0.13 -3.53,1.02l0 0zm66.35 -0.1c-0.8,0.73 -2.07,1.75 -2.8,2.27 -1.41,0.97 -3.67,3.16 -3.26,3.16 0.12,0 0.78,-0.46 1.44,-1.05 0.68,-0.58 1.65,-1.31 2.19,-1.63 1.07,-0.63 3.07,-2.43 3.8,-3.48 0.78,-1.05 0.22,-0.75 -1.37,0.73zm136.63 -1.44c-0.14,0.25 1.03,6.24 1.95,9.91 0.59,2.34 1.07,3.44 1.07,2.44 0,-0.83 -1.24,-7.48 -1.85,-9.84 -0.58,-2.29 -0.87,-2.97 -1.17,-2.51l0 0zm-40.54 0.15c-0.22,0.27 0,0.8 1.22,2.73 2.63,4.16 6.52,9.35 7.06,9.35 0.41,0 0.22,-0.61 -0.76,-2.29 -1.38,-2.36 -5.4,-8.04 -7.06,-9.96 -0.1,-0.1 -0.29,-0.02 -0.46,0.17zm2.02 -2.22c-0.15,0.42 0.76,1.78 4.31,6.51 3.12,4.16 4.85,5.99 4.85,5.11 0,-0.46 -4.39,-6.75 -6.29,-9.01 -2.38,-2.87 -2.67,-3.12 -2.87,-2.61zm-168.6 0.93c-5.99,2.51 -9.25,3.77 -12.57,4.94 -5.26,1.83 -7.64,3.07 -5.89,3.07 0.93,0 8.57,-2.39 10.81,-3.36 3.27,-1.46 11.11,-5.31 11.67,-5.75l0.48 -0.36 -0.48 0c-0.27,0 -2.07,0.66 -4.02,1.46l0 0zm64.77 -0.1c-1.27,1.15 -3.14,2.83 -4.19,3.75 -2.29,2.05 -4.16,4.24 -4.04,4.65 0.07,0.2 1.19,-0.73 2.78,-2.26 1.46,-1.41 3.89,-3.78 5.4,-5.21 2.51,-2.44 3.05,-3.07 2.56,-3.05 -0.12,0.03 -1.24,0.95 -2.51,2.12l0 0zm65.26 -1.99c0,0.24 0.27,0.36 0.85,0.36 0.88,0 1.15,-0.32 0.46,-0.58 -0.68,-0.27 -1.31,-0.15 -1.31,0.22zm-80.7 0.87c-0.78,0.66 -2.14,1.73 -3.04,2.34 -1.85,1.29 -5.14,4.41 -5.14,4.87 0,0.54 0.34,0.37 2.02,-1.12 0.88,-0.8 2.49,-2.09 3.51,-2.9 1.7,-1.31 4.45,-3.94 4.45,-4.28 0,-0.34 -0.46,-0.05 -1.8,1.09zm159.77 -1.31c-0.3,0.46 1.68,12 2.04,12 0.12,0 0.22,-0.29 0.22,-0.68 -0.02,-2.05 -1.53,-10.86 -1.95,-11.32 -0.1,-0.12 -0.24,-0.12 -0.31,0l0 0zm-166.44 0.95c-0.97,0.73 -2.97,1.99 -4.46,2.8 -2.58,1.38 -5.33,3.28 -5.33,3.67 0,0.39 0.56,0.17 1.93,-0.78 0.77,-0.51 2.41,-1.46 3.6,-2.07 2.82,-1.41 7.3,-5.01 6.23,-4.99 -0.09,0 -1,0.61 -1.97,1.37zm11.13 0.17c-1.54,1.39 -3.82,3.36 -5.11,4.38 -2.83,2.24 -4.17,3.65 -3.56,3.77 0.61,0.13 4.82,-3.33 8.52,-6.98 1.83,-1.83 3.34,-3.39 3.34,-3.49 0,-0.46 -0.59,-0.04 -3.19,2.32l0 0zm-16.88 -1.39c-0.95,0.73 -2.53,1.8 -3.53,2.39 -1.92,1.12 -5.13,3.67 -5.13,4.06 0,0.44 0.56,0.2 1.89,-0.85 0.76,-0.56 2.39,-1.66 3.58,-2.41 2.41,-1.51 5.12,-3.8 4.97,-4.24 -0.05,-0.14 -0.85,0.32 -1.78,1.05zm134.15 -1.36c-0.32,0.51 8.33,13.41 8.84,13.19 0.32,-0.14 0,-0.87 -1.61,-3.67 -2.34,-4.12 -3.46,-5.8 -5.16,-7.82 -1.61,-1.95 -1.8,-2.12 -2.07,-1.7l0 0zm-109.21 0.43c-2.24,1.71 -10.2,8.38 -10.93,9.16 -1.66,1.7 -0.52,1.12 2.58,-1.34 3.24,-2.61 8.03,-6.77 9.05,-7.86 0.78,-0.83 0.39,-0.81 -0.7,0.04l0 0zm-65.14 0.56c-3.6,1.68 -5.89,2.71 -12.17,5.46 -3.95,1.73 -10.26,4.89 -10.47,5.23 -0.44,0.71 0.82,0.25 8.76,-3.21 9.74,-4.26 19.36,-9.25 17.73,-9.2 -0.12,0 -1.83,0.77 -3.85,1.72l0 0zm34.75 -0.58c-1.22,0.9 -2.97,2.12 -3.87,2.7 -2.24,1.41 -5.09,4.19 -4.31,4.19 0.07,0 0.83,-0.54 1.65,-1.19 0.81,-0.64 2.44,-1.78 3.58,-2.53 2.17,-1.37 5.58,-4.39 5.31,-4.66 -0.1,-0.09 -1.14,0.59 -2.36,1.49l0 0zm100.57 -1.95c-0.59,0.25 0,0.56 1.07,0.56 1.24,0 1.43,-0.36 0.31,-0.58 -0.85,-0.17 -0.92,-0.17 -1.38,0.02zm79.09 -1.22c0.02,1 1.07,9.11 1.43,11.18 0.71,3.9 0.81,4.24 1.03,4.24 0.29,0 0.31,0.34 -0.39,-5.63 -0.88,-7.3 -1.37,-9.96 -1.83,-9.96 -0.15,0 -0.24,0.08 -0.24,0.17l0 0zm-37.6 -0.22c-0.27,0.47 6.35,10.72 8.13,12.57 0.85,0.88 0.73,-0.07 -0.27,-1.97 -2.31,-4.41 -7.42,-11.3 -7.86,-10.6zm-146.76 0.69c-0.85,0.61 -2.46,1.65 -3.56,2.31 -2.16,1.31 -4.43,3.24 -4.16,3.51 0.24,0.24 7.01,-4.31 8.55,-5.75 1.6,-1.49 1.22,-1.53 -0.83,-0.07zm106.34 -2.12c-0.2,0.29 0.02,0.44 1.09,0.63 0.81,0.15 1.51,-0.14 1.03,-0.44 -0.47,-0.26 -2,-0.41 -2.12,-0.19zm42.46 -0.93c0,0.76 8.36,13.37 8.87,13.37 1.12,0 -3.92,-8.69 -7.04,-12.13 -1.34,-1.46 -1.83,-1.8 -1.83,-1.24zm-180.43 1.22c-8.4,3.77 -11.74,5.19 -17.22,7.28 -3.8,1.44 -5.91,2.39 -5.91,2.58 0,0.47 0.22,0.39 6.55,-1.68 4.65,-1.51 5.99,-2.09 12.71,-5.43 6.45,-3.24 8.23,-4.23 7.35,-4.23 -0.12,0 -1.68,0.68 -3.48,1.48zm218.18 -1.9c0,0.63 1.48,9.77 2.36,14.59 0.15,0.7 0.56,0.95 0.56,0.31 0,-0.36 -0.71,-5.79 -1.24,-9.37 -0.37,-2.53 -1.2,-6.06 -1.46,-6.24 -0.12,-0.07 -0.22,0.25 -0.22,0.71l0 0zm-80.6 -0.8c0,0.14 1.26,0.24 3.29,0.24 2.02,0 3.28,-0.1 3.28,-0.24 0,-0.15 -1.26,-0.25 -3.28,-0.25 -2.03,0 -3.29,0.1 -3.29,0.25zm-139.77 -0.17c-20.7,9.35 -25.08,11.42 -25.08,11.88 0,0.34 0.39,0.22 6.21,-2.26 5.6,-2.42 19.67,-9.21 19.94,-9.65 0.22,-0.36 -0.27,-0.34 -1.07,0.03l0 0zm184.45 -0.59c-0.07,0.12 0.44,0.93 1.17,1.78 0.71,0.85 1.92,2.36 2.73,3.36 3.24,4.07 5.77,6.87 6.01,6.62 0.32,-0.31 0.07,-0.73 -2.29,-4.16 -2.41,-3.46 -3.75,-5.02 -5.67,-6.57 -1.61,-1.32 -1.73,-1.37 -1.95,-1.03zm-43.22 -2.19c0,0.1 0.51,0.27 1.12,0.37 1.66,0.22 5.45,0.17 5.45,-0.08 0,-0.09 -0.99,-0.26 -2.24,-0.36 -3.02,-0.2 -4.33,-0.2 -4.33,0.07zm80.6 -0.19c0,1.36 2.87,13.61 3.19,13.61 0.12,0 0.22,-0.15 0.22,-0.32 0,-0.95 -1.58,-8.93 -2.19,-10.98 -0.73,-2.48 -1.22,-3.43 -1.22,-2.31zm-34.09 -0.34c0,0.09 0.27,0.43 0.58,0.77 0.32,0.37 1.93,2.56 3.56,4.9 3.04,4.36 3.77,5.31 4.02,5.06 0.36,-0.36 -2.44,-5.33 -4.29,-7.64 -1.63,-2 -3.87,-3.8 -3.87,-3.09zm-190.91 -0.98c-4.48,1.68 -29.95,13.17 -29.95,13.52 0,0.31 0.44,0.22 2.87,-0.69 4.8,-1.8 10.13,-4.14 18.68,-8.18 8.21,-3.87 10.06,-4.84 9.13,-4.79 -0.19,0 -0.53,0.07 -0.73,0.14l0 0zm72.2 -0.12c-0.68,0.36 -0.68,0.36 -0.51,0.66 0.19,0.29 1.83,-0.12 2.34,-0.61 0.29,-0.29 0.24,-0.34 -0.49,-0.34 -0.46,0 -1.07,0.14 -1.34,0.29zm-3.68 0.58c-1.65,0.98 -2.21,1.49 -1.97,1.71 0.22,0.24 1.12,-0.2 2.58,-1.24 1.15,-0.83 1.54,-1.34 1.05,-1.34 -0.12,0 -0.85,0.39 -1.66,0.87l0 0zm15.81 -0.19c-1.88,0.95 -2.29,1.44 -1,1.17 0.85,-0.17 3.36,-1.58 3.36,-1.9 0,-0.37 -0.59,-0.17 -2.36,0.73l0 0zm60.31 -0.95c0,0.36 1.03,0.51 3.78,0.51 2.89,0 4.04,-0.17 3.48,-0.51 -0.41,-0.29 -7.26,-0.27 -7.26,0zm49.07 -1.22c-0.15,0.27 0.95,2.19 3.36,5.87 1.51,2.26 4.14,5.84 4.33,5.84 0.08,0 0.27,-0.26 0.44,-0.58 0.29,-0.54 0.22,-0.75 -0.83,-2.36 -2.92,-4.53 -6.94,-9.35 -7.3,-8.77zm-48.68 -0.73c-0.07,0.12 0.27,0.27 0.78,0.37 1.37,0.22 7.11,0.17 7.11,-0.08 0,-0.43 -7.62,-0.75 -7.89,-0.29l0 0zm-83.57 0.25c-1.87,1.02 -3.5,2.26 -3.5,2.65 0,0.51 0.26,0.36 5.52,-3.04 0.98,-0.64 -0.78,-0.32 -2.02,0.39zm-80.82 1.09c-5.16,2.14 -12.29,5.63 -12.29,6.02 0,0.63 2.11,-0.2 9.93,-3.9 5.41,-2.56 7.84,-3.8 7.84,-4.04 0,-0.29 -0.95,0.05 -5.48,1.92l0 0zm77.92 -2c-1.36,0.49 -7.28,3.36 -7.71,3.78 -0.66,0.58 -0.3,0.83 0.73,0.46 2.04,-0.73 8.08,-3.97 8.08,-4.33 0,-0.25 -0.17,-0.22 -1.1,0.09l0 0zm168.31 -0.63c-0.29,0.49 2.41,14.22 2.8,14.22 0.1,0 0.2,-0.17 0.2,-0.36 0,-0.86 -1.29,-8.48 -1.85,-10.79 -0.61,-2.61 -0.9,-3.43 -1.15,-3.07l0 0zm-110.33 -0.41c-0.17,0.24 2.49,2.46 2.95,2.46 0.56,0 0.05,-0.71 -1.24,-1.68 -1.37,-1.08 -1.51,-1.12 -1.71,-0.78zm-68.69 1.31c-4.58,2.53 -4.75,2.66 -4.75,3.02 0,0.17 0.07,0.32 0.15,0.32 0.48,0 7.35,-3.9 8.74,-4.97l0.49 -0.36 -0.49 -0.03c-0.27,0 -2.12,0.93 -4.14,2.02l0 0zm146.76 -1.82c0.29,1.04 8.06,12.22 8.5,12.22 0.1,0 0.27,-0.22 0.34,-0.49 0.27,-0.8 -3.12,-5.94 -6.65,-10.08 -1.7,-2.02 -2.41,-2.56 -2.19,-1.65l0 0zm-49.58 -0.25c-0.27,0.12 -0.36,0.27 -0.24,0.34 0.44,0.3 9.28,0.51 9.45,0.25 0.07,-0.13 -0.1,-0.3 -0.42,-0.37 -0.97,-0.24 -8.32,-0.41 -8.79,-0.22zm-165.24 -0.41c-4.97,1.92 -10.69,4.38 -10.86,4.65 -0.54,0.85 0.8,0.44 6.72,-2.05 5.48,-2.33 8.28,-3.62 8.28,-3.87 0,-0.34 -0.15,-0.29 -4.14,1.27zm217.86 -2.05c-0.09,0.08 -0.02,0.39 0.15,0.66 0.19,0.29 1.41,2.36 2.73,4.65 1.31,2.27 2.82,4.82 3.36,5.67 0.95,1.51 0.97,1.54 1.34,1 0.31,-0.46 0.31,-0.61 -0.17,-1.65 -2.1,-4.34 -6.82,-10.94 -7.41,-10.33l0 0zm-50.33 -0.05c-0.19,0.05 -0.78,0.15 -1.26,0.25 -0.52,0.07 -0.93,0.27 -0.93,0.39 0,0.19 1.07,0.22 3.36,0.12 5.63,-0.27 7.6,-0.44 7.6,-0.66 0,-0.19 -7.89,-0.27 -8.77,-0.1zm-106.53 1.81c-7.16,3.62 -10.35,5.43 -10.35,5.79 0,0.17 0.05,0.32 0.12,0.32 0.42,0 14.05,-7.31 15.49,-8.31 0.31,-0.21 0.53,-0.46 0.46,-0.53 -0.07,-0.07 -2.65,1.14 -5.72,2.73zm-65.87 -1.34c-4.75,2.21 -6.57,3.24 -6.57,3.6 0,0.46 1.29,-0.05 5.48,-2.12 3.89,-1.92 5.77,-3.07 5.47,-3.36 -0.07,-0.07 -2.04,0.76 -4.38,1.88zm62.92 -1.73c-1.51,0.83 -8.86,5.28 -9.69,5.89 -0.24,0.2 -0.39,0.46 -0.34,0.61 0.05,0.19 0.8,-0.1 2.02,-0.73 2.51,-1.32 9.62,-5.99 9.62,-6.33 0,-0.32 0.1,-0.37 -1.61,0.56zm108.02 -1.56c0,0.34 1.53,0.49 6.33,0.66 3.12,0.12 4.43,0.07 4.26,-0.1 -0.46,-0.49 -10.59,-1.05 -10.59,-0.56zm-173.45 0.63c-1.46,0.59 -2.8,1.2 -2.99,1.37 -0.56,0.46 -0.39,0.78 0.34,0.58 1,-0.24 5.89,-2.6 5.89,-2.85 0,-0.34 -0.53,-0.19 -3.24,0.9l0 0zm226.63 -0.95c0.56,1.44 6.16,8.79 8.13,10.64 1.27,1.2 1.1,0.3 -0.34,-1.82 -3.19,-4.68 -8.52,-10.74 -7.79,-8.82zm-165.43 -0.29c-13.3,6.14 -13.4,6.19 -13.4,6.48 0,0.41 0.54,0.29 3.56,-0.76 4.19,-1.43 13.93,-6.79 12.34,-6.79 -0.12,0 -1.24,0.49 -2.5,1.07zm196.19 -1.14c-0.22,0.39 3.16,14.19 3.6,14.63 0.34,0.34 0.29,-0.27 -0.15,-2.26 -0.26,-1.22 -0.75,-3.49 -1.09,-5.07 -0.68,-3.26 -1.73,-7.01 -2.02,-7.3 -0.12,-0.13 -0.27,-0.13 -0.34,0l0 0zm-112.43 0.05c0,0.29 2.65,2.09 2.83,1.89 0.21,-0.21 -0.13,-0.63 -1.17,-1.41 -1,-0.7 -1.66,-0.9 -1.66,-0.48zm83.35 -0.61c0.15,0.34 1.15,1.73 4.21,5.84 0.83,1.1 1.78,2.46 2.17,3.02 1.41,2.12 1.54,0.66 0.15,-1.7 -1.17,-2.03 -2.88,-4.27 -4.63,-6.12 -1.24,-1.29 -2.19,-1.82 -1.9,-1.04l0 0zm-54.3 -0.17c-0.32,0.04 -0.56,0.22 -0.56,0.34 0,0.12 1.88,0.22 4.48,0.22 4.63,0 6.72,-0.17 6.72,-0.52 0,-0.21 -9.59,-0.24 -10.64,-0.04zm39.62 0.31c0,0.54 0.12,0.98 0.24,0.98 0.15,0 0.25,-0.44 0.25,-0.98 0,-0.53 -0.1,-0.97 -0.25,-0.97 -0.12,0 -0.24,0.44 -0.24,0.97zm-37.26 -2.26c-1.58,0.12 -2.24,0.29 -2.07,0.56 0.17,0.27 11.37,0.07 12.06,-0.17 1.02,-0.42 -6.12,-0.68 -9.99,-0.39l0 0zm-69.81 0c-0.85,0.17 -0.66,0.56 0.27,0.56 1.14,0 2.34,-0.27 2.34,-0.51 0,-0.22 -1.59,-0.25 -2.61,-0.05l0 0zm151.87 -0.56c0,0.44 2.27,8.69 2.95,10.78 0.49,1.47 0.95,2.2 0.95,1.49 0,-0.61 -1.68,-7.55 -2.22,-9.18 -0.53,-1.66 -1.36,-3.43 -1.56,-3.43 -0.07,0 -0.12,0.14 -0.12,0.34l0 0zm-113.91 -0.78c0.12,0.32 3.44,1.85 4.04,1.87 0.76,0.05 0.03,-0.63 -1.43,-1.36 -1.61,-0.83 -2.78,-1.05 -2.61,-0.51zm85.52 -0.17c0.37,0.95 7.62,11.1 8.18,11.44 0.59,0.37 0.15,-1.14 -0.83,-2.85 -1.97,-3.48 -6.33,-8.96 -7.13,-8.96 -0.22,0 -0.32,0.15 -0.22,0.37l0 0zm-126.35 -0.98c-0.13,0.05 -0.71,0.22 -1.27,0.37 -1.1,0.27 -1.41,0.73 -0.51,0.73 0.73,0 3.12,-0.78 3.12,-1.02 0,-0.2 -0.88,-0.25 -1.34,-0.08l0 0zm72.73 0c-1.12,0.17 -2.09,0.37 -2.17,0.47 -0.36,0.36 0.3,0.39 3,0.17 1.61,-0.15 4.46,-0.27 6.35,-0.27 1.9,0 3.51,-0.1 3.58,-0.22 0.34,-0.51 -7.62,-0.63 -10.76,-0.15l0 0zm37.45 -0.24c0,0.49 3.14,3.75 3.17,3.29 0,-0.44 -2.58,-3.65 -2.95,-3.65 -0.12,0 -0.22,0.17 -0.22,0.36zm-163.02 0.07c-0.54,0.2 -3.61,1.51 -6.8,2.93 -3.21,1.38 -7.38,3.11 -9.25,3.87 -3.63,1.39 -4.12,1.68 -3.51,1.9 0.47,0.17 5.19,-1.1 7.5,-2 1.85,-0.73 12.81,-6.19 13.52,-6.74l0.48 -0.37 -0.48 0c-0.27,0.02 -0.93,0.19 -1.46,0.41zm208.8 -1.21c0,0.46 3.65,10.86 3.9,11.1 0.43,0.44 0.26,-0.39 -0.71,-3.9 -1.02,-3.62 -2.43,-7.18 -2.9,-7.35 -0.17,-0.05 -0.29,0.02 -0.29,0.15l0 0zm-158.3 -0.1c-0.07,0.07 -0.8,0.22 -1.68,0.36 -0.85,0.15 -1.73,0.44 -1.92,0.66 -0.37,0.34 -0.27,0.37 1.07,0.22 1.58,-0.19 3.28,-0.78 3.28,-1.12 0,-0.22 -0.56,-0.32 -0.75,-0.12zm130.3 -0.32c0,0.25 1.56,2.53 3.7,5.43 1.46,1.97 3.89,4.53 4.31,4.53 0.92,0 -0.51,-2.43 -3.58,-6.09 -2.73,-3.26 -4.43,-4.74 -4.43,-3.87zm-53.28 -1.24c-2.51,0.27 -3.46,0.46 -3.46,0.73 0,0.29 -0.19,0.29 5.07,0 7.16,-0.41 8.32,-0.51 8.18,-0.75 -0.15,-0.27 -7.23,-0.25 -9.79,0.02zm-133.25 0.22c-0.87,0.36 -3.75,1.68 -6.4,2.92 -2.63,1.24 -6.04,2.78 -7.55,3.41 -4.43,1.92 -5.04,2.22 -5.04,2.46 0,0.44 0.93,0.24 4.19,-0.9 3.87,-1.36 16.75,-7.82 16.75,-8.4 0,-0.29 -0.17,-0.25 -1.95,0.51zm99.01 -1.24c-0.19,0.31 0.27,0.68 1.93,1.39 2.02,0.9 2.24,0.41 0.29,-0.71 -1.29,-0.73 -2.05,-0.95 -2.22,-0.68l0 0zm89.47 -0.78c0,0.1 0.87,1.53 1.92,3.24 2.6,4.11 4.89,6.67 5.62,6.23 0.42,-0.24 -0.19,-1.31 -2.46,-4.26 -2.7,-3.58 -4.28,-5.36 -4.74,-5.36 -0.2,0 -0.34,0.08 -0.34,0.15l0 0zm-17 0.12c0.12,0.34 3.58,1.78 3.77,1.58 0.39,-0.39 -1.43,-1.46 -2.94,-1.75 -0.73,-0.12 -0.93,-0.1 -0.83,0.17l0 0zm-119.93 1.14c-2.7,1.44 -4.31,2.56 -4.04,2.83 0.25,0.24 5.19,-2.48 6.26,-3.43 0.49,-0.44 0.8,-0.78 0.66,-0.78 -0.12,0.02 -1.44,0.63 -2.88,1.38l0 0zm163.88 -1.36c0.25,1.02 3.51,9.21 3.75,9.33 0.39,0.24 0.25,-0.44 -0.63,-3.07 -1.19,-3.56 -2.61,-6.79 -2.95,-6.79 -0.17,0 -0.24,0.21 -0.17,0.53l0 0zm-83.98 -0.85c-0.93,0.05 -1.66,0.19 -1.66,0.32 0,0.29 15.27,0.34 15.44,0.04 0.24,-0.41 -8.6,-0.63 -13.78,-0.36zm-81.89 -0.27c-0.54,0.34 -2.07,1.17 -3.41,1.85 -3.12,1.56 -4.51,2.44 -4.51,2.8 0,0.17 0.05,0.32 0.12,0.32 0.05,0 1.34,-0.61 2.85,-1.37 2.78,-1.38 6.29,-3.62 6.29,-4.01 0,-0.34 -0.3,-0.25 -1.34,0.41l0 0zm141.11 -1.09c0,0.26 1.77,2.89 2.85,4.18 0.29,0.37 1.19,1.22 1.94,1.88 1.32,1.14 2.03,1.48 2.03,1.02 0,-0.49 -1.64,-2.56 -3.85,-4.87 -2.24,-2.34 -2.97,-2.87 -2.97,-2.21zm-91.56 -0.49c0.85,0.66 4.36,2.29 4.53,2.09 0.41,-0.41 -3.51,-2.63 -4.6,-2.58l-0.54 0 0.61 0.49 0 0zm72.08 -0.42c0,0.81 5.04,3.95 5.52,3.46 0.22,-0.22 -0.24,-0.61 -2.75,-2.31 -2.31,-1.54 -2.77,-1.73 -2.77,-1.15l0 0zm-39.74 -0.41c-2.24,0.15 -1.63,0.56 0.8,0.56 1.22,0 4.6,0.12 7.57,0.27 2.95,0.14 5.41,0.19 5.51,0.12 0.31,-0.34 -0.39,-0.46 -4.51,-0.78 -4.16,-0.32 -6.38,-0.34 -9.37,-0.17l0 0zm-86.54 0.46c-0.52,0.37 -2.37,1.63 -4.12,2.8 -3.72,2.51 -4.92,3.49 -4.58,3.7 0.44,0.27 9.82,-6.3 9.82,-6.91 0,-0.32 -0.08,-0.29 -1.12,0.41l0 0zm172.06 -0.22c0.02,0.98 2.75,9.16 3.09,9.26 0.53,0.19 -2.29,-9.45 -2.88,-9.82 -0.12,-0.07 -0.21,0.17 -0.21,0.56l0 0zm-228.65 0.59c-5.26,1.97 -9.16,3.24 -14.3,4.6 -4.33,1.14 -6.06,1.75 -5.96,2.07 0.04,0.15 0.53,0.22 1.09,0.17 1.56,-0.1 8.67,-1.68 10.81,-2.39 4.02,-1.36 13.54,-5.72 13.08,-5.99 -0.12,-0.07 -2.24,0.61 -4.72,1.54l0 0zm204.78 -2.27c0,0.27 0.44,1.15 1,2 1.63,2.51 4.36,5.14 4.36,4.19 0,-0.54 -2.41,-4.17 -3.51,-5.31 -1.34,-1.39 -1.85,-1.61 -1.85,-0.88zm-152.8 0.83c-1.07,0.68 -3.33,2.02 -5.01,3 -3.31,1.9 -5.94,3.6 -6.19,4.04 -0.39,0.63 0.22,0.39 2.46,-0.95 1.34,-0.78 3.34,-1.95 4.48,-2.58 2.19,-1.24 6.46,-4.12 6.7,-4.53 0.34,-0.54 -0.59,-0.15 -2.44,1.02l0 0zm130.52 -1.29c-0.07,0.15 0.88,0.95 2.12,1.8 3.31,2.29 4.33,2.9 4.77,2.8 0.54,-0.09 -3.02,-3.11 -4.84,-4.09 -1.49,-0.78 -1.8,-0.85 -2.05,-0.51zm-37.91 -0.24c-2.02,0.14 -2.85,0.36 -2.12,0.61 0.66,0.19 15.8,0.34 15.8,0.14 0,-0.12 -0.46,-0.27 -1.02,-0.34 -1.39,-0.17 -9.25,-0.63 -9.98,-0.58 -0.3,0.02 -1.51,0.09 -2.68,0.17l0 0zm-34.51 -2.15c0.13,0.37 3.78,2.27 4.92,2.54 1.29,0.34 0.66,-0.34 -1.36,-1.44 -2.24,-1.22 -3.73,-1.68 -3.56,-1.1l0 0zm-63.94 1.34c-1.75,1.03 -4.26,2.41 -5.6,3.07 -3.12,1.56 -6.45,3.56 -6.45,3.87 0,0.39 0.8,0.05 5.11,-2.11 3.48,-1.76 10.71,-6.17 10.71,-6.56 0,-0.36 -0.92,0.05 -3.77,1.73l0 0zm159.37 -1.99c0,1.04 5.31,7.69 5.55,6.99 0.15,-0.47 -2.14,-4.05 -3.67,-5.75 -1.44,-1.58 -1.88,-1.88 -1.88,-1.24l0 0zm-22.64 -0.12c0,0.12 0.9,1.02 1.99,1.99 2.8,2.46 6.29,4.68 6.29,4 0,-0.05 -1.08,-1.05 -2.37,-2.2 -3.4,-3.02 -5.91,-4.62 -5.91,-3.79l0 0zm-39.69 -0.25c0,0.15 0.14,0.27 0.31,0.27 0.17,0 2.78,0.32 5.8,0.73 8.01,1.05 9.32,1.17 9.57,0.95 0.34,-0.29 0,-0.37 -5.34,-1.22 -5.43,-0.83 -10.34,-1.19 -10.34,-0.73zm-117.49 0.59c-6.04,2.63 -8.28,3.82 -7.11,3.82 0.85,0 11.61,-5.02 11.61,-5.41 0,-0.34 -0.24,-0.24 -4.5,1.59zm-30.32 -2.15c-5.5,2.22 -12.05,4.63 -16.32,6.02 -7.25,2.34 -9.49,3.14 -9.49,3.38 0,0.12 0.19,0.22 0.44,0.22 0.7,0 8.01,-1.87 10.52,-2.73 3.7,-1.21 15.85,-6.47 16.19,-6.98 0.19,-0.37 -0.29,-0.32 -1.34,0.09zm25.57 0.47c-3.87,1.41 -5.36,2.07 -5.36,2.38 0,0.39 0.8,0.17 3.6,-0.92 3.85,-1.49 5.65,-2.32 5.65,-2.56 0,-0.32 -0.09,-0.29 -3.89,1.1l0 0zm122.48 -1.37c0,0.29 0.78,0.42 7.79,1.03 6.77,0.58 8.4,0.65 8.4,0.34 0,-0.13 -1.85,-0.47 -4.14,-0.76 -4.94,-0.63 -12.05,-1 -12.05,-0.61l0 0zm39.93 -0.46c0,0.39 4.78,4.75 6.77,6.18 3.78,2.71 3.68,2.07 -0.22,-1.58 -3.82,-3.58 -6.55,-5.5 -6.55,-4.6zm23.62 -0.12c0,0.51 2.68,4.41 4.14,6.04 1.25,1.38 1.9,1.8 1.61,1 -0.36,-0.95 -3.04,-4.9 -4.14,-6.09 -1.19,-1.32 -1.61,-1.56 -1.61,-0.95l0 0zm-98.49 -0.08c-0.27,0.42 0.53,0.86 3.84,2.17 3.07,1.2 3.83,1.41 3.83,1.02 0,-0.34 -6.75,-3.45 -7.45,-3.45 -0.03,0 -0.15,0.12 -0.22,0.26l0 0zm36.28 -2.19c-0.1,0.15 -0.12,0.3 -0.1,0.32 0.05,0.05 1.73,0.32 3.73,0.61 4.31,0.63 9.64,0.95 9.64,0.58 0,-0.36 -2.29,-0.75 -7.48,-1.29 -5.33,-0.56 -5.6,-0.56 -5.79,-0.22zm-157.18 0.86c-1.8,0.73 -6.85,2.7 -11.2,4.38 -12.06,4.67 -19.97,7.91 -19.85,8.16 0.49,0.75 34.94,-12.84 34.94,-13.79 0,-0.26 -0.75,-0.02 -3.89,1.25l0 0zm197.45 -1.17c0.49,0.92 4.63,4.6 6.82,6.06 2.17,1.46 2.95,1.8 2.95,1.29 0,-0.39 -6.21,-5.7 -8.38,-7.16 -1.14,-0.75 -1.73,-0.85 -1.39,-0.19zm22.82 -1.2c-0.27,0.42 3.6,5.68 4.41,5.99 0.66,0.25 0.63,-0.04 -0.17,-1.53 -1.22,-2.29 -3.87,-5.07 -4.24,-4.46l0 0zm-63.26 -1.55c-0.44,0.46 -0.1,0.6 1.46,0.6 0.92,0 4.26,0.32 7.43,0.73 6.55,0.83 6.25,0.81 6.25,0.52 0,-0.25 -2.21,-0.83 -5.35,-1.39 -2.29,-0.42 -9.52,-0.76 -9.79,-0.46l0 0zm-37.21 -0.42c0,0.44 0.68,0.71 4.36,1.73 6.7,1.9 8.08,1.56 1.95,-0.46 -3.95,-1.29 -6.31,-1.78 -6.31,-1.27zm-29.8 0c-0.2,0.32 1.8,2.97 2.21,2.97 0.27,0 0.22,-0.24 -0.19,-0.97 -0.66,-1.17 -1.83,-2.32 -2.02,-2zm107.48 -0.49c0,0.81 9.2,8.58 10.13,8.58 0.58,0 -0.29,-1 -3.14,-3.63 -3.9,-3.58 -6.99,-5.77 -6.99,-4.95l0 0zm-134.63 0c-0.88,0.22 -1.64,0.56 -1.68,0.76 -0.1,0.27 0.07,0.29 0.75,0.17 1.58,-0.29 3.34,-0.9 3.34,-1.12 0,-0.34 -0.59,-0.29 -2.41,0.19l0 0zm-4.36 -0.43c-0.93,0.65 -1.32,1.21 -0.86,1.21 0.3,0 2.51,-1.51 2.51,-1.73 0,-0.41 -0.65,-0.21 -1.65,0.52zm99.1 -0.93c0.12,0.37 5.21,1.27 10.06,1.75 4.26,0.47 5.67,0.49 5.33,0.15 -0.34,-0.34 -3.16,-0.88 -8.37,-1.56 -5.26,-0.7 -7.16,-0.8 -7.02,-0.34l0 0zm31.37 -0.32c0,0.32 0.97,1.49 1.24,1.49 0.41,0 0.22,-0.63 -0.34,-1.17 -0.61,-0.56 -0.9,-0.68 -0.9,-0.32zm-197.73 -0.36c-4.19,1.44 -8.57,3.14 -13.76,5.33 -2.41,1 -5.31,2.22 -6.43,2.66 -1.14,0.43 -2.09,0.95 -2.16,1.12 -0.08,0.22 0.09,0.26 0.61,0.14 1.75,-0.41 6.84,-2.24 9.93,-3.55 1.88,-0.78 6.06,-2.54 9.33,-3.9 3.24,-1.34 5.89,-2.53 5.89,-2.65 0,-0.32 -0.1,-0.3 -3.41,0.85zm129.3 -1.12c0,0.46 6.6,2.68 8.65,2.9 1.85,0.19 1.16,-0.22 -2.68,-1.64 -3.36,-1.24 -5.97,-1.8 -5.97,-1.26l0 0zm-66.4 0.53c-1.54,0.78 -2.22,1.34 -1.93,1.66 0.22,0.2 2.66,-1.05 3.22,-1.68 0.68,-0.75 0.27,-0.75 -1.29,0.02l0 0zm104.14 -1.16c0,0.29 0.98,0.56 4.1,1.14 4.04,0.75 10.37,1.73 11.27,1.73 0.63,0 0.58,-0.39 -0.07,-0.59 -2.61,-0.73 -10.79,-2.24 -13.4,-2.45 -1.6,-0.15 -1.9,-0.13 -1.9,0.17l0 0zm40.67 -0.27c0,0.53 4.77,5.16 7.3,7.06 2.42,1.83 3.34,2.29 3.12,1.61 -0.14,-0.42 -6.69,-6.48 -8.47,-7.82 -1.56,-1.14 -1.95,-1.31 -1.95,-0.85zm-112.26 -0.73c0,0.34 1.27,2.16 1.93,2.75 0.9,0.83 0.61,-0.15 -0.51,-1.66 -0.98,-1.31 -1.42,-1.65 -1.42,-1.09zm103.54 -0.22c0.15,0.39 0.88,0.83 1.07,0.61 0.22,-0.22 -0.36,-0.9 -0.8,-0.9 -0.19,0 -0.32,0.12 -0.27,0.29l0 0zm-206.78 1.51c-4.85,1.87 -9.01,3.65 -11.3,4.82 -0.58,0.29 -0.85,0.56 -0.71,0.71 0.35,0.34 3.36,-0.81 9.94,-3.68 3.09,-1.37 6.11,-2.7 6.77,-2.97 1.07,-0.49 1.51,-0.93 0.85,-0.93 -0.17,0 -2.68,0.93 -5.55,2.05l0 0zm66.91 -1.2c-2.07,1.51 -2.53,2.07 -1.8,2.07 0.37,0 3.65,-2.5 4.26,-3.23 0.73,-0.91 -0.39,-0.37 -2.46,1.16l0 0zm170.26 -1.41c0,1.07 5.38,7.87 6.23,7.87 0.2,0 0.35,-0.08 0.35,-0.15 0,-0.34 -3.53,-5.26 -4.75,-6.62 -1.44,-1.56 -1.83,-1.8 -1.83,-1.1l0 0zm-62.82 -0.22c0,0.54 6.64,1.83 12.32,2.41 3.63,0.37 4.58,0.34 4.19,-0.07 -0.1,-0.07 -2.93,-0.63 -6.33,-1.22 -6.77,-1.17 -10.18,-1.56 -10.18,-1.12l0 0zm32.75 -1.17c-0.17,0.27 1.75,1.61 2,1.39 0.21,-0.22 -0.39,-0.87 -1.17,-1.29 -0.42,-0.19 -0.73,-0.24 -0.83,-0.1l0 0zm-141.99 0.95c-3.14,2.49 -4.6,3.83 -4.31,4 0.12,0.07 0.78,-0.22 1.44,-0.68 1.53,-1.05 5.38,-4.66 5.19,-4.85 -0.08,-0.1 -1.12,0.61 -2.32,1.53zm-66.94 -0.12c-3.63,1.61 -5.89,2.73 -6.38,3.12 -0.68,0.53 0.03,0.63 1.22,0.17 2.09,-0.8 9.18,-4.38 9.18,-4.63 0,-0.39 -0.54,-0.22 -4.02,1.34zm136.78 -1.51c0.12,0.32 7.72,2.85 10.37,3.46 0.83,0.2 1.56,0.24 1.63,0.15 0.08,-0.1 -0.07,-0.27 -0.31,-0.37 -4.14,-1.61 -7.72,-2.9 -8.92,-3.16 -1.85,-0.44 -2.89,-0.47 -2.77,-0.08l0 0zm41.64 -0.73c0.17,0.51 6.09,1.88 9.84,2.27 4.09,0.43 4.72,0.43 4.72,0.12 0,-0.34 -1.39,-0.66 -7.33,-1.58 -7.7,-1.2 -7.33,-1.17 -7.23,-0.81l0 0zm60.82 -0.14c0,0.48 0.61,1.38 2.76,3.99 2.97,3.6 4.55,5.06 4.55,4.16 0,-0.56 -3.09,-4.84 -4.77,-6.6 -1.83,-1.89 -2.54,-2.33 -2.54,-1.55zm-177.53 2.33c-5.6,3.92 -7.09,5.04 -6.89,5.34 0.26,0.46 4.35,-2.22 8.62,-5.63 2.7,-2.14 3.23,-2.68 2.72,-2.68 -0.14,0 -2.14,1.34 -4.45,2.97l0 0zm41.17 -3.04c0,0.32 2.22,2.99 2.46,2.99 0.32,0 0.27,-0.29 -0.24,-1.09 -0.88,-1.41 -2.22,-2.56 -2.22,-1.9zm106.41 -0.22c0,0.17 2,1.27 2.32,1.27 0.07,0 0.12,-0.1 0.12,-0.25 0,-0.24 -1.73,-1.21 -2.19,-1.21 -0.12,0 -0.25,0.09 -0.25,0.19l0 0zm9.89 -0.22c-0.34,0.54 5.31,5.89 8.43,8.01 2.11,1.44 1.41,0.39 -1.95,-2.89 -4.14,-4.1 -6.14,-5.68 -6.48,-5.12zm-42.15 -1c0.15,0.15 1.9,0.59 3.9,1 6.96,1.41 12.71,2.1 12.49,1.49 -0.08,-0.22 -2.12,-0.66 -6.43,-1.37 -6.99,-1.14 -10.35,-1.53 -9.96,-1.12l0 0zm-180.1 1.37c-3.82,1.75 -4.89,2.33 -5.04,2.77 -0.04,0.15 0.1,0.29 0.35,0.29 0.87,0 8.61,-3.96 8.61,-4.43 0,-0.36 -0.63,-0.17 -3.92,1.37zm62.83 0.34c-3.95,2.63 -10.35,7.25 -10.59,7.62 -0.76,1.24 3.14,-1.15 9.18,-5.63 2.72,-2.02 5.13,-3.84 5.33,-4.04 0.32,-0.29 0.32,-0.34 0,-0.34 -0.2,0 -1.97,1.07 -3.92,2.39l0 0zm76 -2.53c0,0.21 0.6,0.46 1.9,0.73 1.02,0.21 3.53,0.77 5.52,1.21 4.75,1.07 5.48,1.2 5.48,0.9 0,-0.14 -0.8,-0.48 -1.75,-0.75 -0.98,-0.29 -2.61,-0.78 -3.63,-1.1 -1.41,-0.43 -6.4,-1.34 -7.4,-1.34 -0.08,0 -0.12,0.15 -0.12,0.35l0 0zm73.05 -0.32c0,0.27 2.46,1.44 3.04,1.44 0.76,0 0.32,-0.44 -1.07,-1.08 -1.56,-0.68 -1.97,-0.78 -1.97,-0.36zm-151 0.73c-8.04,4.72 -13.05,8.01 -12.27,8.01 0.22,0 3.07,-1.46 4.87,-2.51 1.97,-1.12 10.59,-6.74 10.59,-6.89 0,-0.34 -0.95,0.07 -3.19,1.39zm182.17 -1.63c0,0.7 6.35,8.18 6.94,8.18 0.19,0 0.36,-0.07 0.36,-0.15 0,-0.58 -3.12,-4.7 -4.82,-6.38 -2.07,-2.02 -2.48,-2.29 -2.48,-1.65l0 0zm-20.95 -0.25c0,0.05 1.29,1.2 2.88,2.51 6.55,5.58 11.25,8.6 6.99,4.53 -4.02,-3.85 -9.87,-8.01 -9.87,-7.04zm-41 -0.34c0.39,0.39 5.84,1.39 9.84,1.81 1.94,0.21 3.99,0.43 4.57,0.51 0.9,0.09 1.05,0.05 0.98,-0.32 -0.08,-0.34 -0.73,-0.51 -3.61,-0.95 -7.37,-1.17 -12.32,-1.58 -11.78,-1.05l0 0zm-183.6 0.86c-2.8,1.14 -3.8,1.68 -3.8,2.07 0,0.51 1.22,0.17 3.77,-1.05 2.53,-1.24 3.83,-2.14 3.02,-2.12 -0.19,0.02 -1.53,0.51 -2.99,1.1zm61.58 -1.17c-3.61,1.9 -14.49,9.03 -14.49,9.49 0,0.49 0.22,0.42 2.8,-1.09 2.31,-1.32 13.03,-8.5 13.03,-8.72 0,-0.22 -0.64,-0.05 -1.34,0.32l0 0zm152.6 -0.61c0.08,0.29 2.49,1.63 2.95,1.65 0.1,0 0.17,-0.09 0.17,-0.24 0,-0.22 -2.68,-1.7 -3.07,-1.7 -0.07,0 -0.1,0.14 -0.05,0.29l0 0zm-108.41 -0.29c0,0.48 5.22,3.62 5.53,3.31 0.27,-0.27 -1.22,-1.51 -3.11,-2.66 -1.54,-0.9 -2.42,-1.14 -2.42,-0.65zm119.08 -0.76c0,0.54 9.86,8.79 10.52,8.79 1.29,0 -5.04,-5.94 -8.7,-8.13 -1.48,-0.9 -1.82,-1.02 -1.82,-0.66zm-173.77 4.26c-10.35,5.31 -11.27,5.82 -11,6.11 0.29,0.32 9.37,-4.16 16.63,-8.2 3.75,-2.1 4.72,-2.75 4.48,-2.97 -0.05,-0.05 -4.6,2.21 -10.11,5.06l0 0zm132.86 -5.72c0,0.27 5.87,1.41 8.77,1.7 4.33,0.47 6.33,0.56 6.33,0.3 0,-0.42 -1.46,-0.69 -7.94,-1.46 -6.67,-0.83 -7.16,-0.86 -7.16,-0.54l0 0zm-44.93 0.02c-0.22,0.37 1,0.86 6.99,2.76 6.11,1.94 7.67,2.36 7.4,1.92 -0.43,-0.73 -14.1,-5.16 -14.39,-4.68l0 0zm-141.45 0.81c-1.92,1 -2.56,1.63 -1.68,1.63 0.56,0 4.02,-1.97 4.17,-2.39 0.14,-0.51 -0.49,-0.31 -2.49,0.76zm51.84 0.39c-5.5,2.87 -14.07,7.55 -14.34,7.81 -0.68,0.69 0.37,0.39 3.19,-0.9 2.66,-1.24 13.61,-7.45 14.29,-8.13 0.69,-0.63 -0.31,-0.27 -3.14,1.22l0 0zm164.49 -1.59c0,0.32 2.24,1.54 3.63,1.98 1.22,0.36 0.31,-0.49 -1.46,-1.39 -2,-1.02 -2.17,-1.07 -2.17,-0.59zm31.66 -1.63c0,0.39 2.87,5.51 4.26,7.62 2.97,4.49 3.97,4.63 1.34,0.2 -3.02,-5.09 -5.6,-8.69 -5.6,-7.82l0 0zm-20.22 0.03c0,0.58 8.36,7.77 10.82,9.27 2.43,1.51 0.58,-0.68 -3.73,-4.43 -4.33,-3.72 -7.09,-5.62 -7.09,-4.84l0 0zm-121.5 -0.2c0,0.15 0.34,0.47 0.78,0.73 1.26,0.78 6.03,2.75 6.2,2.58 0.27,-0.26 -0.21,-0.58 -3.19,-2.09 -2.77,-1.41 -3.79,-1.73 -3.79,-1.22l0 0zm-62.12 3.07c-3.26,1.83 -7.5,4.14 -9.4,5.14 -3.29,1.73 -3.92,2.14 -3.65,2.41 0.41,0.41 8.32,-3.39 12.1,-5.8 1.53,-0.99 3.63,-2.31 4.63,-2.92 2.43,-1.51 2.8,-1.8 2.5,-1.97 -0.12,-0.07 -2.92,1.34 -6.18,3.14zm141.25 -4.07c0,0.25 -0.12,0.22 5.61,1.47 2.48,0.53 5.43,1.09 6.57,1.24 1.14,0.12 2.48,0.31 3,0.39 0.7,0.12 0.9,0.07 0.9,-0.25 0,-0.22 -0.25,-0.43 -0.54,-0.48 -3.68,-0.81 -14.12,-2.56 -15.22,-2.58 -0.17,0 -0.32,0.09 -0.32,0.21l0 0zm30.59 -0.26c-0.2,0.31 0.27,0.68 1.9,1.38 2.43,1.08 2.77,0.59 0.46,-0.65 -1.48,-0.78 -2.19,-1 -2.36,-0.73l0 0zm-219.28 0.19c-1.68,0.85 -1.97,1.12 -1.48,1.44 0.32,0.19 3.7,-1.61 3.85,-2.02 0.17,-0.51 -0.54,-0.34 -2.37,0.58l0 0zm143.16 -0.88c0,0.25 1.02,0.56 8.16,2.56 5.06,1.41 7.01,1.83 6.57,1.41 -0.46,-0.43 -13.34,-4.21 -14.39,-4.21 -0.19,0 -0.34,0.1 -0.34,0.24zm-103.12 4.75c-5.36,2.73 -9.77,5.09 -9.82,5.24 -0.31,0.9 7.26,-2.61 15.05,-6.97 2.49,-1.36 4.73,-2.67 4.99,-2.87l0.49 -0.36 -0.49 0c-0.26,0 -4.87,2.21 -10.22,4.96zm149.68 -5.94c0.12,0.37 4.7,1.29 11.1,2.24 3.36,0.51 3.7,0.51 3.7,0.17 0,-0.31 -0.53,-0.53 -2.24,-0.92 -5.89,-1.34 -12.78,-2.17 -12.56,-1.49zm29.07 -0.58c-0.31,0.31 -0.1,0.51 1.02,1 1.12,0.48 3.61,1.26 4,1.26 0.1,0 0.19,-0.1 0.19,-0.22 0,-0.44 -4.89,-2.36 -5.21,-2.04l0 0zm-174.61 1.19c-1.47,0.71 -5,2.29 -7.82,3.48 -6.58,2.8 -9.38,4.17 -9.23,4.41 0.15,0.24 0.56,0.1 5.36,-1.78 5.06,-1.97 7.64,-3.16 11.52,-5.23 3.14,-1.68 3.99,-2.29 3.16,-2.22 -0.17,0 -1.51,0.61 -2.99,1.34l0 0zm-10.89 1.14c-4.84,2.46 -8.86,4.63 -8.91,4.8 -0.17,0.49 0.9,0.15 4.41,-1.46 3.19,-1.46 13.68,-7.13 13.92,-7.57 0.42,-0.64 -1.36,0.14 -9.42,4.23l0 0zm185.72 -4.45c-0.17,0.29 3.97,2.34 5.26,2.6 1.36,0.27 0.51,-0.43 -1.9,-1.55 -2.58,-1.22 -3.14,-1.39 -3.36,-1.05zm-112.5 0c-0.22,0.34 0.64,0.8 5.36,2.87 4.82,2.12 6.06,2.58 6.53,2.41 0.36,-0.14 -7.65,-4.06 -9.99,-4.89 -0.97,-0.34 -1.82,-0.51 -1.9,-0.39l0 0zm81.7 -0.71c0,0.27 0.19,0.32 5.48,1.2 4.16,0.68 8.59,1.21 10.13,1.21 0.43,0 0.7,-0.12 0.7,-0.34 0,-0.41 -1.39,-0.68 -7.67,-1.46 -5.45,-0.68 -8.64,-0.92 -8.64,-0.61l0 0zm43.58 -0.56c0,0.12 1.47,1.68 3.24,3.48 3.02,3.1 6.19,5.87 7.43,6.53 2.39,1.27 -3.73,-5.19 -8.01,-8.45 -2.29,-1.73 -2.66,-1.95 -2.66,-1.56l0 0zm-13.39 -0.34c0.44,0.42 4.7,2.24 5.72,2.46l0.74 0.15 -0.56 -0.42c-0.95,-0.7 -5.02,-2.53 -5.65,-2.53 -0.52,0 -0.54,0.05 -0.25,0.34l0 0zm-77.92 -0.12c0,0.12 0.8,0.39 1.78,0.61 4.75,1 15.49,3.07 15.88,3.07 1.26,0 -0.52,-0.61 -5.34,-1.83 -6.62,-1.66 -12.32,-2.51 -12.32,-1.85zm-105.8 0.9c-2.14,1.02 -5.97,2.73 -8.52,3.8 -5.43,2.29 -6.94,3.02 -6.94,3.38 0,0.3 0.17,0.25 4.09,-1.16 4.92,-1.76 7.57,-3 13.63,-6.36 1.73,-0.97 2.44,-1.53 1.83,-1.49 -0.12,0 -1.95,0.83 -4.09,1.83zm198.09 -2.36c0,0.41 5.26,5.26 7.77,7.13 2.38,1.83 2.94,2.15 2.94,1.68 0,-0.41 -3.04,-3.5 -5.33,-5.4 -3.41,-2.85 -5.38,-4.09 -5.38,-3.41zm-42.83 -0.49c-0.17,0.12 -0.22,0.27 -0.12,0.34 0.51,0.29 12.49,1.88 14.29,1.88 0.1,0 0.17,-0.2 0.17,-0.47 0,-0.38 -0.37,-0.51 -2.61,-0.85 -5.35,-0.8 -11.2,-1.24 -11.73,-0.9zm-47.75 -0.75c0,0.14 0.41,0.39 0.92,0.53 0.88,0.22 10.93,1.95 13.52,2.32 1.75,0.24 1.38,-0.27 -0.49,-0.71 -8.11,-1.83 -13.95,-2.73 -13.95,-2.14zm75.6 -0.2c-0.17,0.27 -0.24,0.25 3.53,1.78 3.85,1.56 4.39,1.73 4.39,1.46 0,-0.12 -1.29,-0.85 -2.85,-1.61 -2.87,-1.36 -4.85,-1.99 -5.07,-1.63l0 0zm-188.49 2.68c-5.85,2.9 -12.57,6.53 -13.08,7.04 -1,1 2.19,-0.34 6.77,-2.85 1.34,-0.73 4.58,-2.48 7.18,-3.87 2.61,-1.39 4.85,-2.66 4.97,-2.78 0.76,-0.73 -0.66,-0.12 -5.84,2.46l0 0zm145.52 -3.31c0,0.07 0.26,0.61 0.56,1.19 0.31,0.59 0.65,1.34 0.77,1.66 0.15,0.48 0.2,0.51 0.3,0.17 0.12,-0.54 -1.03,-3.12 -1.37,-3.12 -0.14,0 -0.26,0.05 -0.26,0.1l0 0zm-70.74 0.15c-0.17,0.29 -0.12,0.31 3.58,1.87 6.6,2.75 7.64,3.17 8.67,3.41 2.09,0.53 1.12,-0.12 -3.19,-2.19 -4.27,-2.02 -8.77,-3.56 -9.06,-3.09zm85.83 -1.27c0,0.29 0.05,0.29 4.87,1.12 1.95,0.34 4.46,0.68 5.6,0.75 1.15,0.08 2.44,0.2 2.88,0.27 0.65,0.1 0.78,0.05 0.78,-0.36 0,-0.39 -0.27,-0.54 -1.27,-0.73 -4.26,-0.88 -12.86,-1.59 -12.86,-1.05l0 0zm44.81 2.14c2.58,2.61 7.62,6.92 8.08,6.92 1.17,0 -3.43,-4.78 -7.57,-7.87 -1.39,-1.02 -2.7,-1.87 -2.92,-1.87 -0.22,0 0.82,1.21 2.41,2.82zm-209.05 0.32c-5.21,2.53 -11.57,5.87 -12.03,6.28 -0.07,0.05 0,0.2 0.15,0.34 0.39,0.39 18.58,-8.94 18.58,-9.54 0,-0.13 -0.08,-0.22 -0.17,-0.2 -0.13,0 -3.05,1.41 -6.53,3.12l0 0zm191.51 -3.63c0,0.41 8.89,4.58 9.18,4.29 0.22,-0.22 0.32,-0.15 -4.26,-2.44 -4.16,-2.04 -4.92,-2.34 -4.92,-1.85zm-193.17 0.85c-2.09,1 -5.28,2.44 -7.06,3.19 -4.23,1.8 -6.72,3.09 -6.23,3.19 0.46,0.12 5.43,-1.73 8.5,-3.14 2.89,-1.34 9.01,-4.63 9.01,-4.87 0,-0.32 -0.22,-0.24 -4.22,1.63l0 0zm116.23 -1.82c0,0.48 5.79,1.92 12.27,3.04 2,0.34 3.92,0.61 4.26,0.61 2,0 -1.8,-0.95 -12.73,-3.17 -4.19,-0.85 -3.8,-0.8 -3.8,-0.48l0 0zm95.33 2.16c3.94,3.87 8.06,6.8 7.16,5.07 -0.93,-1.71 -8.31,-7.75 -9.47,-7.72 -0.2,0 0.85,1.19 2.31,2.65zm-131.01 -2.41c-0.17,0.27 0.35,0.54 2.05,1.1 0.73,0.24 2.34,0.9 3.58,1.48 2.68,1.25 6.11,2.44 6.35,2.22 0.22,-0.22 0.44,-0.1 -3.94,-2.19 -3.31,-1.58 -4.82,-2.12 -7.48,-2.7 -0.24,-0.05 -0.48,0 -0.56,0.09l0 0zm86.4 -0.56c-0.88,0.12 -1.05,0.44 -0.37,0.66 1.88,0.61 13.32,0.88 13.15,0.34 -0.24,-0.68 -9.54,-1.39 -12.78,-1zm-15.9 0c0,0.34 1.7,1.59 2.02,1.46 0.39,-0.12 -1.12,-1.63 -1.63,-1.63 -0.22,0 -0.39,0.07 -0.39,0.17l0 0zm-154.87 1.12c-5.75,3.02 -12.76,7.04 -13.03,7.48 -0.41,0.66 1.07,0.05 4.39,-1.8 14.22,-7.89 14.78,-8.23 14.46,-8.53 -0.07,-0.07 -2.68,1.22 -5.82,2.85zm213.07 -3.75c0,0.42 5.3,5.07 7.4,6.48 2.02,1.39 2.9,1.63 1.95,0.58 -1.54,-1.7 -8.55,-7.28 -9.13,-7.28 -0.13,0 -0.22,0.1 -0.22,0.22l0 0zm-18.63 0.05c-0.1,0.12 0.31,0.44 0.9,0.68 0.58,0.25 2.31,1 3.85,1.66 4.33,1.87 6.81,2.82 6.96,2.68 0.2,-0.17 -0.9,-0.73 -5.38,-2.73 -4.46,-2 -6.16,-2.61 -6.33,-2.29l0 0zm-197.7 2.05c-4.7,2.53 -8.84,4.92 -9.06,5.28 -0.39,0.61 0.34,0.39 2.75,-0.83 2.95,-1.48 10.91,-6.16 11.15,-6.52 0.37,-0.59 -0.75,-0.1 -4.84,2.07l0 0zm173.23 -2.85c0,0.34 0.41,0.46 3.6,0.9 3.75,0.51 9.33,0.39 8.43,-0.17 -0.86,-0.56 -12.03,-1.24 -12.03,-0.73l0 0zm-52.07 -0.39c0.15,0.41 4.17,1.56 11.4,3.21 6.26,1.46 8.47,1.85 7.74,1.37 -0.9,-0.56 -17.63,-4.87 -18.96,-4.87 -0.15,0 -0.22,0.14 -0.18,0.29zm35.9 -0.56c-0.22,0.34 1.34,1.48 2.04,1.48 0.47,0 -0.19,-0.95 -0.97,-1.34 -0.83,-0.41 -0.9,-0.43 -1.07,-0.14l0 0zm-157.33 1.02c-4.72,2.19 -8.91,4.29 -9.52,4.7 -0.24,0.2 -0.39,0.44 -0.29,0.54 0.51,0.48 13.83,-6.04 13.83,-6.77 0,-0.32 -0.2,-0.25 -4.02,1.53l0 0zm85.4 -2.17c0.14,0.42 6.89,3.12 11.68,4.7 4.17,1.39 4.58,1.49 4.58,1.15 0,-0.27 -11.93,-5.04 -14.12,-5.65 -2.12,-0.56 -2.27,-0.59 -2.14,-0.2l0 0zm131.93 -0.58c0,0.63 6.4,6.16 8.23,7.09 2.14,1.12 -2.34,-3.51 -5.6,-5.75 -2.02,-1.41 -2.63,-1.71 -2.63,-1.34l0 0zm-20.31 0.02c0.19,0.22 14.12,6.6 14.34,6.6 1.07,0 -6.16,-3.72 -11.15,-5.74 -2.53,-1.03 -3.7,-1.34 -3.19,-0.86zm-23.4 0.05c-0.1,0.15 -0.12,0.29 -0.08,0.34 0.32,0.32 9.09,1.25 12.69,1.34 0.1,0 0.17,-0.19 0.17,-0.46 0,-0.51 -0.14,-0.56 -4.45,-1.12 -3.36,-0.44 -8.11,-0.49 -8.33,-0.1zm-53.11 -0.46c-0.17,0.27 -0.15,0.27 5.26,1.53 5.6,1.32 11.57,2.56 12.42,2.56 1.39,0 -0.27,-0.51 -6.21,-1.95 -6.97,-1.65 -11.28,-2.48 -11.47,-2.14l0 0zm34.97 -1.53c0,0.12 0.73,0.48 1.65,0.82 0.9,0.34 1.83,0.69 2.07,0.78 0.25,0.1 0.42,0.08 0.42,-0.09 0,-0.18 -0.69,-0.61 -1.51,-1 -1.51,-0.73 -2.63,-0.93 -2.63,-0.51zm-96.19 -1.03c0,0.73 0.3,1.54 0.54,1.54 0.34,0 0.12,-1.78 -0.22,-1.9 -0.17,-0.05 -0.32,0.09 -0.32,0.36zm113.72 -0.68c0,0.66 10.91,1.66 11.3,1.05 0.09,-0.17 -0.2,-0.37 -0.76,-0.51 -2.31,-0.61 -10.54,-1.03 -10.54,-0.54zm-92.7 -0.15c-0.08,0.13 0,0.32 0.14,0.42 0.54,0.32 13.93,3.26 16.15,3.55 1.87,0.25 1.24,-0.22 -1.39,-0.95 -7.79,-2.21 -14.56,-3.58 -14.9,-3.02l0 0zm113.88 -0.36c0,0.1 2.83,1.31 6.29,2.68 8.37,3.31 9.59,3.75 9.49,3.43 -0.17,-0.53 -14.36,-6.31 -15.48,-6.31 -0.17,0 -0.3,0.1 -0.3,0.2l0 0zm-73.63 -0.46c-0.32,0.51 6.99,2.48 15.51,4.16 2.68,0.54 3.77,0.54 2.48,0 -0.87,-0.34 -15.36,-4.02 -16.82,-4.26 -0.61,-0.1 -1.07,-0.05 -1.17,0.1zm34.06 -0.47c-0.17,0.3 0.66,0.64 2.63,1.1 1.78,0.41 1.78,-0.02 0.03,-0.61 -1.88,-0.63 -2.49,-0.75 -2.66,-0.49zm-122.11 -0.56c-0.2,0.08 -1.51,0.69 -2.9,1.34 -1.9,0.88 -2.48,1.25 -2.26,1.46 0.19,0.2 0.99,-0.09 3.06,-1.12 1.56,-0.75 2.83,-1.48 2.83,-1.6 0,-0.27 -0.17,-0.27 -0.73,-0.08l0 0zm139.43 -0.21c-0.08,0.14 -0.05,0.31 0.07,0.38 0.59,0.37 5.65,0.91 8.84,0.95 3.19,0.05 4.16,-0.07 3.8,-0.43 -0.56,-0.59 -12.4,-1.42 -12.71,-0.91l0 0.01zm45.14 -0.35c0,0.37 3.75,4.05 4.14,4.05 0.54,0 0.17,-0.52 -1.63,-2.41 -1.83,-1.9 -2.51,-2.34 -2.51,-1.64zm-188.96 -0.12c-3.89,1.29 -4.87,1.73 -4.87,2.15 0,0.29 0.2,0.34 0.93,0.19 1.07,-0.19 6.92,-2.48 7.52,-2.95 0.83,-0.63 -0.63,-0.36 -3.58,0.61l0 0zm24.35 -1.43c0,0.24 1.69,1.46 2,1.46 0.46,0 0.12,-0.51 -0.7,-1.1 -0.98,-0.66 -1.3,-0.75 -1.3,-0.36zm65.51 -0.3c0,0.37 1.56,0.81 6.89,1.98 6.99,1.53 10.64,2.09 10.01,1.51 -0.27,-0.27 -8.09,-2.29 -11.35,-2.95 -3.24,-0.66 -5.55,-0.88 -5.55,-0.54l0 0zm-36.65 0.08c-0.07,0.09 0.17,0.36 0.54,0.53 1.38,0.71 7.69,2.58 11.59,3.44 1.34,0.29 0.61,-0.32 -1.1,-0.93 -5.99,-2.12 -10.79,-3.46 -11.03,-3.04zm111.4 -0.34c0,0.26 0.08,0.29 8.04,3.96 7.08,3.24 7.06,3.24 7.06,2.9 0,-0.44 -11.93,-6.11 -14.54,-6.89 -0.31,-0.1 -0.56,-0.07 -0.56,0.03l0 0zm-166.8 0.41c-3.72,1.17 -5.6,1.95 -5.6,2.31 0,0.47 0.95,0.3 3.51,-0.56 2.92,-0.97 5.99,-2.31 5.99,-2.6 0,-0.34 -0.42,-0.25 -3.9,0.85zm147.4 -1.17c-0.66,0.15 -0.73,0.46 -0.15,0.68 0.71,0.29 5.72,0.47 7.45,0.29 1.61,-0.19 2.02,-0.43 1.22,-0.75 -0.54,-0.19 -7.79,-0.39 -8.52,-0.22zm-19.53 -0.97c-0.76,0.63 -0.98,1.38 -0.51,1.68 0.14,0.07 0.24,0.05 0.24,-0.1 0,-0.41 2.19,-1.24 3.31,-1.24 1.27,0 1.39,-0.32 0.32,-0.71 -1.34,-0.46 -2.54,-0.34 -3.36,0.37l0 0zm-35.82 -0.56c0,0.22 0.61,0.44 1.77,0.65 0.95,0.17 3.41,0.61 5.41,1 3.43,0.66 7.94,1.44 10.3,1.78 1.83,0.27 1.1,-0.27 -1.1,-0.8 -10.1,-2.44 -16.38,-3.44 -16.38,-2.63l0 0zm-95.33 0.68c-5.73,1.58 -7.07,2.12 -6.6,2.58 0.19,0.19 4.94,-1.05 7.28,-1.9 4.38,-1.61 4.02,-1.97 -0.68,-0.68l0 0zm56.85 -1.73c0,0.39 1.88,1.12 6.58,2.56 6.06,1.87 9.62,2.65 8.28,1.82 -0.64,-0.39 -10.28,-3.63 -12.35,-4.14 -2.26,-0.56 -2.51,-0.58 -2.51,-0.24zm111.28 -0.49c0,0.29 2.56,1.51 9.14,4.31 5.77,2.46 7.42,3.1 7.59,2.92 0.17,-0.17 -0.73,-0.6 -7.18,-3.55 -5.02,-2.29 -8.91,-3.92 -9.35,-3.92 -0.12,0 -0.2,0.12 -0.2,0.24l0 0zm-171.67 0.42c-4.91,0.8 -7.13,1.34 -7.25,1.75 -0.1,0.29 0.24,0.32 1.92,0.19 3.19,-0.24 9.47,-1.82 9.47,-2.36 0,-0.29 0.17,-0.31 -4.14,0.42zm150.98 -0.66c0,0.51 2.07,0.8 6.52,0.9 3.17,0.1 4.68,0.05 4.68,-0.12 0,-0.32 -1.1,-0.46 -5.8,-0.78 -4.65,-0.29 -5.4,-0.29 -5.4,0l0 0zm-19.24 -1.24c-3.12,0.34 -0.44,1.17 4.46,1.41 2.38,0.1 3.33,0.07 3.33,-0.12 0,-0.66 -5.38,-1.54 -7.79,-1.29zm-133.32 0.17c-7.62,1.7 -8.54,1.99 -8.08,2.46 0.48,0.46 12.59,-2.54 12.59,-3.1 0,-0.34 -0.39,-0.29 -4.51,0.64zm98.26 -1.17c0,0.17 0.02,0.29 0.07,0.29 0.02,0 3.46,0.49 7.6,1.07 9.83,1.39 10.1,1.44 10.1,1.15 0,-0.27 -0.75,-0.44 -7.08,-1.61 -5.07,-0.93 -10.69,-1.41 -10.69,-0.9l0 0zm54.18 -0.17c-0.27,0.41 -0.03,0.49 1.99,0.75 2.9,0.37 6.41,0 6.41,-0.68 0,-0.27 -0.78,-0.34 -4.12,-0.34 -2.68,0 -4.19,0.1 -4.28,0.27l0 0zm-123.1 -0.51c0,0.24 2.29,1.8 3.05,2.09 0.83,0.34 0.27,-0.44 -1.02,-1.34 -1.37,-1 -2.03,-1.24 -2.03,-0.75l0 0zm30.49 -0.68c0.17,0.51 3.29,1.63 8.84,3.23 5.75,1.64 7.43,2.02 7.43,1.64 0,-0.32 -9.84,-3.78 -12.91,-4.56 -2.68,-0.68 -3.51,-0.75 -3.36,-0.31zm-63.55 -0.18c-5.82,1.37 -7.72,2.05 -7.14,2.63 0.34,0.35 2.92,-0.17 6.55,-1.29 3.63,-1.12 5.48,-1.87 5.29,-2.21 -0.1,-0.12 -0.17,-0.22 -0.2,-0.2 -0.02,0 -2.04,0.49 -4.5,1.07zm156.52 -2.16c-1.34,0.17 -1.66,0.31 -1.22,0.58 0.61,0.39 2.68,0.54 4.73,0.37 2.02,-0.17 2.85,-0.42 2.5,-0.78 -0.21,-0.2 -4.65,-0.32 -6.01,-0.17l0 0zm-127.84 -0.93c0,0.12 0.59,0.47 1.32,0.76 1.65,0.68 5.84,1.95 5.96,1.82 0.27,-0.24 -0.51,-0.61 -3.02,-1.51 -3.11,-1.12 -4.26,-1.41 -4.26,-1.07l0 0zm34.09 -0.1c0,0.47 4.8,2.15 9.94,3.46 4.36,1.12 4.92,1.22 4.92,0.86 0,-0.25 -10.33,-3.73 -12.69,-4.29 -1.92,-0.44 -2.17,-0.44 -2.17,-0.03l0 0zm36.53 -0.36c0,0.24 0.65,0.46 5.77,1.87 5.23,1.44 13.44,2.95 12.9,2.39 -0.22,-0.24 -10.52,-2.95 -14.73,-3.87 -2.9,-0.66 -3.94,-0.76 -3.94,-0.39l0 0zm-101.86 1.39c-6.19,1.68 -8.45,2.43 -8.45,2.8 0,0.39 0.85,0.24 4.68,-0.73 5.6,-1.44 11.9,-3.73 10.05,-3.66 -0.27,0 -3.09,0.74 -6.28,1.59l0 0zm156.89 -3.14c0,0.95 7.13,2.02 7.94,1.21 0.29,-0.29 0.02,-0.39 -2.58,-0.78 -3.75,-0.58 -5.36,-0.7 -5.36,-0.43l0 0zm-54.98 -0.37c0.12,0.37 0.63,0.51 5.79,1.54 4.63,0.92 10.4,1.72 10.64,1.48 0.29,-0.27 -0.12,-0.44 -2.29,-0.9 -1.17,-0.27 -3.31,-0.73 -4.72,-1.07 -4.65,-1.1 -9.62,-1.66 -9.42,-1.05zm-105.25 1.02c-2.21,0.71 -4.84,1.61 -5.82,2.03 -1.82,0.73 -2.46,1.29 -1.51,1.29 1.17,0 12.01,-3.88 12.33,-4.41 0.29,-0.44 -1.05,-0.15 -5,1.09l0 0zm65.8 -1.75c0.07,0.17 0.8,0.56 1.68,0.88 1.85,0.68 15.36,3.99 15.53,3.82 0.3,-0.29 -0.58,-0.66 -4.74,-1.92 -3.85,-1.2 -11.33,-3.07 -12.23,-3.07 -0.19,0 -0.29,0.14 -0.24,0.29zm-67.99 -0.41c-3.87,1.12 -7.67,2.43 -8.23,2.87 -0.63,0.49 0.12,0.63 1.54,0.29 1.65,-0.39 8.13,-2.55 9.91,-3.33 1.09,-0.47 1.55,-0.95 0.87,-0.9 -0.17,0 -2.02,0.48 -4.09,1.07l0 0zm32.88 -2.32c0,0.13 0.29,0.3 0.68,0.39 2.09,0.47 3.6,0.9 5.89,1.68 4.92,1.68 8.33,2.54 7.74,1.95 -0.07,-0.07 -2.24,-0.9 -4.84,-1.85 -5.07,-1.85 -9.48,-2.87 -9.48,-2.17l0.01 0zm34.82 -0.87c0,0.22 1.46,0.75 4.31,1.6 6.86,2.03 10.78,2.95 10.78,2.51 0,-0.29 -10.3,-3.67 -12.51,-4.09 -2.34,-0.44 -2.58,-0.46 -2.58,-0.02l0 0zm-71.69 1c-6.21,1.63 -7.7,2.16 -7.26,2.6 0.73,0.73 14.05,-3.16 13.54,-3.97 -0.17,-0.27 0.41,-0.41 -6.28,1.37l0 0zm109.19 -1.88c0,0.39 8.06,3.17 11.85,4.09 7.33,1.78 7.55,1.32 0.44,-0.88 -11.03,-3.4 -12.29,-3.72 -12.29,-3.21zm-111.89 -0.46c-5.17,1.65 -7.36,2.53 -7.19,2.85 0.17,0.31 1,0.17 3.66,-0.69 4.82,-1.53 9.64,-3.62 8.27,-3.6 -0.19,0.03 -2.33,0.66 -4.74,1.44zm109.5 -2.12c0.24,0.71 13.73,3.6 16.73,3.6 1.39,0 0.56,-0.44 -1.88,-0.97 -1.29,-0.32 -4.06,-0.95 -6.13,-1.46 -5.58,-1.37 -8.92,-1.83 -8.72,-1.17zm-37.74 -0.49c0.14,0.46 8.2,3.24 12.56,4.36 3.82,0.97 4.43,1.07 4.43,0.76 0,-0.2 -12.71,-4.48 -15,-5.04 -1.82,-0.44 -2.12,-0.47 -1.99,-0.08zm-74.81 0.54c-3.89,1.41 -5.6,2.21 -5.6,2.6 0,0.44 1.58,0.03 4.51,-1.17 2.99,-1.21 4.99,-2.24 4.99,-2.55 0,-0.29 -0.1,-0.27 -3.9,1.12zm24.43 -1.39c0.36,0.05 0.9,0.05 1.21,0 0.3,-0.05 0,-0.1 -0.68,-0.1 -0.66,0 -0.92,0.05 -0.53,0.1zm13.61 -0.88c0.17,0.49 2.38,1.32 8.57,3.17 5.43,1.63 6.57,1.92 6.09,1.46 -0.32,-0.29 -6.6,-2.46 -10.57,-3.65 -1.8,-0.54 -3.48,-1.05 -3.75,-1.15 -0.32,-0.12 -0.42,-0.07 -0.34,0.17l0 0zm73.24 -0.44c0,0.25 0.34,0.49 0.93,0.64 4.33,1.17 15.14,2.7 15.14,2.14 0,-0.27 -0.21,-0.34 -4.62,-1.29 -5.31,-1.12 -7.28,-1.49 -9.55,-1.68 -1.63,-0.15 -1.9,-0.12 -1.9,0.19l0 0zm-38.23 -0.43c0,0.41 2.05,1.09 6.02,1.92 1.58,0.34 4.23,0.95 5.91,1.34 3.02,0.75 4.46,0.95 4,0.56 -0.71,-0.66 -8.23,-2.9 -12.01,-3.58 -3.82,-0.71 -3.92,-0.71 -3.92,-0.24l0 0zm-74.14 0.26c-3.63,1.25 -6.53,3.07 -4.51,2.83 0.78,-0.1 5.97,-2.58 6.21,-2.95 0.29,-0.51 0.05,-0.48 -1.7,0.12zm-4.29 -1.87c-2.17,0.78 -3.21,1.39 -3.07,1.8 0.17,0.49 1.27,0.24 3.39,-0.75 2.24,-1.05 3.11,-1.76 2.12,-1.73 -0.32,0 -1.42,0.31 -2.44,0.68l0 0zm114.11 -0.97c-0.32,0.53 -1,0.39 10.47,1.94 7.37,1 8.15,1.07 8.15,0.78 0,-0.31 -0.04,-0.31 -6.21,-1.63 -4.35,-0.9 -5.99,-1.14 -8.79,-1.24 -2.53,-0.1 -3.48,-0.07 -3.62,0.15zm-88.88 -0.05c-1.51,0.12 -2.1,0.31 -1.95,0.58 0.1,0.15 0.63,0.2 1.24,0.1 0.59,-0.07 1.56,-0.2 2.17,-0.27 0.61,-0.07 1.05,-0.22 0.97,-0.36 -0.14,-0.22 -0.48,-0.22 -2.43,-0.05l0 0zm-26.96 -1.17c-2.8,1.19 -4.14,2.21 -2.85,2.21 0.88,0 4.92,-2.43 4.6,-2.75 -0.07,-0.07 -0.85,0.17 -1.75,0.54zm42.42 -0.61c0.68,0.63 6.43,2.56 11.08,3.68 2.65,0.65 3.26,0.73 2.9,0.39 -0.56,-0.56 -12.57,-4.41 -13.76,-4.41 -0.49,0 -0.51,0.05 -0.22,0.34l0 0zm35.11 -0.54c0.15,0.42 3.8,1.68 9.06,3.14 4.36,1.2 7.33,1.73 6.84,1.25 -0.53,-0.51 -14.29,-4.68 -15.53,-4.68 -0.25,0 -0.42,0.15 -0.37,0.29zm-52.4 -0.8c-1.14,0.37 -2.31,0.8 -2.6,0.97 -0.83,0.44 -0.71,0.86 0.24,0.69 1.05,-0.17 5.04,-1.88 5.04,-2.15 0,-0.34 -0.44,-0.26 -2.68,0.49l0 0zm89.37 -0.97c0,0.12 1.07,0.46 2.38,0.75 1.29,0.29 3.68,0.85 5.29,1.27 3.58,0.87 5.94,1.31 8.59,1.53 3.05,0.27 2.44,-0.19 -1.09,-0.85 -1.73,-0.29 -4.39,-0.93 -5.92,-1.36 -4.41,-1.27 -9.25,-1.95 -9.25,-1.34l0 0zm-38.72 -1.83c0,0.07 1.29,0.51 2.87,1 1.56,0.49 3.75,1.19 4.87,1.61 2.75,0.97 7.77,2.41 8.4,2.41 1,0 0.03,-0.42 -4.7,-2.03 -5.77,-1.94 -11.44,-3.43 -11.44,-2.99l0 0zm-52.48 0.75c-3.26,0.91 -5.23,1.68 -5.23,2.07 0,0.32 0.32,0.32 2.09,-0.12 1.71,-0.39 6.68,-2.21 7.02,-2.55 0.44,-0.44 -0.9,-0.25 -3.88,0.6l0 0zm113.75 -1.12c0.31,0.35 3.62,1.05 10.2,2.2 6.84,1.21 8.64,1.46 8.64,1.21 0,-0.24 -0.75,-0.46 -6.21,-1.65 -6.5,-1.46 -13.29,-2.39 -12.63,-1.76zm-23.6 -0.04c-0.58,0.56 0.68,0.87 6.65,1.55 2.34,0.27 4.92,0.59 5.72,0.71 1.92,0.32 3.94,0.32 3.63,0.02 -0.42,-0.41 -8.67,-1.99 -11.67,-2.21 -3.53,-0.29 -4.14,-0.29 -4.33,-0.07l0 0zm-74.39 0.12c0.15,0.41 6.04,2.43 10.54,3.6 3.83,1 6.63,1.46 5.97,1 -0.85,-0.61 -15.1,-4.89 -16.27,-4.89 -0.19,0 -0.29,0.14 -0.24,0.29zm-18.92 -1.51c-6.14,1.29 -7.87,1.82 -7.35,2.34 0.17,0.17 5.79,-0.98 9.13,-1.86 2.97,-0.8 4.5,-1.46 3.21,-1.41 -0.34,0 -2.58,0.42 -4.99,0.93l0 0zm90.34 -1.73c-0.29,0.51 3.51,1.17 10.66,1.87 3.9,0.37 4.9,0.37 4.51,-0.02 -0.24,-0.24 -6.53,-1.34 -9.81,-1.7 -3.68,-0.42 -5.17,-0.47 -5.36,-0.15l0 0zm-37.38 -0.2c0,0.13 0.37,0.39 0.81,0.59 0.87,0.36 13.41,3.53 13.97,3.53 2.02,0 -6.11,-2.78 -10.98,-3.75 -3.53,-0.71 -3.8,-0.73 -3.8,-0.37zm-36.4 -1.24c-0.22,0.34 1.41,1.02 7.06,3 4.97,1.73 8.64,2.85 9.42,2.85 0.88,0 0.2,-0.44 -1.87,-1.2 -1.12,-0.41 -3.24,-1.24 -4.7,-1.82 -1.46,-0.61 -4.07,-1.49 -5.8,-1.98 -1.73,-0.48 -3.31,-0.92 -3.55,-0.99 -0.22,-0.08 -0.47,0 -0.56,0.14l0 0zm-18.09 0.27c-4.12,0.8 -7.63,1.88 -7.8,2.39 -0.14,0.43 1.12,0.24 5.65,-0.86 8.96,-2.19 10.23,-3.09 2.15,-1.53l0 0zm113.47 -0.71c0.07,0.2 1.73,0.73 4.11,1.32 2.19,0.53 4.92,1.29 6.07,1.63 2.58,0.8 8.93,2.36 9.59,2.36 1.05,0 -0.17,-0.48 -6.01,-2.41 -5.53,-1.8 -8.36,-2.48 -12.69,-3.07 -0.93,-0.12 -1.15,-0.09 -1.07,0.17l0 0zm-24.35 -1.24c0.12,0.37 1.07,0.54 8.54,1.56 4.31,0.61 5.41,0.66 5,0.24 -0.08,-0.07 -1.9,-0.51 -4.05,-0.97 -4.48,-0.97 -9.69,-1.44 -9.49,-0.83l0 0zm-37.48 -0.66c0.47,0.37 3.39,1.22 9.43,2.8 6.96,1.81 7.89,1.59 1.8,-0.46 -3.48,-1.19 -9.72,-2.68 -11.03,-2.68 -0.59,0.03 -0.61,0.05 -0.2,0.34l0 0zm-55.71 0.3c-7.57,1.26 -9.3,1.7 -8.82,2.19 0.42,0.41 14.57,-2.29 14.91,-2.85 0.22,-0.34 -0.81,-0.22 -6.09,0.66zm18.87 -1.15c0,0.34 1.02,0.64 4.75,1.37 1.87,0.36 5.19,1.02 7.35,1.48 6.84,1.44 7.06,1 0.44,-0.85 -2.78,-0.76 -5.72,-1.39 -8.03,-1.71 -4.14,-0.58 -4.51,-0.6 -4.51,-0.29l0 0zm72.03 -1.26c-0.76,0.12 -0.9,0.43 -0.29,0.65 1.14,0.44 9.42,0.83 8.98,0.42 -0.31,-0.27 -6.18,-1.24 -7.23,-1.22 -0.44,0.02 -1.1,0.1 -1.46,0.15zm-89.32 -0.52c-0.73,0.2 -2.92,0.66 -4.87,1.08 -3.94,0.8 -6.87,1.7 -7.01,2.16 -0.12,0.37 0.49,0.27 5.79,-0.97 4.97,-1.19 8.04,-2.12 8.04,-2.41 0,-0.29 -0.24,-0.27 -1.95,0.14zm85.06 -2.19c-0.32,0.08 -0.56,0.22 -0.56,0.34 0,0.34 1.04,0.47 4.7,0.49 3.28,0 4.45,-0.22 3.02,-0.58 -0.81,-0.2 -6.51,-0.39 -7.16,-0.25l0 0zm-33.44 0.1c0,0.37 1.54,0.97 6.97,2.75 5.16,1.68 6.67,2.07 6.67,1.71 0,-0.34 -7.67,-3.31 -10.47,-4.07 -2.53,-0.68 -3.17,-0.75 -3.17,-0.39zm-56.37 0.03c-3.67,1.04 -9.62,3.16 -9.62,3.4 0,0.52 1.64,0.13 6.21,-1.46 6.51,-2.24 6.46,-2.24 6.46,-2.48 0,-0.32 -0.34,-0.27 -3.05,0.54zm18.87 -1.49c0,0.24 2.93,1.19 5.61,1.8 3.57,0.83 11.9,2.58 12.27,2.58 0.53,0 0.48,-0.39 -0.03,-0.56 -6.52,-1.87 -9.08,-2.51 -12.66,-3.21 -4.67,-0.93 -5.19,-0.98 -5.19,-0.61zm37.02 -0.76c0,0.2 1.99,1 3.41,1.37 0.34,0.1 1.77,0.58 3.21,1.12 2.95,1.07 4.53,1.46 4.7,1.19 0.05,-0.1 -0.68,-0.49 -1.66,-0.85 -0.97,-0.37 -2.26,-0.95 -2.92,-1.27 -1.22,-0.61 -5.28,-1.77 -6.18,-1.77 -0.32,0 -0.56,0.09 -0.56,0.21l0 0zm-57.47 0.52c-1.27,0.36 -3.24,0.9 -4.38,1.16 -3.29,0.76 -7.06,2.49 -5.46,2.49 0.34,0 2.61,-0.63 8.38,-2.36 2.48,-0.73 4.38,-1.51 4.38,-1.81 0,-0.31 -0.34,-0.24 -2.92,0.52l0 0zm-6.7 -1.08c-4.4,0.93 -5.77,1.34 -5.91,1.76 -0.15,0.44 0.46,0.36 3.97,-0.44 3.7,-0.85 6.21,-1.66 6.21,-1.97 0,-0.27 0.38,-0.34 -4.27,0.65zm-4.87 -0.77c-3.21,1.24 -4.06,1.68 -3.5,1.8 0.68,0.12 6.55,-2.24 6.55,-2.66 0,-0.31 -0.12,-0.29 -3.05,0.86zm28.03 -1.59c-0.22,0.32 1.68,0.88 5.09,1.49 11.93,2.17 13.52,2.38 13.52,2.02 0,-0.32 -9.4,-2.41 -13.52,-3 -1.87,-0.26 -3.75,-0.56 -4.16,-0.63 -0.44,-0.07 -0.86,-0.02 -0.93,0.12zm-32.77 -0.24c-2.76,0.8 -3.97,1.36 -3.39,1.61 0.39,0.14 6.23,-1.66 6.65,-2.07 0.41,-0.42 -0.8,-0.25 -3.26,0.46zm67.45 -1.22c0,0.32 2.6,1.15 5.35,1.71 1.27,0.26 3,0.65 3.85,0.87 2.05,0.54 2.44,0.32 0.76,-0.44 -1.93,-0.87 -3.61,-1.33 -6.75,-1.87 -3.19,-0.56 -3.21,-0.56 -3.21,-0.27l0 0zm-71.67 -0.49c-3.02,1 -2.97,0.98 -2.68,1.27 0.3,0.29 4.51,-0.97 5.34,-1.61 0.46,-0.34 0.46,-0.34 -0.03,-0.34 -0.26,0 -1.43,0.32 -2.63,0.68l0 0zm34.8 -1.46c-0.24,0.39 0.24,0.54 3.34,0.9 1.63,0.2 4.6,0.64 6.57,0.95 3.7,0.64 5.82,0.78 5.38,0.39 -0.44,-0.39 -8.28,-1.94 -10.57,-2.09 -1.26,-0.07 -2.82,-0.2 -3.45,-0.27 -0.61,-0.05 -1.2,0 -1.27,0.12l0 0zm29.68 -3.97c1.49,0.32 3.17,0.76 3.78,0.93l1.09 0.37 -1.63 0c-0.92,0.02 -1.65,0.12 -1.65,0.24 0,0.1 0.85,0.34 1.89,0.51 1.03,0.15 3.54,0.66 5.53,1.1 4.9,1.09 7.92,2.5 14.39,6.74 1.64,1.05 3.34,1.97 3.8,2.07 1.61,0.24 3.12,-1.1 3.12,-2.78 0,-0.36 -0.32,-1.85 -0.71,-3.31 -0.39,-1.43 -0.7,-2.6 -0.65,-2.6 0.58,0 16.94,5.43 16.94,5.62 0,0.1 -0.78,0.25 -1.7,0.34 -0.95,0.1 -1.78,0.27 -1.85,0.39 -0.29,0.47 0.8,0.54 3.04,0.17l2.34 -0.36 6.33 2.36c3.48,1.31 8.6,3.26 11.37,4.36 2.78,1.07 5.21,1.97 5.46,1.97 0.24,0 0.68,0.22 0.97,0.51l0.54 0.51 0.29 -0.53c0.14,-0.29 0.34,-1.73 0.41,-3.19 0.1,-1.73 0.25,-2.66 0.42,-2.66 0.36,0 6.18,1.03 10.05,1.78l2.95 0.56 3.19 2.14c1.75,1.17 3.19,2.17 3.19,2.22 0,0.05 -2.05,-0.46 -4.55,-1.12 -4.24,-1.1 -10.89,-2.65 -13.03,-3.04 -1.61,-0.27 -1.05,0.34 0.8,0.87 3.44,1.03 10.18,2.66 14.1,3.41l4.02 0.78 1.82 1.39c2,1.51 5.63,4.53 8.67,7.23 2.9,2.58 3.9,2.97 5.46,2.17 1.19,-0.61 1.46,-1.46 1.46,-4.63 0,-1.53 0.1,-2.8 0.22,-2.8 0.41,0 9.57,6.89 11.1,8.35 0.15,0.15 -0.31,0.15 -1.26,0.05 -1,-0.09 -1.54,-0.07 -1.54,0.08 0,0.26 2.05,0.77 3.17,0.77 0.46,0 1.07,0.32 1.78,0.95l1.09 0.93 -2.17 -0.12c-1.55,-0.08 -2.16,-0.05 -2.16,0.17 0,0.39 0.29,0.46 2.97,0.63l2.33 0.17 1.78 1.58c0.98,0.88 1.56,1.54 1.29,1.47 -1.21,-0.37 -6.69,-1.39 -7.38,-1.39 -2.72,0 2.44,1.75 6.6,2.24 2.05,0.24 2.46,0.36 2.97,0.9l0.61 0.63 -3.09 0.03c-2.99,0 -5.16,0.36 -5.16,0.82 0,0.3 4.77,0.3 6.89,0.03 0.78,-0.1 1.51,-0.29 1.61,-0.46 0.22,-0.37 5.28,4.74 5.48,5.55 0.07,0.34 0.24,0.78 0.39,0.97 0.21,0.32 0.34,0.27 0.8,-0.29 0.29,-0.37 0.68,-1.12 0.85,-1.7 0.46,-1.49 2.02,-4.61 2.39,-4.75 0.17,-0.05 0.63,0.07 1.02,0.26 1.7,0.88 9.67,7.65 14.24,12.11l2.73 2.65 -4.87 -2.39c-5.26,-2.55 -8.76,-4.04 -9.2,-3.87 -0.27,0.1 1.51,1 11.47,5.73 3.43,1.63 4.21,2.09 5.84,3.6 3.68,3.36 5.21,4.21 6.92,3.9 0.46,-0.08 1.09,-0.42 1.41,-0.76l0.56 -0.58 2.58 2.36c2.82,2.6 4.75,4.04 5.21,3.87 0.41,-0.12 -2.31,-2.92 -4.75,-4.8 -1.17,-0.92 -2.24,-1.7 -2.38,-1.75 -0.2,-0.05 -0.2,-0.41 -0.03,-1.17 0.15,-0.61 0.27,-1.78 0.27,-2.63 0,-1 0.1,-1.48 0.24,-1.39 0.39,0.25 5.09,7.45 6.53,10.01 1.85,3.24 4.92,9.67 6.6,13.83 1.24,3 1.48,3.87 1.48,5.04 0,0.78 0.12,1.49 0.27,1.56 0.44,0.29 2.22,-1.85 3.82,-4.58 0.86,-1.43 1.64,-2.55 1.76,-2.48 0.12,0.07 0.39,0.71 0.63,1.41 0.63,1.95 0.66,2.07 0.1,1.07 -0.59,-1.07 -1.1,-1.21 -0.88,-0.24 0.2,0.83 2.02,4.67 2.44,5.19 0.26,0.31 1.12,3.21 1.12,3.82 0,0.1 -0.56,-0.8 -1.25,-2 -2.16,-3.8 -3.87,-5.99 -3.87,-4.99 0,0.17 0.54,1.41 1.2,2.78 1.24,2.5 3.62,5.91 4.09,5.82 0.48,-0.1 2.04,8.62 2.99,16.48 1.12,9.35 1.44,10.72 2.75,11.54 2.27,1.42 3.63,0.66 7.99,-4.5 1.36,-1.61 2.56,-2.9 2.65,-2.9 0.22,0 0.42,1 0.61,3.29l0.13 1.7 -0.54 -1.04c-0.51,-0.98 -0.93,-1.32 -0.93,-0.78 0,0.14 0.34,0.9 0.73,1.7 0.69,1.36 0.74,1.61 0.71,4.19l-0.02 2.75 -0.37 -1.09c-1.48,-4.39 -2.75,-7.02 -2.75,-5.78 0,0.49 1.27,4.14 2.29,6.6l0.9 2.17 -0.27 3.31c-0.68,8.48 -1.9,14.47 -4.75,23.16 -1.94,5.94 -2.14,6.82 -1.82,8.03 0.39,1.47 1.43,2.2 3.11,2.2 0.78,0 1.73,-0.1 2.15,-0.22 0.75,-0.22 0.78,-0.2 0.92,0.68 0.07,0.49 0.29,2.8 0.51,5.19 0.2,2.36 0.54,5.16 0.71,6.21l0.34 1.89 -0.95 1.71c-0.51,0.92 -0.95,1.58 -0.95,1.44 -0.07,-3.9 -0.61,-10.72 -0.97,-12.5 -0.56,-2.82 -1.12,-3.58 -0.88,-1.24 0.1,0.88 0.32,3.65 0.51,6.21 0.22,2.53 0.49,5.53 0.63,6.62l0.27 2 -0.83 1.49 -0.8 1.48 -0.17 -1.78c-0.07,-0.97 -0.34,-3.96 -0.56,-6.64 -0.46,-5.8 -0.63,-6.75 -1.07,-6.89 -0.49,-0.17 -0.22,4.23 0.68,10.78l0.71 5.12 -1.07 1.7c-1.88,3.04 -1.73,3.26 -1.78,-2.46 -0.05,-4.48 -0.2,-6.13 -0.66,-7.72 -0.29,-0.95 -0.58,-0.29 -0.58,1.34 0,2.05 0.68,11.62 0.85,11.88 0.14,0.25 -1.97,3.19 -5.38,7.43 -9.96,12.47 -23.65,23.82 -38.28,31.75 -4.58,2.49 -14.47,6.87 -16.05,7.11 -0.49,0.1 -1.29,-1.21 -7.38,-11.81 -3.75,-6.55 -6.81,-11.98 -6.81,-12.05 0,-0.34 3.96,-1.51 5.84,-1.73 11.96,-1.48 24.16,-5.23 36.7,-11.32 5.72,-2.78 8.25,-4.21 11.88,-6.77 5.94,-4.19 15.58,-11.71 17,-13.3 2.53,-2.8 -0.13,-1.65 -9.21,3.97 -3.21,2 -7.77,4.83 -10.1,6.29 -7.43,4.6 -17.49,9.44 -26.79,12.93 -4.19,1.55 -10.91,3.7 -11.08,3.53 -0.05,-0.05 0.8,-0.64 1.9,-1.29 13.56,-8.04 26.71,-19.82 35.97,-32.15 6.59,-8.81 10.64,-16.14 15.31,-27.88 1.1,-2.75 2.12,-5.26 2.27,-5.6 0.29,-0.68 0.19,-1 2.75,9.01 0.63,2.49 1.26,4.73 1.41,4.99 0.56,1 0.41,-0.29 -0.41,-4.4 -1,-4.8 -1.88,-7.97 -2.71,-9.67l-0.58 -1.22 1.05 -2.82c1.21,-3.24 1.77,-5.31 1.53,-5.55 -0.32,-0.3 -0.9,0.73 -4.46,7.96 -9.86,19.99 -11.29,22.62 -16.26,29.56 -3.87,5.4 -7.4,9.57 -12.64,14.93 -11.18,11.37 -22.74,19.87 -36.43,26.73l-4.06 2.02 -0.76 -1.24c-0.39,-0.7 -2.61,-4.45 -4.87,-8.33 -2.29,-3.89 -4.87,-8.2 -5.75,-9.61l-1.58 -2.54 2.68 -2.7c7.13,-7.11 14.44,-16.34 21.01,-26.54l2.51 -3.9 2 -1.14c5.01,-2.9 13.17,-9.35 19.16,-15.15 7.16,-6.91 11.08,-11.69 14.88,-18.07 2.58,-4.33 6.87,-12.39 7.5,-14.07l0.44 -1.19 0.36 0.56c1.22,1.82 3.95,4.43 4.12,3.92 0.22,-0.66 -3.73,-5.82 -4.75,-6.21 -0.56,-0.22 -0.71,0.05 -0.36,0.61 0.26,0.43 0.17,0.63 -0.88,1.87 -0.66,0.76 -3.53,4.77 -6.38,8.94 -2.85,4.14 -6.19,8.86 -7.4,10.44 -5.34,7.02 -13.74,15.54 -22.92,23.16 -4.19,3.48 -3.99,3.39 -3.11,1.8 7.57,-13.54 12.63,-25.93 16.72,-40.88 0.73,-2.66 1.64,-6.19 1.98,-7.84 0.36,-1.63 0.7,-3.14 0.75,-3.34 0.07,-0.22 1.05,0.59 2.73,2.22 3.04,2.97 7.67,6.69 7.79,6.3 0.15,-0.43 -0.78,-1.55 -3.29,-3.92 -2.55,-2.41 -6.33,-5.35 -6.86,-5.35 -0.22,0 -0.27,-0.17 -0.17,-0.56 0.07,-0.29 0.46,-3.29 0.87,-6.63 0.42,-3.36 0.81,-6.57 0.88,-7.16l0.15 -1.04 3.43 3.38c4.77,4.7 8.45,7.6 8.45,6.67 0,-0.36 -3.07,-3.53 -5.53,-5.69 -2.17,-1.9 -5.67,-4.65 -6.16,-4.85 -0.1,-0.05 -0.05,-1.51 0.15,-3.24 0.41,-4.16 0.44,-7.01 0.05,-6.89 -0.54,0.2 -1.12,2.73 -3.85,16.27 -2.92,14.63 -4.24,19.84 -7.53,29.7 -5.55,16.64 -12.15,30.1 -22.35,45.61 -3.77,5.75 -6.38,9.33 -12.69,17.41l-4.99 6.43 -0.97 -1.56c-2.36,-3.72 -5.94,-9.15 -8.23,-12.51 -2.41,-3.53 -2.46,-3.63 -2.17,-4.36 0.83,-1.93 3.41,-9.86 4.21,-12.91 3.22,-12.25 5.29,-28.95 5.29,-42.73 0,-2.66 0.09,-3.36 0.73,-5.6 1.26,-4.36 3.82,-14.56 4.6,-18.27 2.9,-14.07 3.17,-21.45 1.22,-36.74 -0.56,-4.29 -1.17,-7.13 -1.56,-7.11 -0.51,0 -0.63,2.09 -0.85,16.1 -0.22,15.14 -0.32,16.5 -1.59,24.71 -0.58,3.8 -2.85,15.76 -2.94,15.63 -0.03,-0.02 -0.22,-1.85 -0.44,-4.06 -1.63,-16.1 -6.06,-34.02 -11.54,-46.51 -0.68,-1.54 -1.2,-2.85 -1.15,-2.9 0.08,-0.05 1.03,0.2 2.12,0.54 1.83,0.56 4.48,1.12 7.18,1.48 1.56,0.22 1.49,-0.27 -0.09,-0.7 -0.78,-0.22 -2.73,-0.78 -4.34,-1.22 -1.6,-0.46 -3.5,-0.9 -4.21,-1 -1.22,-0.15 -1.29,-0.22 -1.73,-1.17 -0.24,-0.54 -0.41,-1.02 -0.36,-1.07 0.02,-0.05 2.11,0.24 4.65,0.66 5.74,0.92 8.11,1.21 8.25,0.97 0.15,-0.24 -0.61,-0.44 -5.62,-1.53 -2.17,-0.47 -4.75,-0.93 -5.77,-1.03 -1.03,-0.07 -1.95,-0.22 -2.05,-0.31 -0.19,-0.12 -1.8,-3.31 -1.8,-3.53 0,-0.05 0.88,0.17 1.92,0.46 3.68,1.07 10.25,2.22 10.25,1.8 0,-0.12 -0.73,-0.41 -1.63,-0.68 -5.09,-1.51 -7.91,-2.27 -9.4,-2.53 -1.43,-0.25 -1.73,-0.37 -2.02,-0.95 -0.41,-0.81 -0.34,-0.83 1.58,-0.32 1.42,0.37 7.85,1.44 10.33,1.71 0.9,0.09 1.39,0.07 1.39,-0.1 0,-0.32 -0.37,-0.42 -8.04,-2.1 -3.41,-0.75 -6.26,-1.41 -6.31,-1.46 -0.14,-0.14 -1.21,-2.55 -1.14,-2.55 0.05,0 2.75,0.53 6.01,1.21 5.87,1.2 9.65,1.73 8.62,1.22 -0.46,-0.22 -11.05,-2.8 -14,-3.41 -1.31,-0.24 -1.36,-0.29 -2.14,-1.75 -0.44,-0.81 -0.75,-1.51 -0.71,-1.56 0.05,-0.05 0.47,0.02 0.95,0.17 2.49,0.68 9.09,1.9 9.28,1.7 0.24,-0.24 -0.41,-0.46 -6.77,-2.09 -2.41,-0.63 -4.43,-1.22 -4.5,-1.34 -0.08,-0.1 -0.51,-0.17 -0.98,-0.14 -0.46,0 -1.36,-0.08 -1.99,-0.18 -1.76,-0.29 -1.46,0.22 0.43,0.81 0.88,0.27 1.73,0.49 1.9,0.49 0.17,0 0.52,0.75 0.81,1.7l0.48 1.7 -0.51 -0.12c-1.02,-0.24 -2.46,-0.24 -2.55,0 -0.08,0.12 0.61,0.42 1.51,0.61 0.87,0.22 1.7,0.49 1.82,0.61 0.12,0.15 0.42,0.78 0.61,1.44l0.42 1.17 -1.1 -0.17c-0.88,-0.13 -1.1,-0.08 -1.1,0.19 0,0.24 0.44,0.46 1.22,0.66 0.68,0.17 1.32,0.46 1.44,0.7 0.44,0.78 7.79,20.92 8.86,24.26 4.09,12.56 7.06,27.59 8.26,41.51 0.41,4.95 0.41,22.02 0,26.79 -0.78,8.79 -1.98,17.14 -3.46,24.11 -0.93,4.4 -3.14,13.19 -3.39,13.46 -0.09,0.1 -1.87,-2.09 -3.94,-4.87 -6.62,-8.91 -13.22,-17.02 -21.82,-26.88l-3.94 -4.55 0.24 -4.95c0.27,-5.45 0,-14.46 -0.63,-21.89 -1.73,-19.99 -5.87,-40.2 -11.45,-55.88 -2.38,-6.7 -4.77,-11.13 -12.76,-23.55 -4.62,-7.21 -6.84,-10.1 -6.84,-8.96 0,0.78 2.31,5.62 7.13,15.05 6.53,12.76 6.99,13.76 9.06,19.8 5.82,17.11 9.86,36.98 11.93,58.75 0.35,3.7 1.37,19.22 1.27,19.31 -0.02,0 -2.99,-3.21 -6.62,-7.18 -3.61,-3.97 -12.4,-13.08 -19.53,-20.26l-12.93 -13.03 -0.42 -3.16c-1.75,-13.64 -5.77,-29.54 -11.12,-44.08 -2.71,-7.33 -3.97,-9.76 -11.23,-21.55 -3.38,-5.53 -5.48,-8.52 -5.94,-8.52 -0.17,0 -0.32,0.05 -0.32,0.12 0,0.63 2.61,6.31 6.63,14.49 6.89,13.98 10,21.87 14.19,36.04 1.71,5.75 6.21,23.69 6.21,24.74 0,0.12 -1.29,-1.05 -2.85,-2.61 -3.21,-3.16 -11.39,-10.74 -15.65,-14.49 -3.32,-2.89 -10.09,-8.42 -18.07,-14.78 -5.41,-4.26 -5.8,-4.65 -6.04,-5.6 -1.93,-7.52 -4.94,-15.78 -7.82,-21.38 -1.58,-3.06 -5.53,-8.52 -10.91,-15.04 -3.36,-4.1 -4.55,-5.34 -4.82,-5.05 -0.31,0.32 1.07,2.71 6.53,11.25 2.99,4.68 6.13,9.87 6.96,11.55 1.39,2.8 7.23,16.8 7.06,16.94 -0.02,0.05 -3.06,-2.24 -6.74,-5.04 -3.68,-2.82 -7.53,-5.69 -8.52,-6.35 -1,-0.68 -3.85,-2.85 -6.34,-4.82 -5.67,-4.51 -8.69,-6.63 -15.58,-10.91 -7.82,-4.85 -18.43,-10.55 -19.63,-10.52 -0.99,0.02 0.05,0.75 19.39,13.51 9.79,6.46 10.66,7.11 14.61,10.96 3.8,3.7 8.93,8.47 20.82,19.36 11.44,10.47 18.24,16.9 17.94,17 -0.12,0.02 -2.41,-0.49 -5.06,-1.17 -15.42,-3.97 -18.05,-4.9 -34.43,-11.86 -8.14,-3.48 -13.06,-5.43 -13.64,-5.43 -0.61,0 -0.1,0.58 1.53,1.65 4.14,2.8 18.8,10.33 24.31,12.47 7.81,3.05 20.5,6.04 27.51,6.5l2.44 0.15 12 12.2c14.39,14.66 23.4,24.11 26.81,28.12l0.49 0.56 -0.98 -0.14c-0.53,-0.08 -4.65,-0.54 -9.13,-1 -23.69,-2.48 -37.33,-5.09 -51.13,-9.81 -7.31,-2.51 -10.94,-4.14 -25.81,-11.64 -10.72,-5.38 -12.79,-6.33 -13.03,-5.94 -0.32,0.53 5.21,4.28 14.54,9.88 6.47,3.87 13.41,7.48 17.97,9.3 10.42,4.19 25,7.87 37.74,9.48l1.58 0.19 -2.07 1.12c-1.14,0.63 -3.26,1.75 -4.75,2.53 -5.35,2.8 -7.23,4.02 -6.16,4.02 0.44,0 7.87,-3.9 11.01,-5.79l2.9 -1.76 2.77 0.29c1.51,0.15 2.76,0.35 2.76,0.42 0,0.14 -6.99,3.99 -11.38,6.26 -1.24,0.63 -2.26,1.31 -2.26,1.48 0,0.44 0.36,0.32 3.58,-1.07 2.43,-1.07 8.25,-4.5 10.13,-5.97l0.9 -0.73 3.24 0.3c1.75,0.17 6.84,0.34 11.25,0.39l8.03 0.09 1.32 1.39c2.58,2.78 11.86,13.69 15.56,18.31 2.07,2.61 6.13,7.87 9.01,11.69l5.23 6.96 -1.92 0.2c-1.05,0.12 -5.75,0.15 -10.45,0.07 -26.54,-0.41 -49.82,-3.67 -69.37,-9.76 -4.09,-1.27 -10.37,-3.56 -10.37,-3.78 0,-0.07 1.12,-0.51 2.5,-0.95 2.24,-0.75 12.47,-5.74 14.91,-7.28 2.16,-1.36 0.07,-0.65 -5.17,1.73 -12,5.51 -12.76,5.87 -12.63,6.19 0.12,0.26 -0.73,-0.05 -5.48,-2.12 -4.12,-1.78 -12.4,-5.68 -12.4,-5.82 0,-0.1 0.95,-0.42 2.15,-0.73 1.16,-0.34 3.38,-1 4.94,-1.51 4.7,-1.56 14.83,-6.28 13.85,-6.5 -0.21,-0.03 -2.5,0.8 -5.11,1.87 -2.63,1.07 -6.72,2.61 -9.13,3.44 -2.41,0.82 -5.19,1.82 -6.16,2.24l-1.78 0.73 -4.97 -2.39c-2.75,-1.32 -4.94,-2.41 -4.92,-2.44 0.03,-0.02 2.07,-0.77 4.56,-1.68 4.26,-1.53 14.68,-5.99 18.38,-7.86 4.12,-2.07 0.2,-0.71 -11.39,3.94 -6.87,2.76 -12.57,5.02 -12.71,5.02 -0.13,0 -1.05,-0.34 -2.05,-0.73 -3.19,-1.29 -3.29,-0.9 -0.32,1.14 5.75,3.97 20.65,12.16 28.79,15.78 7.16,3.22 15.68,6.04 24.76,8.19 1.92,0.46 3.43,0.92 3.41,1.07 -0.05,0.12 -1.29,1.07 -2.75,2.07 -3.09,2.11 -4.9,3.55 -4.7,3.77 0.17,0.15 5.82,-3.58 7.47,-4.92l1.08 -0.87 3.92 0.75c14.63,2.82 27.27,3.99 43.14,4.02 8.82,0 13.35,-0.25 17.66,-0.98 1.26,-0.19 2.53,-0.39 2.8,-0.41 0.53,-0.02 4.5,5.41 12.15,16.53 3.94,5.77 13.44,20.31 13.71,20.97 0.1,0.27 -0.17,0.34 -1.17,0.34 -0.73,0 -2.24,0.12 -3.38,0.24 -24.74,2.83 -40.82,3.32 -57.23,1.81 -13.54,-1.25 -28.42,-4.53 -40.91,-9.04 -1.68,-0.61 -3.11,-1.17 -3.21,-1.26 -0.1,-0.1 1.7,-0.86 4.02,-1.71 5.16,-1.9 12.59,-5.53 12.59,-6.16 0,-0.32 -0.17,-0.27 -4,1.49 -2.02,0.92 -5.18,2.24 -7.03,2.94 -1.86,0.68 -4.19,1.63 -5.19,2.07l-1.83 0.83 -1.31 -0.51c-0.73,-0.27 -1.34,-0.59 -1.34,-0.66 0,-0.07 1.41,-0.68 3.11,-1.36 5,-1.95 15.15,-7.26 15.15,-7.94 0,-0.12 -0.05,-0.22 -0.12,-0.22 -0.07,0 -2.29,1 -4.92,2.22 -2.65,1.21 -5.48,2.48 -6.28,2.82 -0.81,0.34 -3,1.36 -4.85,2.31l-3.41 1.68 -2.87 -1.26c-1.58,-0.71 -2.8,-1.37 -2.7,-1.44 0.12,-0.1 1.73,-0.58 3.6,-1.07 1.88,-0.49 4.46,-1.32 5.72,-1.83 3.41,-1.36 8.77,-3.97 8.77,-4.23 0,-0.32 -0.9,-0.05 -4.51,1.34 -1.72,0.68 -5.3,1.92 -7.91,2.75 -2.61,0.83 -5.31,1.73 -5.99,2.02l-1.27 0.51 -1.51 -0.73c-0.85,-0.39 -1.48,-0.76 -1.43,-0.8 0.05,-0.05 1.48,-0.71 3.19,-1.44 2.85,-1.22 13.2,-6.7 15.78,-8.33 0.61,-0.39 0.95,-0.73 0.78,-0.8 -0.42,-0.12 -5.56,2.26 -14.05,6.55l-7.07 3.55 -2.11 -0.97c-1.2,-0.54 -2.15,-1.05 -2.15,-1.15 0,-0.07 0.9,-0.51 2.02,-0.97 4.48,-1.83 15.27,-7.3 17.07,-8.64 1.25,-0.95 -0.19,-0.49 -3.8,1.21 -2.19,1.05 -5.33,2.49 -7.01,3.22 -1.68,0.73 -4.5,2.09 -6.3,3.02l-3.27 1.7 -5.26 -2.41c-6.06,-2.77 -8.71,-3.85 -8.96,-3.6 -0.24,0.24 0.44,0.73 3.44,2.53 7.03,4.21 23.42,12.74 29.48,15.34 10.69,4.6 24.87,8.5 38.6,10.64 2.19,0.34 4.02,0.66 4.04,0.68 0.24,0.22 -18.46,6.55 -22.43,7.6 -4.26,1.12 -6.01,1.41 -16.92,2.68 -10.35,1.22 -12.25,1.51 -12.1,1.92 0.14,0.49 3.55,0.59 11.61,0.37 9.04,-0.25 12.86,-0.63 16.81,-1.66 6.86,-1.77 17.87,-6.11 24.2,-9.54l1.92 -1.03 3.44 0.27c10.78,0.93 24.2,0.98 33.75,0.17 10.78,-0.9 22.96,-2.77 26.71,-4.11l1.05 -0.37 4.94 7.96c5.6,8.97 11.95,19.53 11.81,19.63 -0.2,0.15 -11.45,3.65 -14.81,4.63 -13.24,3.85 -28.02,6.69 -41.39,8.03 -11.47,1.15 -19.48,1.34 -34.36,0.78 -11.76,-0.44 -18.97,-0.51 -18.97,-0.17 0,0.34 3.87,0.95 11.81,1.85 10.91,1.22 15.34,1.56 21.92,1.73 10.56,0.29 23.62,-0.78 36.16,-2.97 14.29,-2.48 31.07,-7.62 38.88,-11.91l1.51 -0.82 1.2 1.99c0.65,1.1 1.34,2.24 1.48,2.54 0.25,0.48 -0.24,1.21 -5.11,7.67 -5.65,7.47 -7.53,9.83 -10.18,12.83l-1.61 1.8 -0.24 -3.43c-0.24,-3.22 -0.41,-4 -0.76,-3.66 -0.07,0.1 -0.17,2 -0.24,4.27l-0.1 4.09 -1.36 1.21 -1.39 1.22 0.15 -0.85c0.36,-2.02 0.73,-9.77 0.49,-10.01 -0.2,-0.19 -0.32,-0.05 -0.42,0.44 -0.27,1.29 -1.12,8.96 -1.12,10.1 0,1.08 -0.07,1.17 -1.27,2.12 -0.68,0.56 -1.29,0.98 -1.33,0.9 -0.05,-0.04 0.02,-0.99 0.17,-2.11 0.31,-2.59 0.34,-8.45 0.02,-8.11 -0.22,0.19 -1,5.82 -1.36,9.88 -0.15,1.56 -0.2,1.66 -1.27,2.54l-1.12 0.92 0.17 -0.95c0.24,-1.44 0.83,-7.18 1.02,-10.06 0.1,-1.68 0.08,-2.48 -0.09,-2.48 -0.15,0 -0.32,0.29 -0.39,0.68 -0.32,1.46 -1.12,7.6 -1.42,10.52l-0.26 3.09 -1.44 1.17c-0.8,0.64 -1.49,1.1 -1.53,1.05 -0.05,-0.05 0.04,-0.97 0.26,-2.02 0.44,-2.46 0.76,-10.08 0.39,-9.74 -0.29,0.27 -1.43,7.65 -1.65,10.74 -0.17,1.99 -0.2,2.09 -1.03,2.77 -0.48,0.39 -0.9,0.69 -0.92,0.66 -0.03,-0.02 0.15,-1.09 0.39,-2.36 0.46,-2.36 1.31,-11.66 1.09,-11.88 -0.38,-0.39 -0.65,0.75 -1.43,6.11 -0.34,2.17 -0.73,5.14 -0.88,6.6 -0.29,2.53 -0.34,2.7 -1.12,3.48 -0.83,0.83 -0.92,1.41 -0.17,1.12 0.29,-0.12 0.37,-0.05 0.27,0.19 -0.07,0.2 -0.32,1.22 -0.56,2.29 -0.39,1.9 -0.44,1.98 -1.37,2.36 -0.51,0.22 -0.94,0.39 -0.94,0.37 0,-0.02 0.21,-1.1 0.48,-2.36 0.54,-2.61 0.59,-3.17 0.27,-3.17 -0.12,0 -0.54,1.32 -0.93,2.95 -0.48,2.09 -0.8,2.99 -1.12,3.16 -0.24,0.15 -0.53,0.22 -0.63,0.18 -0.19,-0.08 0.37,-2.22 1.83,-7.16 0.31,-1.1 0.58,-2.39 0.58,-2.88 0,-0.48 0.27,-2.94 0.59,-5.45 0.82,-6.31 0.97,-8.33 0.68,-8.33 -0.12,0 -0.29,0.24 -0.37,0.54 -0.19,0.75 -2.12,11.2 -2.12,11.44 0,0.12 -0.21,0.1 -0.51,-0.07 -0.29,-0.15 -0.95,-0.22 -1.48,-0.17 -0.95,0.09 -0.98,0.09 -0.83,-0.66 0.27,-1.27 0.88,-7.01 0.88,-8.23 0,-2.31 -0.42,-1.02 -1.37,4.14l-0.95 5.26 -1.31 0.44 -1.29 0.46 0.14 -0.8c0.27,-1.46 0.73,-8.92 0.56,-9.09 -0.36,-0.36 -0.53,0.34 -1.16,5.17 -0.39,2.77 -0.71,5.06 -0.76,5.08 -0.17,0.18 -3.43,1.1 -3.53,1 -0.05,-0.05 0.07,-1.07 0.27,-2.24 0.85,-5.04 1.04,-7.64 0.53,-7.13 -0.07,0.07 -0.51,2.07 -0.99,4.48 -0.49,2.41 -0.93,4.63 -0.98,4.89 -0.1,0.42 -0.41,0.61 -1.34,0.83 -0.68,0.17 -1.29,0.27 -1.34,0.22 -0.05,-0.05 0.08,-1.36 0.25,-2.9 0.48,-4.21 0.56,-5.35 0.31,-5.35 -0.31,0 -0.39,0.26 -1.12,4.62l-0.66 4.02 -2.02 0.46c-1.12,0.25 -2.04,0.42 -2.09,0.37 -0.05,-0.05 0.02,-1.58 0.17,-3.41 0.24,-3.34 0.15,-4.68 -0.34,-3.82 -0.12,0.21 -0.49,2.04 -0.78,4.01l-0.54 3.61 -0.92 0.14 -0.95 0.15 0.15 -1.85c0.43,-6.09 0.43,-6.16 0.12,-6.06 -0.42,0.14 -0.61,1.04 -0.98,4.82 -0.14,1.68 -0.41,3.11 -0.56,3.21 -0.14,0.1 -0.63,0.2 -1.07,0.2 -0.68,0 -0.78,-0.08 -0.66,-0.56 0.49,-2.22 0.78,-7.48 0.42,-7.48 -0.32,0 -1.51,5.99 -1.51,7.57 0,0.54 -0.12,0.71 -0.46,0.71 -0.27,0 -0.66,0.07 -0.91,0.17 -0.34,0.12 -0.38,0.07 -0.24,-0.32 0.2,-0.48 0.85,-6.94 0.88,-8.32 0,-1.08 -0.42,-1 -0.71,0.12 -0.31,1.24 -0.97,5.74 -1.05,7.25l-0.07 1.22 -1.22 0.17c-0.65,0.1 -1.24,0.12 -1.29,0.07 -0.05,-0.04 0.15,-1.75 0.47,-3.74 0.51,-3.37 0.51,-4.56 0,-3.71 -0.25,0.39 -1.22,4.8 -1.42,6.41l-0.14 1.17 -1.07 0c-1.03,0 -1.1,-0.05 -0.95,-0.56 0.17,-0.76 0.82,-6.33 0.92,-7.97 0.05,-0.75 -0.02,-1.41 -0.17,-1.46 -0.27,-0.14 -1.07,3.19 -1.73,7.26l-0.44 2.73 -1.19 0c-1.12,0 -1.19,-0.03 -1.07,-0.54 0.41,-1.75 0.93,-5.58 0.85,-6.4l-0.1 -0.98 -0.29 0.68c-0.24,0.59 -0.53,1.78 -1.63,6.68 -0.1,0.39 -0.32,0.56 -0.73,0.56l-0.61 0 0.17 -3.7c0.1,-2.63 0.08,-3.63 -0.12,-3.51 -0.34,0.19 -0.53,1.12 -0.88,4.26l-0.29 2.58 -1.53 0.07c-1.34,0.08 -1.54,0.03 -1.39,-0.31 0.19,-0.56 0.8,-3.02 0.97,-4.09 0.1,-0.56 0.08,-0.9 -0.07,-0.9 -0.34,0 -0.95,1.46 -1.44,3.5l-0.39 1.68 -1.97 -0.17c-2.58,-0.22 -8.76,-1.09 -9.42,-1.34 -0.44,-0.17 -0.2,-0.44 2.19,-2.29 3.9,-3.06 4.77,-4.31 2.82,-3.99 -0.43,0.07 -0.82,0.05 -0.87,-0.07 -0.05,-0.12 -1.49,-0.49 -3.24,-0.85 -4.77,-0.95 -15.17,-3.75 -15.76,-4.27 -0.12,-0.07 1.27,-1.41 3.05,-2.92 1.75,-1.53 4.19,-3.72 5.36,-4.87 2.5,-2.41 5.67,-6.04 5.43,-6.26 -0.08,-0.07 -1,0.64 -2.03,1.61 -1.04,0.95 -3.53,3.19 -5.55,4.99 -1.99,1.78 -4.01,3.66 -4.48,4.19 -0.46,0.51 -1.26,1.41 -1.78,2l-0.94 1.04 -2.25 -0.75c-1.24,-0.39 -3.36,-1.14 -4.72,-1.66l-2.46 -0.9 3.43 -2.72c3.63,-2.88 8.58,-7.63 8.43,-8.09 -0.12,-0.34 -7.79,5.87 -10.62,8.6l-2.02 1.92 -2.72 -1.17c-2.56,-1.09 -6.94,-3.21 -7.72,-3.75 -0.47,-0.29 0.26,-0.66 4.35,-2.12 3.8,-1.34 4.87,-2.14 4.87,-3.58 0,-1.46 -0.82,-2.11 -5.64,-4.5 -2.46,-1.22 -4.66,-2.36 -4.9,-2.53 -0.41,-0.32 -0.24,-0.51 2.02,-2.49 3.61,-3.14 7.77,-7.35 11.11,-11.22 4.14,-4.82 6.69,-7.99 6.52,-8.14 -0.14,-0.14 -2.34,2.07 -10.13,10.33 -3.02,3.21 -6.65,6.96 -8.06,8.35l-2.53 2.53 -3.02 -1.92c-1.66,-1.05 -3.02,-2.02 -3.02,-2.17 0,-0.14 0.83,-0.95 1.83,-1.8 2.68,-2.26 13.63,-13.2 13.63,-13.59 0,-0.22 -0.26,-0.09 -0.78,0.32 -1.31,1.1 -12.63,11.66 -14.07,13.12 -0.73,0.76 -1.41,1.37 -1.53,1.37 -0.35,0 -2.85,-1.8 -2.78,-2 0.02,-0.1 1.07,-1 2.31,-1.97 2.66,-2.14 10.42,-9.33 10.64,-9.86 0.08,-0.2 0.1,-0.42 0.05,-0.47 -0.12,-0.12 -7.69,6.21 -10.64,8.89 -1.29,1.17 -2.53,2.32 -2.8,2.54 -0.49,0.38 -0.56,0.36 -2.02,-0.78l-1.53 -1.17 1.41 -0.98c2.46,-1.7 11.42,-9.49 11.18,-9.74 -0.25,-0.24 -5.24,3.53 -10.38,7.82 -1.53,1.29 -2.85,2.36 -2.92,2.36 -0.07,0 -0.66,-0.46 -1.29,-1.05l-1.17 -1.02 2.73 -1.58c4.04,-2.34 8.98,-6.09 8.03,-6.09 -0.17,0 -1.46,0.76 -2.89,1.66 -1.44,0.92 -3.27,2.02 -4.07,2.46 -0.8,0.46 -2.12,1.34 -2.95,1.97l-1.46 1.14 -0.78 -0.68 -0.78 -0.7 1.54 -1.03c1.8,-1.21 7.45,-5.84 7.47,-6.11 0,-0.1 -0.09,-0.17 -0.24,-0.17 -0.41,0 -4.19,2.68 -6.77,4.8l-2.51 2.07 -1.39 -1.22c-2.24,-1.95 -3.09,-2.95 -2.82,-3.21 0.15,-0.15 1.92,-0.69 3.94,-1.2 4.29,-1.09 5.14,-1.53 5.6,-2.75 0.54,-1.41 -0.07,-2.36 -3.11,-4.72 -5.65,-4.39 -16.44,-15.37 -22.43,-22.8 -1.05,-1.31 -1.92,-2.48 -1.92,-2.58 0,-0.09 1.12,-0.61 2.51,-1.12 3.7,-1.43 11.46,-5.48 13.66,-7.08 0.68,-0.51 0.29,-0.73 -0.64,-0.37 -4.38,1.76 -13,5.82 -15.19,7.16l-1.02 0.63 -0.64 -0.85c-0.61,-0.78 -0.63,-0.87 -0.22,-1.02 3.46,-1.24 11.76,-5.24 11.76,-5.67 0,-0.15 -0.07,-0.25 -0.14,-0.25 -0.37,0 -7.5,3.09 -9.81,4.24l-2.61 1.31 -1.31 -1.92c-0.71,-1.05 -1.25,-1.97 -1.17,-2.04 0.05,-0.08 1.09,-0.3 2.29,-0.49 2.63,-0.46 6.42,-1.68 7.28,-2.36 0.51,-0.42 0.58,-0.56 0.31,-0.86 -0.17,-0.19 -0.56,-0.46 -0.85,-0.58 -0.78,-0.29 -3.75,-4.9 -6.14,-9.47l-1.94 -3.78 5.89 -2.02c11.52,-3.99 22.21,-8.33 20.45,-8.33 -0.17,0 -1.68,0.52 -3.41,1.12 -1.7,0.61 -5.62,2 -8.71,3.07 -3.07,1.07 -7.53,2.7 -9.89,3.63 -2.34,0.93 -4.38,1.68 -4.53,1.68 -0.27,0 -1.68,-2.9 -3.36,-6.96 -1.05,-2.49 -3.6,-9.87 -3.46,-9.99 0.05,-0.05 1.37,0.32 2.93,0.78 3.09,0.95 3.72,0.95 4.7,-0.02 0.94,-0.95 0.8,-2.15 -0.66,-5.07 -1.66,-3.24 -6.11,-14.34 -5.9,-14.56 0.13,-0.07 2.39,-0.83 5.07,-1.68 6.16,-1.9 8.33,-2.7 14.37,-5.36 6.45,-2.82 10.83,-4.89 10.83,-5.13 0,-0.13 -0.05,-0.22 -0.12,-0.22 -0.07,0 -4.04,1.58 -8.84,3.5 -4.8,1.95 -11.44,4.56 -14.78,5.85 -3.36,1.26 -6.26,2.36 -6.5,2.46 -0.32,0.12 -0.51,-0.15 -0.93,-1.27 -0.82,-2.19 -3.65,-10.88 -3.65,-11.2 0,-0.22 0.37,-0.15 1.15,0.19 2.07,0.88 5.94,1.93 6.57,1.78 0.51,-0.14 0.58,-0.27 0.44,-0.8 -0.07,-0.34 -0.59,-3.87 -1.1,-7.84 -1,-7.72 -1.87,-14.05 -2.09,-15.15 -0.1,-0.49 -0.05,-0.66 0.24,-0.66 0.22,0 0.39,-0.17 0.39,-0.39 0,-0.24 -0.14,-0.34 -0.36,-0.24 -0.44,0.17 -0.47,0.15 -1.22,-5.33 -0.76,-5.19 -1.02,-8.4 -0.71,-8.4 0.34,0 3.92,2.34 5.58,3.65 0.83,0.63 1.7,1.27 2,1.44 1.8,0.95 3.89,-0.86 3.28,-2.88 -0.14,-0.46 -0.24,-0.87 -0.22,-0.87 0.03,-0.03 1.2,-0.59 2.61,-1.22 4.8,-2.22 9.25,-4.75 8.35,-4.75 -0.34,0 -9.69,4.26 -10.49,4.77 -0.3,0.2 -0.64,0.32 -0.76,0.25 -0.22,-0.15 -0.87,-2.32 -0.73,-2.41 0.05,-0.03 0.8,-0.39 1.68,-0.78 3.29,-1.49 6.36,-3.34 6.06,-3.66 -0.12,-0.09 -4.52,1.93 -8.03,3.73 -0.12,0.05 -0.71,-1.58 -0.71,-2 0,-0.07 0.12,-0.14 0.29,-0.14 0.37,0 4.75,-2.61 4.97,-2.95 0.08,-0.15 0.1,-0.29 0.03,-0.36 -0.1,-0.13 -3.19,1.43 -4.73,2.36l-0.78 0.48 -0.51 -1.63c-0.27,-0.9 -0.46,-1.65 -0.44,-1.65 1.44,-0.61 2.88,-1.44 2.88,-1.63 0,-0.34 -1.22,-0.13 -2.27,0.39 -0.85,0.41 -1.04,0.34 -1.19,-0.49 -0.1,-0.51 0,-0.71 0.56,-0.98 1.14,-0.6 1.17,-0.95 0.02,-0.75l-0.99 0.15 -0.49 -1.64c-1.34,-4.55 -3.97,-15.65 -3.7,-15.65 0.09,0 1,0.61 1.99,1.36 3.15,2.36 4.41,2.78 5.68,1.78 0.85,-0.68 1.12,-1.78 0.73,-3.09 -0.15,-0.56 -1.51,-3.32 -3,-6.12 -1.48,-2.8 -2.7,-5.13 -2.7,-5.21 0,-0.07 1.05,-0.7 2.31,-1.39 2.07,-1.12 2.78,-1.7 2.07,-1.7 -0.14,0 -1.31,0.49 -2.6,1.1 -1.29,0.6 -2.36,1.07 -2.39,1.04 -0.19,-0.24 -0.88,-1.7 -0.8,-1.75 0.05,-0.05 0.66,-0.39 1.36,-0.75 2.51,-1.34 2.36,-1.95 -0.22,-0.88 -0.97,0.41 -1.78,0.73 -1.8,0.68 -0.02,-0.02 -0.39,-0.63 -0.8,-1.34 -0.44,-0.71 -0.78,-1.36 -0.78,-1.46 0,-0.1 0.34,-0.37 0.73,-0.58 0.41,-0.22 0.73,-0.54 0.73,-0.69 0,-0.31 -1.39,-0.31 -1.58,0 -0.3,0.49 -0.59,0.22 -1.83,-1.77 -3.31,-5.21 -8.5,-11.23 -12.13,-14.05 -0.95,-0.73 -1.7,-1.34 -1.68,-1.37 0.03,-0.02 1.9,-0.1 4.19,-0.19 4.02,-0.17 4.12,-0.17 3.7,0.29 -0.41,0.46 -0.56,1.02 -0.24,1.02 0.29,0 1.05,-0.8 1.05,-1.14 0,-0.25 0.8,-0.32 4.01,-0.32 5.19,0 9.94,0.51 16.17,1.73 5.21,1.02 6.31,1.07 7.48,0.29 1.39,-0.9 1.7,-3.09 0.8,-5.21 -0.29,-0.66 -0.46,-1.26 -0.39,-1.36 0.29,-0.27 13.81,1.07 13.81,1.39 0,0.09 -0.88,0.46 -1.95,0.82 -1.83,0.66 -2.41,1 -2.12,1.27 0.15,0.17 3.58,-0.97 4.75,-1.58 0.9,-0.44 0.95,-0.44 5.04,0.26 5.33,0.91 10.89,2.2 14.68,3.41 1.66,0.54 3.05,0.93 3.07,0.88 0.05,-0.05 0.2,-0.41 0.37,-0.8 0.22,-0.61 0.19,-1.17 -0.22,-3.14 -0.27,-1.32 -0.49,-2.54 -0.49,-2.73 0,-0.37 0.2,-0.34 4.26,0.53l0 0zm77.07 9.99c2.49,1.17 6.87,3.53 6.75,3.65 -0.03,0.05 -0.9,-0.15 -1.95,-0.41 -2.24,-0.56 -6.21,-1.2 -7.65,-1.2l-1.02 0 -0.17 -1.09c-0.07,-0.61 -0.07,-1.37 0,-1.73 0.15,-0.56 0.24,-0.61 0.95,-0.46 0.44,0.09 1.83,0.65 3.09,1.24l0 0zm-89.14 40.37c2.36,2 6.42,5.38 9.03,7.55 6.18,5.09 15.14,12.73 17.77,15.12 9.89,9.08 30.03,29.17 41.52,41.42 7.36,7.82 23.91,26.32 23.72,26.49 -0.1,0.1 -4.07,-0.26 -5.46,-0.48 -0.56,-0.1 -1.04,-0.54 -2.04,-1.83l-1.29 -1.7 1.78 0.14c0.99,0.08 2.04,0.2 2.33,0.27 0.86,0.17 0.88,-0.32 0.03,-0.61 -0.44,-0.12 -1.73,-0.41 -2.87,-0.63 -1.95,-0.34 -2.12,-0.44 -2.98,-1.41l-0.9 -1.03 1.83 -0.22c1,-0.09 1.8,-0.29 1.8,-0.39 0,-0.26 -2.94,-0.56 -3.68,-0.36 -0.53,0.12 -0.77,-0.05 -1.82,-1.36 -2,-2.54 -1.93,-2.37 -0.76,-2.15 1.39,0.27 3.63,0.27 3.49,0 -0.08,-0.12 -1.37,-0.51 -2.88,-0.87 -2.43,-0.61 -2.85,-0.78 -3.55,-1.56l-0.81 -0.88 1.59 -0.07c0.87,-0.05 1.6,-0.17 1.6,-0.27 0,-0.27 -1.24,-0.51 -2.67,-0.51 -1.13,0 -1.2,-0.05 -2.59,-1.61 -0.87,-1.02 -1.24,-1.56 -0.92,-1.46 0.24,0.07 1.05,0.24 1.78,0.39 1.82,0.34 2.14,-0.07 0.46,-0.61 -2.36,-0.78 -3.97,-1.61 -4.87,-2.51 -0.51,-0.48 -0.93,-0.97 -0.93,-1.07 0,-0.09 0.61,-0.19 1.34,-0.19 1.39,0 1.8,-0.37 0.73,-0.64 -0.31,-0.07 -1.09,-0.09 -1.7,-0.04l-1.12 0.07 -1.73 -1.9c-0.95,-1.05 -1.66,-1.95 -1.61,-2.02 0.08,-0.05 0.83,0.05 1.68,0.27 1.85,0.43 1.93,0.43 1.93,0.12 0,-0.12 -1.15,-0.59 -2.56,-1.02 -2.48,-0.76 -2.63,-0.83 -3.77,-2.17l-1.2 -1.37 1.02 0.2c1.37,0.27 1.88,0.27 1.88,0 0,-0.12 -0.83,-0.41 -1.85,-0.66 -1.83,-0.39 -1.9,-0.44 -3.48,-2.14 -9.72,-10.42 -36.09,-37.09 -42.76,-43.2 -3.97,-3.65 -12.96,-11.42 -18.46,-15.97 -1.44,-1.2 -2.61,-2.22 -2.61,-2.27 0,-0.24 2.56,1.76 6.56,5.14l0 0zm95.94 95.04c10.34,12.25 19.96,24.98 27.83,36.96 6.06,9.21 9.69,15.22 27.76,45.9 1.53,2.61 2.68,4.78 2.53,4.8 -0.15,0.05 -2.07,0 -4.29,-0.12l-4.01 -0.17 -0.54 -1 -0.56 -1 2.7 -0.17c1.51,-0.07 2.83,-0.22 2.95,-0.29 0.63,-0.39 -0.41,-0.58 -3.17,-0.58l-3.11 0 -0.78 -1.37 -0.78 -1.36 0.66 0.12c0.8,0.17 5.91,-0.58 5.91,-0.85 0,-0.37 -1.14,-0.46 -4.14,-0.39l-2.99 0.07 -0.8 -1.34 -0.78 -1.34 3.04 -0.17c1.66,-0.07 3.09,-0.22 3.19,-0.29 0.34,-0.37 -0.44,-0.51 -3.56,-0.66 -1.82,-0.09 -3.36,-0.17 -3.38,-0.19 -0.15,-0.08 -2.05,-3.48 -1.97,-3.53 0.09,-0.1 3.16,-0.59 4.77,-0.78 0.71,-0.1 1.34,-0.27 1.41,-0.37 0.15,-0.27 -3.97,-0.27 -5.6,0l-1.17 0.2 -0.8 -1.24c-1.56,-2.46 -1.83,-2.22 2.58,-2.15 2.68,0.08 3.87,0 3.87,-0.17 0,-0.14 -0.14,-0.27 -0.29,-0.29 -0.17,0 -2.07,-0.19 -4.21,-0.41l-3.87 -0.42 -0.66 -0.97 -0.66 -0.98 3.31 -0.26c3.75,-0.3 3.61,-0.27 3.36,-0.54 -0.09,-0.1 -1.77,-0.22 -3.75,-0.29l-3.55 -0.12 -0.83 -1.32 -0.83 -1.31 3.44 0.17c2.14,0.12 3.43,0.09 3.43,-0.05 0,-0.37 -0.83,-0.49 -4.21,-0.68l-3.1 -0.17 -1.09 -1.78 -1.07 -1.8 1.38 0.14c1.32,0.15 4.83,-0.19 5.12,-0.48 0.29,-0.3 -0.2,-0.39 -3.27,-0.54 -1.72,-0.1 -3.36,-0.24 -3.65,-0.37 -0.48,-0.17 -1.73,-1.92 -1.36,-1.92 0.1,0 1.48,0.22 3.09,0.49 1.61,0.27 3.29,0.49 3.73,0.49 1.75,0 0.34,-0.47 -3.58,-1.22 -3.92,-0.76 -4.12,-0.83 -4.53,-1.51 -0.22,-0.39 -0.37,-0.76 -0.32,-0.81 0.05,-0.04 1.63,-0.21 3.48,-0.36 4.9,-0.39 4.8,-0.76 -0.22,-0.73l-4.11 0.05 -0.71 -1.22 -0.68 -1.19 2.24 -0.17c2.66,-0.22 3.41,-0.37 3.22,-0.66 -0.08,-0.12 -1.49,-0.22 -3.15,-0.22l-2.99 0 -0.78 -1.22c-0.44,-0.68 -0.73,-1.29 -0.66,-1.36 0.08,-0.07 0.54,-0.03 1.07,0.12 1.42,0.39 5.43,0.63 5.43,0.32 0,-0.25 -0.51,-0.39 -4.94,-1.29 -2.43,-0.52 -2.65,-0.61 -3.09,-1.32 -0.27,-0.44 -0.49,-0.83 -0.49,-0.88 0,-0.04 0.9,-0.12 2.02,-0.14 5.14,-0.15 5.38,-0.83 0.34,-1l-3.23 -0.1 -0.49 -0.78c-0.27,-0.41 -0.68,-1.02 -0.9,-1.36l-0.39 -0.63 2.43 0.09c4.36,0.2 3.29,-0.63 -1.41,-1.07 -1.7,-0.14 -1.78,-0.17 -2.39,-1.14 -0.8,-1.19 -0.6,-1.39 1.51,-1.39 1.59,0 2.27,-0.15 2.27,-0.51 0,-0.12 -1.15,-0.22 -2.56,-0.22l-2.56 0 -0.73 -1.02c-0.39,-0.54 -0.73,-1.07 -0.73,-1.17 0,-0.22 1.64,-0.9 2.61,-1.1 0.44,-0.09 0.85,-0.24 0.92,-0.36 0.22,-0.34 -1.87,-0.54 -2.63,-0.27 -1.43,0.56 -1.77,0.39 -3.09,-1.56l-1.24 -1.83 2.14 -0.02c2.39,-0.02 3.56,-0.24 3.05,-0.56 -0.17,-0.1 -1.56,-0.19 -3.05,-0.19l-2.72 0.02 -0.78 -1.22c-0.44,-0.66 -0.81,-1.24 -0.81,-1.31 0,-0.08 1.27,-0.12 2.8,-0.12 1.54,0 2.8,-0.1 2.8,-0.22 0,-0.32 -0.9,-0.49 -3.89,-0.76 -2.49,-0.19 -2.58,-0.24 -3.22,-1 -0.39,-0.43 -0.68,-0.9 -0.68,-1.02 0,-0.12 0.63,-0.15 1.41,-0.07 3.9,0.39 5.17,0.44 5.17,0.19 0,-0.36 -0.49,-0.48 -4.14,-1 -2.95,-0.39 -3.29,-0.48 -3.83,-1.09 -0.29,-0.37 -0.56,-0.73 -0.56,-0.83 0,-0.1 1.05,-0.12 2.32,-0.1 1.38,0.08 2.31,0 2.31,-0.14 0,-0.3 -0.93,-0.49 -3.43,-0.68l-1.98 -0.18 -1.19 -1.6c-0.63,-0.88 -1.17,-1.68 -1.19,-1.78 0,-0.1 0.27,-0.07 0.61,0.05 0.63,0.24 4.6,0.97 5.31,0.97 0.21,0 0.41,-0.09 0.41,-0.22 0,-0.09 -1.68,-0.68 -3.73,-1.24 -2.68,-0.73 -3.82,-1.17 -4.04,-1.51 -0.27,-0.44 -0.24,-0.46 0.51,-0.31 1.63,0.29 4.85,0.51 4.97,0.34 0.15,-0.25 -1.05,-0.59 -3.56,-1.08 -1.14,-0.21 -2.31,-0.43 -2.6,-0.48 -0.44,-0.1 -2.63,-2.78 -2.41,-2.97 0.02,-0.03 0.41,0.05 0.88,0.17 1.53,0.44 4.67,0.78 4.94,0.51 0.27,-0.27 -0.29,-0.44 -4.19,-1.36 -1.41,-0.35 -2.65,-0.71 -2.8,-0.86 -0.34,-0.34 0.12,-0.31 2.53,0.25 2.44,0.56 2.44,0.56 2.44,0.24 0,-0.24 -2.07,-0.93 -4.39,-1.46 -2.48,-0.56 -2.16,-0.76 1.1,-0.59 4.09,0.2 3.85,-0.21 -0.44,-0.73 -1.7,-0.19 -3.21,-0.43 -3.33,-0.51 -0.1,-0.07 -0.59,-0.68 -1.08,-1.34l-0.87 -1.21 2.19 0c1.22,0 2.19,-0.1 2.19,-0.22 0,-0.3 -0.71,-0.44 -2.92,-0.66 -2.12,-0.2 -2.46,-0.34 -3.14,-1.27l-0.47 -0.68 2.95 0.07 2.97 0.05 3.27 3.85 0 0zm139.06 16.19c0,1.03 -1.92,6.33 -2.22,6.14 -0.12,-0.07 -0.21,-0.54 -0.21,-1.02 0,-1.07 -0.54,-3.39 -0.93,-4.07 -0.39,-0.68 -0.37,-0.34 0.22,3.09 0.53,3.29 0.53,3.58 -0.34,5.53l-0.59 1.32 -0.29 -3.39c-0.17,-1.85 -0.46,-4.07 -0.68,-4.92 -0.2,-0.85 -0.32,-1.58 -0.24,-1.65 0.19,-0.2 4.14,-1.27 4.74,-1.29 0.3,-0.03 0.54,0.12 0.54,0.26l0 0zm-5.89 2.68c0.14,0.85 0.39,2.41 0.53,3.48 0.37,2.68 0.76,4.58 0.98,4.87 0.09,0.13 -0.22,1.12 -0.73,2.2 -0.51,1.07 -0.95,1.75 -0.95,1.53 -0.27,-5.33 -0.61,-9.5 -0.88,-11.06 -0.19,-1.07 -0.36,-2.02 -0.36,-2.11 0,-0.13 0.43,-0.3 0.99,-0.39 0.1,0 0.3,0.65 0.42,1.48zm-85.3 71.49l2.85 4.92 -1.9 2.12c-3.05,3.39 -7.77,7.96 -10.86,10.57 -3.17,2.65 -7.48,5.94 -7.6,5.8 -0.02,-0.05 -0.19,-1.25 -0.34,-2.63 -0.15,-1.39 -0.39,-2.66 -0.54,-2.8 -0.22,-0.2 -0.26,0.48 -0.19,2.97l0.12 3.23 -0.71 0.52c-0.39,0.26 -0.75,0.46 -0.8,0.41 -0.05,-0.05 -0.19,-1.24 -0.34,-2.63 -0.12,-1.39 -0.34,-2.63 -0.46,-2.75 -0.34,-0.34 -0.64,3.14 -0.44,4.84 0.12,1.12 0.1,1.42 -0.27,1.68 -0.24,0.17 -0.51,0.35 -0.58,0.35 -0.1,0 -0.25,-1.03 -0.34,-2.25 -0.1,-1.24 -0.22,-2.36 -0.3,-2.48 -0.34,-0.51 -0.56,0.68 -0.56,2.95 0,2.29 -0.05,2.51 -0.53,2.85 -0.29,0.22 -0.64,0.39 -0.71,0.39 -0.1,0 -0.24,-0.73 -0.34,-1.66 -0.22,-2.46 -0.36,-3.21 -0.61,-3.21 -0.14,0 -0.24,1.19 -0.24,2.8l0 2.8 -0.78 0.48 -0.8 0.49 -0.08 -1.7c-0.05,-0.95 -0.17,-1.71 -0.27,-1.71 -0.12,0 -0.31,0.88 -0.41,1.95 -0.22,1.87 -0.27,2 -1,2.46l-0.8 0.51 0 -1.87c0,-2.27 -0.39,-2.24 -0.61,0.07 -0.22,2.26 -0.27,2.34 -1.22,2.8l-0.85 0.41 0 -1.51c0,-1.8 -0.32,-1.63 -0.71,0.42 -0.19,1 -0.43,1.58 -0.82,1.87 -0.3,0.25 -0.59,0.44 -0.66,0.44 -0.07,0 -0.1,-0.75 -0.05,-1.7 0.05,-1.03 0,-1.71 -0.15,-1.71 -0.26,0 -0.41,0.59 -0.65,2.63 -0.15,1.19 -0.25,1.32 -1.12,1.75 -0.52,0.27 -0.98,0.49 -1.05,0.49 -0.05,0 -0.05,-0.85 0,-1.9 0.15,-2.21 -0.12,-1.99 -0.76,0.61 -0.21,0.97 -0.46,1.78 -0.51,1.78 -0.07,0 -0.05,-0.9 0.03,-2.02 0.17,-2.34 -0.17,-2.17 -0.61,0.31 -0.39,2.22 -0.42,2.34 -1.1,2.63 -0.56,0.27 -0.61,0.25 -0.48,-0.26 0.07,-0.3 0.26,-1.32 0.43,-2.24 0.32,-1.66 0.35,-1.73 1.42,-2.29 1.75,-0.95 8.15,-5.04 11.34,-7.26 6.33,-4.41 9.43,-7.26 13.52,-12.49 3.6,-4.65 8.16,-11.59 10.18,-15.54 0.56,-1.12 1.12,-1.95 1.21,-1.82 0.1,0.09 1.49,2.41 3.05,5.13l0 0zm13.98 3.1c3.6,6.08 10,17.16 10,17.26 0,0.05 -1.51,0.17 -3.33,0.24 -1.85,0.08 -3.85,0.2 -4.46,0.25l-1.12 0.12 -0.71 -1.36c-0.41,-0.76 -0.75,-1.46 -0.8,-1.56 -0.05,-0.1 1.56,-0.12 3.56,-0.05 6.04,0.24 6.79,-0.44 0.99,-0.9 -5.62,-0.44 -5.18,-0.29 -6.16,-2.07 -0.48,-0.85 -0.87,-1.61 -0.87,-1.68 0,-0.07 0.46,-0.15 1.04,-0.17 1.51,-0.03 4.34,-0.54 4.39,-0.83 0.02,-0.15 -1.17,-0.27 -3.12,-0.32l-3.16 -0.07 -0.78 -1.48 -0.78 -1.49 3.65 0.17c2.19,0.1 3.63,0.07 3.63,-0.05 0,-0.34 -0.76,-0.49 -4.02,-0.78 -3.99,-0.39 -3.8,-0.31 -4.55,-1.68 -0.39,-0.66 -0.69,-1.24 -0.69,-1.26 0,-0.05 1.81,-0.05 4.02,0 2.66,0.04 4.02,0 4.02,-0.17 0,-0.39 -0.56,-0.49 -4.02,-0.78 -4.87,-0.39 -4.79,-0.37 -5.43,-1.51 -0.29,-0.56 -0.48,-1.05 -0.41,-1.12 0.05,-0.05 1.73,0.12 3.7,0.41 1.97,0.29 3.85,0.56 4.16,0.61 0.54,0.07 0.73,-0.2 0.32,-0.44 -0.34,-0.22 -7.52,-1.61 -8.3,-1.61 -0.59,0 -0.81,-0.19 -1.42,-1.29l-0.7 -1.26 3.67 -0.15c2.03,-0.07 3.9,-0.12 4.17,-0.12 0.36,0.02 1.22,1.27 3.51,5.14l0 0zm10.93 18.92c2.58,4.26 10.93,20.5 13.39,26 1.75,3.97 4.75,11.72 5.04,13.13l0.17 0.83 -2.02 -0.15c-1.12,-0.1 -3.31,-0.17 -4.84,-0.17 -2.49,0 -2.85,-0.05 -3.1,-0.46 -0.26,-0.42 -0.22,-0.44 0.78,-0.32 0.61,0.05 2.14,-0.02 3.46,-0.17 3.17,-0.39 3.73,-0.51 3.73,-0.8 0,-0.27 -6.77,-0.1 -7.94,0.19 -0.47,0.12 -0.64,-0.02 -1.03,-0.8l-0.48 -0.93 4.5 -0.02c2.66,-0.03 4.58,-0.12 4.73,-0.27 0.34,-0.34 -0.88,-0.51 -5.58,-0.71 -3.68,-0.14 -4.02,-0.22 -4.31,-0.68 -0.71,-1.07 -0.66,-1.09 2.8,-1.24 1.8,-0.07 3.6,-0.19 3.97,-0.27 1.48,-0.31 0.15,-0.56 -3.73,-0.73 -3.84,-0.17 -4.35,-0.27 -4.38,-0.97 0,-0.15 1.71,-0.37 4.7,-0.56 2.56,-0.17 4.77,-0.42 4.89,-0.54 0.3,-0.27 -0.09,-0.29 -5.77,-0.31l-4.36 -0.03 -0.41 -1.12 -0.44 -1.09 4.02 -0.3c2.19,-0.14 4.04,-0.31 4.14,-0.39 0.34,-0.36 -0.44,-0.44 -4.38,-0.46l-4.19 -0.05 -0.44 -1.09c-0.22,-0.61 -0.41,-1.22 -0.41,-1.37 -0.03,-0.17 1.17,-0.31 3.45,-0.41 3.71,-0.17 4.87,-0.34 4.66,-0.68 -0.08,-0.12 -2.07,-0.22 -4.44,-0.22l-4.31 0 -0.51 -1.32 -0.51 -1.31 2.58 -0.17c3.02,-0.17 3.92,-0.32 3.92,-0.64 0,-0.12 -1.02,-0.21 -2.24,-0.24 -3.46,-0.05 -4.92,-0.27 -5.01,-0.78 -0.08,-0.39 0.24,-0.41 4.18,-0.41 2.37,0 4.29,-0.1 4.29,-0.22 0,-0.27 -1.61,-0.46 -5.72,-0.66l-3.41 -0.17 -0.66 -1.41 -0.63 -1.41 1.48 0.04c1.59,0.05 4.31,-0.65 4.31,-1.12 0,-0.14 -0.73,-0.19 -2.04,-0.09 -2.97,0.24 -4.24,0.02 -4.65,-0.81l-0.37 -0.68 1.17 -0.12c1.9,-0.17 5.41,-0.95 5.41,-1.17 0,-0.29 -2.27,-0.27 -4.05,0.03 -3.31,0.56 -2.92,0.65 -3.62,-0.71 -0.35,-0.68 -0.61,-1.29 -0.61,-1.36 0,-0.08 1.82,-0.13 4.06,-0.13 5.29,0 5,-0.41 -0.51,-0.7 -2.24,-0.12 -4.16,-0.32 -4.28,-0.42 -0.42,-0.41 -1.95,-3.33 -1.83,-3.45 0.05,-0.08 1.56,0.07 3.34,0.29 3.87,0.46 4.53,0.49 4.16,0.12 -0.24,-0.24 -4.04,-0.97 -6.92,-1.29 -1.33,-0.17 -1.33,-0.17 -1.99,-1.51 -0.37,-0.73 -0.66,-1.36 -0.66,-1.41 0,-0.05 0.68,-0.05 1.53,0.02 0.83,0.05 2.56,0 3.83,-0.12 3.72,-0.37 3.55,-0.39 4.09,0.49l0 0zm-71.18 15.34c-0.34,1.09 -0.75,2.09 -0.92,2.19 -0.86,0.54 -0.78,0 0.27,-2.19 0.63,-1.32 1.16,-2.29 1.21,-2.19 0.05,0.09 -0.22,1.07 -0.56,2.19zm88.1 25.22l1.88 -0.07 0.14 0.83c0.22,1.07 -0.39,1.61 -2.04,1.83 -2.29,0.29 -5.09,-0.59 -6.58,-2.12l-0.75 -0.78 2.73 0.19c1.48,0.1 3.58,0.17 4.62,0.12l0 0z"/></g><text x="0" y="324.55" fill="#000000" font-size="5px" font-weight="bold" font-family="'Helvetica Neue', Helvetica, Arial-Unicode, Arial, Sans-serif">Created by my.taa</text><text x="0" y="329.55" fill="#000000" font-size="5px" font-weight="bold" font-family="'Helvetica Neue', Helvetica, Arial-Unicode, Arial, Sans-serif">from the Noun Project</text></svg>